<?xml version="1.0" encoding="utf-8"?>
<!-- Generator: Adobe Illustrator 27.7.0, SVG Export Plug-In . SVG Version: 6.00 Build 0)  -->
<svg version="1.1" id="Layer_1" xmlns="http://www.w3.org/2000/svg" xmlns:xlink="http://www.w3.org/1999/xlink" x="0px" y="0px"
	 viewBox="0 0 1235.2 642.7" style="enable-background:new 0 0 1235.2 642.7;" xml:space="preserve">
<style type="text/css">
	.st0{fill:#816C5D;stroke:#000000;stroke-width:4.6017;stroke-miterlimit:10;}
	.st1{fill:#F5EC43;stroke:#000000;stroke-width:4.6017;stroke-miterlimit:10;}
	.st2{fill:#A1CF6D;stroke:#000000;stroke-width:4.602;stroke-miterlimit:10;}
	.st3{stroke:#000000;stroke-width:4.6017;stroke-miterlimit:10;}
	.st4{fill:#FFFFFF;}
	.st5{fill:none;stroke:#FFFFFF;stroke-width:4.6017;stroke-miterlimit:10;}
	.st6{fill:#FCE0CE;stroke:#000000;stroke-width:4.6017;stroke-miterlimit:10;}
	.st7{fill:#00B1DC;}
	.st8{fill:#C77161;}
	.st9{fill:#AD9282;stroke:#000000;stroke-width:4.6017;stroke-miterlimit:10;}
	.st10{fill:#B6A69E;stroke:#000000;stroke-width:4.6017;stroke-miterlimit:10;}
	.st11{fill:#A1CF6D;}
	.st12{fill:#FFFFFF;stroke:#000000;stroke-width:4.6017;stroke-miterlimit:10;}
	.st13{stroke:#000000;stroke-miterlimit:10;}
</style>
<g>
	<g>
		<g>
			<path d="M1077,512.9c5.6,12.7,16.1,22,25,32.2c2.2,2.5,4.3,5.1,6.2,7.8c0.9,1.3,2.1,2.6,1.7,4.3c-0.5,2-1.4,3.8-2.1,5.7
				c-2.9,7.7-5.5,15.6-7.8,23.5c-2.6,9-4.8,18.1-6.6,27.3c-0.3,1.3,0.4,2.7,1.7,3.1c1.2,0.3,2.8-0.4,3.1-1.7
				c3.3-16.6,7.9-32.9,13.7-48.8c0.7-2,1.5-4,2.3-6c0.8-2,1.3-4,0.6-6.1c-0.6-1.8-1.9-3.3-2.9-4.9c-1-1.4-2.1-2.9-3.3-4.2
				c-4.4-5.5-9.4-10.5-14.1-15.7c-5.2-5.8-9.9-11.9-13.1-19c-0.5-1.2-2.3-1.5-3.4-0.9C1076.6,510.2,1076.4,511.7,1077,512.9
				L1077,512.9z"/>
		</g>
	</g>
	<g>
		<path class="st0" d="M810.4,395.5c-11.7-1.8-10.8-21.5,0.6-23.2c6.4-0.2,12.6,6.6,12.1,13C822.2,390.7,816.3,396.6,810.4,395.5z"
			/>
		<g>
			<path d="M987.4,638.6c-7.2-10.4-22.4-17.2-35.3-21.2c-8.5-3.2-43.1-8-31.6,9.6C938.2,642.5,965.3,646.7,987.4,638.6z"/>
		</g>
		<g>
			<path d="M1095.8,614.9c17.9-3.1,35.3-11.1,53.5-9.1C1179.1,612.8,1138.3,642.7,1095.8,614.9z"/>
		</g>
		<path class="st1" d="M967.6,455.1c0,17.1-0.6,43.7-0.6,60.9c0,1.3,0,2.7,0.9,3.6c0.8,1,2.2,1.2,3.5,1.4c22.5,3,45.2,4.8,67.9,5.6
			c0.3-12.6-1.4-25.2-5.1-37.2c8.2,7.6,14.8,17,19.1,27.3c18.3-3.5,36.7-6.9,55-10.4c-3.9-20.9-7.8-41.7-11.7-62.6
			c-0.5-2.6-1.2-12.8-3.5-14.2c-2-1.2-4.5-0.8-6.8-0.4C1043.7,437,1009.2,442.4,967.6,455.1z"/>
		<g>
			<g>
				<path d="M823.9,385.8c20.3-0.3,40.6,1.8,60.5,6.2c5.6,1.2,11.1,2.7,16.6,4.3c1.1,0.3,2.2-0.2,2.8-1.1c5.6-9,14-16.4,23.8-20.5
					c1.2-0.5,2.1-1.7,1.7-3.1c-0.3-1.2-1.8-2.3-3.1-1.7c-11.1,4.6-20.5,12.5-26.8,22.8c0.9-0.4,1.9-0.8,2.8-1.1
					c-19.8-5.8-40.4-9.3-61-10.3c-5.8-0.3-11.6-0.4-17.4-0.3C820.7,380.8,820.6,385.8,823.9,385.8L823.9,385.8z"/>
			</g>
		</g>
		<path class="st2" d="M917,359.8c1.4,12.5,6.2,24.6,13.7,34.6c9-8.6,18.1-17.2,27.1-25.8c1.5,31.1,2.9,62.3,4.4,93.4
			c44.9-15.2,91.8-24.6,139.1-27.9c-7.9-29.1-15.7-58.1-23.6-87.2c-0.8-2.9-1.6-5.8-1-8.8c0.5-2.7,2.1-5.1,3.6-7.4
			c11.7-17.1,24.4-33.5,37.9-49.1c-7.5-9.9-15.5-19.4-23.9-28.5c-18.8,16-37.6,31.9-56.4,47.9c-2.6,2.2-5.3,4.5-8.6,5.7
			c-3.5,1.3-7.3,1.2-11,1.1c-15.2-0.5-30.4-1-45.7-1.4c-2.4-0.1-4.8-0.1-7.1,0.7c-2.5,1-4.4,3-6.2,4.9
			C945.7,326.7,930.8,344.9,917,359.8z"/>
		<g>
			<g>
				<path d="M1106.5,267.1c2.4-1.7,4.9-3.5,7.3-5.2c2.1-1.5,4.6-2.9,6.2-4.9c1.7-2.2,1.8-4.9,1.7-7.6c-0.1-2.8-0.2-5.5-0.2-8.3
					c0-11.1,1.1-22.2,3.2-33c1.2-6.2,2.7-12.4,4.6-18.4c0.9-3.1-3.9-4.4-4.8-1.3c-3.2,10.4-5.4,21-6.6,31.7
					c-0.6,5.3-1,10.7-1.2,16.1c-0.1,2.8-0.1,5.5-0.1,8.3c0,2.5,0.5,5.3,0.2,7.8c-0.3,2.4-3,3.7-4.8,4.9c-2.6,1.9-5.3,3.7-7.9,5.6
					c-1.1,0.8-1.6,2.2-0.9,3.4C1103.7,267.3,1105.3,267.9,1106.5,267.1L1106.5,267.1z"/>
			</g>
		</g>
		<g>
			<g>
				<path d="M994.7,526c-3.1,29-5.8,58-8,87c-0.6,8.2-1.2,16.4-1.8,24.6c-0.1,1.3,1.2,2.5,2.5,2.5c1.4,0,2.4-1.1,2.5-2.5
					c2-29.1,4.4-58.1,7.3-87.1c0.8-8.2,1.7-16.4,2.5-24.5c0.1-1.3-1.3-2.5-2.5-2.5C995.8,523.5,994.9,524.6,994.7,526L994.7,526z"/>
			</g>
		</g>
		<g>
			<g>
				<g>
					<g>
						<path class="st0" d="M1042.1,171.1c58.9,30.6,18.4,133.1-45.1,121.7c-34.4-10.7-54.8-57.4-40.6-90.3
							C971.2,175.4,1013.3,154.5,1042.1,171.1z"/>
						<path class="st3" d="M987,206.2c-20.6,0.9-21.6,38.7-4.3,44.3C1011,257.4,1011.2,207.5,987,206.2z"/>
						<path class="st4" d="M996.9,223.4"/>
					</g>
					<path d="M1039.5,204.4c-26.9-1-29.5,51.2,1.1,46.5c0.9-0.1,1.7-0.2,2.6-0.3c20.1-2.6,15.2-34.2,1.5-44.4
						C1043.1,205.1,1041.3,204.5,1039.5,204.4z"/>
					<path class="st4" d="M1036.1,248c-8.1,0.5-11.3-8.7-9.2-10.8c6.1-6.1,14-10.7,22.6-7.6c0,0,1.9,0.5,2.1,2.7
						C1052.1,241,1050.5,247.1,1036.1,248z"/>
					<path class="st4" d="M1040.8,208.5c10.1,4.4,3.5,9.2-2.7,9.6c-2.7,0.2-4.5-1-6.4-2.5c-2.1-1.6-1.7-5.2,0.6-6.2
						C1035.1,208.3,1038.8,207.8,1040.8,208.5z"/>
				</g>
				<path class="st4" d="M984,246.6c3.1,0.6,6.2,0.2,9.1-1.1c2.6-1.1,5.1-2.8,5.7-5.6C1010.4,213.6,959.9,242.1,984,246.6z"/>
				<path class="st4" d="M988.3,222.7c17.2-1.3,1.5-17.2-6.1-10.7c-1.3,1.1-1.7,2.9-1.1,4.5C982.3,219.7,984.7,222.8,988.3,222.7z"
					/>
			</g>
			<g>
				<g>
					<path d="M1002.6,266.1c8.1-0.5,16.2-1,24.4-1.5c3.2-0.2,3.2-5.2,0-5c-8.1,0.5-16.2,1-24.4,1.5
						C999.4,261.3,999.4,266.3,1002.6,266.1L1002.6,266.1z"/>
				</g>
			</g>
		</g>
		<g>
			<g>
				<path d="M1110.5,145.7c-6,8.8-22.4,26.8-8.9,34.9c11.7,6.4,23.4,12.8,35.1,19.2c17,10.1,44.8-53.2,57-64.4
					c7.8-8.6,13.2-21.8,0.6-27.3C1127.9,66.2,1151.2,87,1110.5,145.7z"/>
				<g>
					<path d="M1108.4,144.4c-3.4,5.1-7.4,9.8-10.4,15.1c-3,5.3-5.6,11.9-2.8,17.8c1.7,3.5,5,5.2,8.3,7c4.6,2.5,9.2,5,13.8,7.6
						c4.7,2.6,9.4,5.1,14,7.7c2.3,1.3,4.8,3.1,7.5,3.5c3.7,0.6,7.3-0.8,10.3-2.9c3.8-2.7,7.1-6.1,10-9.7c7.4-9,13.5-19,19.7-29
						c2.8-4.6,5.6-9.2,8.6-13.7c1.2-1.9,2.5-3.8,3.8-5.6c0.3-0.4,0.5-0.8,0.8-1.1c0.1-0.2,0.3-0.4,0.4-0.6c0.3-0.4,0,0-0.1,0.1
						c0.1-0.1,0.2-0.2,0.3-0.3c0.5-0.7,1-1.3,1.6-1.9c4.1-4.5,7.9-9.2,9.5-15.2c0.8-3,1-6.3,0-9.2c-1.2-3.3-3.7-5.9-6.7-7.6
						c-3.8-2-7.4-4.5-11.1-6.7c-3.2-1.9-6.3-3.8-9.5-5.7c-4.7-2.7-9.5-5.4-14.5-7.5c-5.8-2.5-13-4.7-18.7-0.8
						c-5.6,3.8-8.5,11-11.3,16.9c-5.2,10.9-10.5,21.7-16.9,31.9C1112.8,137.9,1110.6,141.2,1108.4,144.4c-0.8,1.1-0.2,2.8,0.9,3.4
						c1.2,0.7,2.6,0.2,3.4-0.9c7.5-10.9,14.1-22.4,19.9-34.3c1.9-4,3.8-8,5.8-12c0.8-1.6,1.6-3.1,2.5-4.7c0.4-0.7,0.8-1.3,1.2-2
						c0.2-0.3,0.4-0.5,0.6-0.8c0.1-0.1,0.2-0.3,0.3-0.4c0.4-0.5-0.2,0.3,0,0c0.8-1,1.7-1.8,2.6-2.7c-0.6,0.5-0.1,0,0.2-0.1
						c0.2-0.2,0.5-0.3,0.7-0.5c0.2-0.1,0.5-0.2,0.7-0.4c0.1-0.1-0.6,0.2-0.1,0.1c0.2,0,0.3-0.1,0.5-0.2c0.6-0.2,1.1-0.3,1.7-0.4
						c-0.8,0.2,0,0,0.3,0c0.3,0,0.6,0,1,0c0.3,0,0.6,0,1,0c0.2,0,0.3,0,0.5,0c0.1,0,0.1,0,0.2,0c0.5,0-0.6-0.1-0.1,0
						c0.7,0.2,1.4,0.3,2.2,0.4c1.8,0.4,3.5,1.1,5.1,1.8c0.1,0,0.2,0.1,0.3,0.1c0.3,0.1-0.4-0.2,0,0c0.2,0.1,0.4,0.2,0.7,0.3
						c0.5,0.2,1.1,0.5,1.6,0.7c1.1,0.5,2.2,1.1,3.3,1.6c5.6,2.9,11,6.1,16.3,9.3c3.5,2.2,7.1,4.3,10.6,6.6c1.4,0.9,3.1,1.5,4.3,2.6
						c1.1,0.9,1.8,1.8,2.4,3.1c0,0,0.1,0.2,0.2,0.5c0.1,0.3,0.2,0.7,0.3,1c0.1,0.5,0.2,0.9,0.2,1.7c0,1.4-0.1,2.3-0.6,3.7
						c-0.8,3-2.4,5.7-4.2,8.2c-1.3,1.8-2.8,3.3-4.2,4.9c-1.2,1.4-2.4,2.9-3.5,4.4c-2.7,3.7-5.2,7.7-7.6,11.6
						c-5.9,9.5-11.6,19.2-18.1,28.4c-2.9,4.2-5.6,7.8-9.2,11.6c-1.4,1.5-2.9,2.9-4.6,4.2c0.5-0.4-0.1,0.1-0.2,0.2
						c-0.2,0.1-0.3,0.2-0.5,0.4c-0.4,0.3-0.8,0.5-1.2,0.8c-0.4,0.2-0.7,0.4-1.1,0.6c-0.2,0.1-0.4,0.2-0.6,0.3
						c-0.3,0.1-0.6,0.3-0.1,0.1c-0.7,0.3-1.4,0.5-2.2,0.6c-0.4,0.1-0.4,0,0.1,0c-0.2,0-0.4,0-0.5,0c-0.4,0-0.7,0-1.1,0
						c-0.5,0,0.1,0,0.1,0c-0.1,0-0.3-0.1-0.5-0.1c-0.3-0.1-0.7-0.2-1-0.3c-0.3-0.1,0.5,0.3,0,0c-0.1-0.1-0.3-0.2-0.4-0.2
						c-1-0.5-2-1.1-3-1.7c-9-4.9-18-9.8-27-14.8c-2-1.1-4.3-2.1-6.2-3.5c-1-0.7-1.7-1.5-2.3-2.5c-0.4-0.6-0.3-0.4-0.5-1.2
						c-0.1-0.3-0.2-0.6-0.2-0.9c0,0-0.1-0.4,0-0.1c0,0.3,0-0.3,0-0.4c-0.1-1.5,0-2.2,0.3-3.5c1.4-5.7,5.2-11,8.7-15.8
						c1.5-2.1,3.1-4.2,4.6-6.4C1114.5,144.3,1110.2,141.8,1108.4,144.4z"/>
				</g>
			</g>
			<path class="st5" d="M1177.3,144.1c-9.4-3-10.1-16.3-7-24.3c-29.1,89.7-70.5,14.4-24.2,17"/>
		</g>
	</g>
</g>
<g>
	<g>
		<g>
			<g>
				<path d="M637.5,449.9c0.1,12.8,0.5,25.7,0.9,38.5c0.4,14.5,0.8,29.1,1,43.6c0.1,6.7,0.1,13.4-0.2,20.1c-0.1,3.2,4.9,3.2,5,0
					c0.5-12.8,0.2-25.7-0.1-38.5c-0.3-14.5-0.8-29.1-1.2-43.6c-0.2-6.7-0.3-13.4-0.4-20.1C642.5,446.7,637.5,446.7,637.5,449.9
					L637.5,449.9z"/>
			</g>
		</g>
		<g>
			<path d="M640.6,553.3c12.1-2.5,23.9-8.7,36.2-7.1C697.2,551.9,668.9,575,640.6,553.3z"/>
		</g>
	</g>
	<g>
		<path class="st6" d="M744.5,256.8c-8.9-7.9,2.6-23.9,13.1-19.2c5.5,3.4,7,12.4,3.1,17.4C757,259.2,748.8,261,744.5,256.8z"/>
		<g>
			<path class="st7" d="M541.9,292.8c-2,8.8-1.1,17.8-3.1,26.6c7.4,2.4,17.3,3.5,22.6,9.5c-6.3,22.2-15.5,44.5-18.5,67.9
				c36.2-2.6,72.5-3.9,108.7-3.9c-7-22.6-12-45.8-14.8-69.2c15.8-6.3,31.6-12.6,47.3-19c-4.7-8.3-9.4-16.6-14.2-25
				c-15.3,7.6-29.9,17.7-46.6,22.2C596.2,306.9,568.1,299.8,541.9,292.8z"/>
			<g>
				<path d="M539.5,292.1c-1.9,8.8-1.2,17.9-3.1,26.6c-0.3,1.4,0.4,2.6,1.7,3.1c7.1,2.3,16.1,3,21.5,8.9c-0.2-0.8-0.4-1.6-0.6-2.4
					c-5,17.7-11.7,35-15.8,52.9c-1.2,5.2-2.1,10.4-2.8,15.6c-0.2,1.3,1.3,2.6,2.5,2.5c28.3-2,56.6-3.3,84.9-3.7
					c7.9-0.1,15.9-0.2,23.9-0.2c1.6,0,2.9-1.6,2.4-3.2c-5.4-17.4-9.6-35.2-12.5-53.2c-0.8-5.1-1.6-10.2-2.2-15.3
					c-0.6,0.8-1.2,1.6-1.8,2.4c15.8-6.3,31.6-12.6,47.3-19c1.5-0.6,2.4-2.1,1.5-3.7c-4.7-8.3-9.4-16.7-14.2-25
					c-0.7-1.2-2.2-1.5-3.4-0.9c-14.8,7.4-28.7,17-44.7,21.6c-4.1,1.2-8.5,1.5-12.7,1.7c-4.4,0.3-8.8,0.3-13.2,0.1
					c-8.9-0.4-17.6-1.7-26.3-3.5c-9.8-2-19.5-4.5-29.1-7.1c-3.1-0.8-4.4,4-1.3,4.8c17.5,4.7,35.3,9.3,53.5,10.5
					c9.1,0.6,18.2,0.4,27.2-1.1c4.2-0.7,8.3-2.2,12.3-3.8c4-1.6,7.8-3.4,11.6-5.4c8.5-4.4,16.8-9.3,25.4-13.6
					c-1.1-0.3-2.3-0.6-3.4-0.9c4.7,8.3,9.4,16.7,14.2,25c0.5-1.2,1-2.4,1.5-3.7c-15.8,6.3-31.6,12.6-47.3,19c-0.9,0.4-2,1.3-1.8,2.4
					c2.2,18.4,5.7,36.7,10.5,54.6c1.4,5.1,2.8,10.2,4.4,15.3c0.8-1.1,1.6-2.1,2.4-3.2c-28.3,0-56.6,0.7-84.9,2.3
					c-7.9,0.4-15.9,1-23.8,1.5c0.8,0.8,1.7,1.7,2.5,2.5c1.8-13.6,5.7-26.7,9.9-39.7c2.1-6.5,4.2-13,6.2-19.5c0.5-1.6,1-3.2,1.5-4.9
					c0.5-1.8,1.6-3.9,0.2-5.5c-1.7-2-4-3.5-6.3-4.6c-5.5-2.7-11.6-3.7-17.4-5.5c0.6,1,1.2,2.1,1.7,3.1c1.9-8.8,1.2-17.9,3.1-26.6
					C545,290.3,540.2,289,539.5,292.1z"/>
			</g>
		</g>
		<g>
			<g>
				<g>
					<path d="M564.3,449.3c0.1,14.3-0.3,28.6-0.8,43c-0.5,15.9-1.2,31.8-1.9,47.7c-0.3,7.5-0.7,15.1-1.1,22.6c-0.2,3.2,4.8,3.2,5,0
						c0.7-14.3,1.4-28.6,2-42.9c0.7-15.9,1.3-31.8,1.6-47.7c0.2-7.5,0.3-15.1,0.2-22.6C569.2,446.1,564.2,446.1,564.3,449.3
						L564.3,449.3z"/>
				</g>
			</g>
			<g>
				<path d="M563.7,564c-10.8-7.1-25-8.9-38-8.8c-9.7-1.5-20.5,9.8-7.5,14.5C533.3,573.9,549.1,568.1,563.7,564z"/>
			</g>
		</g>
		<g>
			<path class="st8" d="M529.4,463.6c26.7-3.1,53.6-4.9,80.5-5.7c20.9-0.7,42.4-0.6,61.6,7.6c-6.3-19.9-12.3-50.9-18.6-70.8
				c-0.5-1.7-1.2-3.6-2.8-4.4c-1-0.5-2.2-0.5-3.4-0.5c-33,0.9-66,1.8-99,2.7c-1,0-2,0.1-2.8,0.6c-1.1,0.8-1.4,2.3-1.6,3.7
				C542.7,401,530,459.3,529.4,463.6z"/>
			<g>
				<path d="M529.4,466.1c19.2-2.2,38.4-3.8,57.7-4.8c9.5-0.5,18.9-0.9,28.4-1.1c8.8-0.2,17.7-0.2,26.5,0.7
					c9.6,0.9,19.3,2.9,28.2,6.7c0.9,0.4,1.9,0.5,2.8-0.2c0.8-0.6,1.2-1.7,0.9-2.6c-6.2-19.4-10-39.6-15.3-59.2
					c-1.2-4.4-2.2-9-4-13.3c-1.2-3-3.4-4.8-6.7-5c-3.1-0.2-6.2,0.1-9.3,0.2c-13.1,0.4-26.2,0.7-39.3,1.1c-12.9,0.3-25.9,0.7-38.8,1
					c-3.2,0.1-6.5,0.2-9.7,0.3c-2.8,0.1-6.3-0.3-8.3,1.9c-0.9,1-1.4,2.2-1.6,3.5c-0.1,0.4-0.1,0.8-0.2,1.2c-0.1,0.9,0-0.2,0-0.2
					c0,0.1,0,0.2,0,0.3c-0.1,0.5-0.2,1-0.3,1.5c-2.1,11-4.5,21.9-6.8,32.8c-2.2,10.4-4.6,20.8-6.5,31.2c-0.1,0.6-0.2,1.1-0.3,1.7
					C526.8,464.9,528.2,466.1,529.4,466.1c1.5,0,2.3-1.2,2.5-2.5c-0.2,1.3,0-0.2,0.1-0.5c0.1-0.7,0.2-1.3,0.4-2c0.4-2,0.8-4,1.2-6.1
					c1.2-5.9,2.4-11.7,3.7-17.6c2.5-11.7,5-23.3,7.3-35c0.3-1.4,0.6-2.8,0.8-4.3c0.1-0.7,0.2-1.5,0.4-2.2c0.2-0.8,0.2-1,1-1.1
					c1.6-0.2,3.2-0.1,4.7-0.1c12.7-0.3,25.4-0.7,38.1-1c12.7-0.3,25.4-0.7,38.1-1c6.3-0.2,12.6-0.4,18.9-0.5c1,0,2-0.2,2.7,0.6
					c0.6,0.7,0.9,1.9,1.2,2.8c0.7,2.1,1.3,4.2,1.9,6.3c5.5,19.2,9.3,38.8,14.8,58c0.6,2.1,1.2,4.2,1.9,6.2c1.2-0.9,2.4-1.9,3.7-2.8
					c-16.6-7.1-34.8-8.4-52.7-8.2c-19.2,0.2-38.5,1.3-57.6,2.8c-11,0.9-22,1.9-33,3.2c-1.3,0.2-2.5,1-2.5,2.5
					C526.9,464.8,528.1,466.2,529.4,466.1z"/>
			</g>
		</g>
		<g>
			<g>
				<path d="M677.9,292c16.5-9.3,33.2-18.2,50.2-26.6c4.8-2.4,9.7-4.8,14.6-7.1c1.2-0.6,1.5-2.3,0.9-3.4c-0.7-1.2-2.2-1.5-3.4-0.9
					c-17.1,8.2-34,16.8-50.6,25.9c-4.7,2.6-9.5,5.2-14.2,7.9C672.5,289.3,675,293.6,677.9,292L677.9,292z"/>
			</g>
		</g>
		<g>
			<g>
				<path d="M541.7,304.6c-17.6-7.3-34.9-15.4-51.8-24.1c0.3,1.1,0.6,2.3,0.9,3.4c6.1-8.4,10.7-17.8,13.7-27.7
					c0.9-3.1-3.9-4.4-4.8-1.3c-2.9,9.5-7.4,18.5-13.2,26.6c-0.8,1.1-0.2,2.8,0.9,3.4c17.3,8.9,35,17.1,53,24.6
					c1.2,0.5,2.7-0.6,3.1-1.7C543.8,306.2,542.9,305.1,541.7,304.6L541.7,304.6z"/>
			</g>
		</g>
		<g>
			<g>
				<g>
					<g>
						<path class="st6" d="M645.4,171.9c56.9,34.2,10.2,133.9-52.5,118.8c-33.7-12.7-51.2-60.7-35.1-92.6
							C574.4,171.8,617.7,153.6,645.4,171.9z"/>
						<path class="st3" d="M588.3,203.6c-20.6-0.3-23.9,37.4-7,44C609.1,256.1,612.4,206.3,588.3,203.6z"/>
						<path class="st4" d="M597.1,221.4"/>
					</g>
					<path d="M640.8,205c-26.8-2.7-32.6,49.3-1.8,46.5c0.9-0.1,1.8-0.1,2.6-0.2c20.2-1.4,17.2-33.2,4.2-44.2
						C644.4,205.9,642.6,205.2,640.8,205z"/>
					<path class="st4" d="M634.7,248.3c-8.1,0-10.8-9.4-8.6-11.3c6.5-5.8,14.6-9.8,23-6.2c0,0,1.9,0.6,1.9,2.9
						C651.1,242.2,649.2,248.3,634.7,248.3z"/>
					<path class="st4" d="M641.8,209.1c9.8,5,3,9.4-3.3,9.4c-2.7,0-4.5-1.3-6.2-2.9c-2-1.8-1.4-5.3,1-6.1
						C636.2,208.5,639.9,208.3,641.8,209.1z"/>
				</g>
				<path class="st4" d="M582.9,243.7c3,0.8,6.2,0.6,9.2-0.5c2.7-1,5.2-2.5,6-5.2C611.2,212.3,559,237.8,582.9,243.7z"/>
				<path class="st4" d="M588.6,220.1c17.3-0.2,2.6-17.1-5.4-11c-1.3,1-1.9,2.8-1.4,4.4C582.8,216.8,585,220,588.6,220.1z"/>
			</g>
			<g>
				<g>
					<path d="M600.4,264.3c8.1,0,16.3,0,24.4,0c3.2,0,3.2-5,0-5c-8.1,0-16.3,0-24.4,0C597.2,259.3,597.2,264.3,600.4,264.3
						L600.4,264.3z"/>
				</g>
			</g>
		</g>
		<g>
			<g>
				<path d="M476,218.6c-2.4,10.4-11.2,33.1,4.3,35.7c14.9,1.3,30.1,5.5,45,5.1c17.8-21.5,15-54.6,24.6-80.5
					c4.2-10.8,4.4-25.1-9.3-25.7C463.6,138.2,492.8,149.2,476,218.6z"/>
				<g>
					<path d="M473.6,217.9c-1.2,5-2.7,9.9-3.7,14.9c-1,5.2-1.9,11.2,0.2,16.2c1,2.5,2.6,4.6,4.9,6c3.3,1.9,7.1,1.9,10.7,2.3
						c9.7,1.2,19.2,3.2,28.9,4.1c2.4,0.2,4.9,0.4,7.3,0.4c1.1,0,2.2,0.1,3.3,0c1.4-0.1,2.1-1.1,2.9-2.2c2.3-3,4.4-6.2,6.1-9.7
						c3.4-6.9,5.7-14.4,7.4-21.9c3.4-15.1,4.7-30.7,9.5-45.5c1-3.1,2.3-6.1,2.9-9.2c0.6-2.9,1-6,0.7-9c-0.6-6-3.7-11.3-9.8-13
						c-1.6-0.5-3.4-0.5-5-0.8c-1.8-0.3-3.5-0.7-5.3-1c-3.2-0.6-6.5-1.2-9.7-1.8c-5.3-0.9-10.6-1.8-16-2.4
						c-6.2-0.7-13.3-1.4-19.2,1.3c-4.4,2-6.8,6.3-7.9,10.8c-1.6,6.5-1.7,13.4-2.2,20c-0.8,10.6-2,20.3-4.1,30.7
						C475.1,211.5,474.4,214.7,473.6,217.9c-0.8,3.1,4.1,4.5,4.8,1.3c2.2-9.2,3.9-18.4,5-27.8c0.8-6.7,1.3-13.5,1.8-20.2
						c0.2-2.5,0.4-5,0.7-7.5c0-0.3,0.1-0.6,0.1-0.9c0-0.3-0.1,0.6,0-0.2c0.1-0.5,0.2-1.1,0.3-1.6c0.2-1,0.4-1.9,0.6-2.9
						c0.2-0.8,0.5-1.6,0.8-2.4c0.2-0.6-0.3,0.6,0,0c0.1-0.2,0.2-0.3,0.2-0.5c0.2-0.4,0.4-0.7,0.6-1c0.2-0.3,0.4-0.6,0.6-0.9
						c-0.5,0.8,0.1-0.2,0.4-0.4c0.3-0.3,0.5-0.5,0.8-0.8c0.4-0.4-0.3,0.1-0.1,0c0.2-0.1,0.4-0.3,0.5-0.4c0.3-0.2,0.6-0.4,0.9-0.5
						c0.2-0.1,0.3-0.2,0.5-0.2c0.3-0.1-0.6,0.2,0.1,0c0.8-0.3,1.6-0.5,2.5-0.7c0.4-0.1,0.9-0.2,1.4-0.2c-0.9,0.2,0,0,0.3,0
						c0.3,0,0.6-0.1,0.9-0.1c1.2-0.1,2.4-0.1,3.6-0.1c7.1,0.1,13.2,1.1,20.1,2.3c4.9,0.8,9.7,1.7,14.6,2.6c1.4,0.3,2.9,0.6,4.3,0.8
						c1.3,0.2,2.4,0.2,3.7,0.6c1.7,0.5,3,1.3,4.2,2.8c-0.3-0.4,0.2,0.3,0.2,0.3c0.1,0.2,0.2,0.3,0.3,0.5c0.2,0.4,0.4,0.8,0.6,1.2
						c-0.2-0.4,0.1,0.3,0.1,0.3c0.1,0.2,0.2,0.5,0.2,0.7c0.1,0.5,0.3,1,0.4,1.5c0.1,0.6,0.2,1.6,0.2,2.5c0,1.2,0,2.4-0.2,3.5
						c-0.5,4.5-2.6,9.3-4,13.9c-3.4,11.3-5,23.1-7.1,34.7c-2.1,11.2-4.7,22.7-10.5,32.7c-1.4,2.4-2.9,4.6-4.6,6.7
						c0.6-0.2,1.2-0.5,1.8-0.7c-7.9,0.2-15.7-0.9-23.5-2.1c-3.8-0.6-7.6-1.2-11.4-1.8c-2-0.3-3.9-0.5-5.9-0.8
						c-1.6-0.2-3.3-0.2-4.9-0.6c-0.3-0.1-0.5-0.1-0.7-0.2c0,0-0.8-0.3-0.3-0.1c-0.4-0.2-0.8-0.4-1.2-0.7c-0.2-0.1-0.4-0.2-0.6-0.4
						c0.4,0.3-0.1-0.1-0.2-0.2c-0.2-0.1-0.3-0.3-0.5-0.5c-0.1-0.1-0.6-0.8-0.3-0.3c-0.2-0.3-0.4-0.6-0.6-0.9
						c-0.1-0.2-0.2-0.4-0.3-0.6c0-0.1-0.3-0.7-0.1-0.2c-0.4-0.9-0.6-1.9-0.8-2.8c0,0-0.1-0.8,0-0.3c0-0.2-0.1-0.5-0.1-0.7
						c0-0.5-0.1-1-0.1-1.5c0-1.1,0-2.3,0.1-3.4c0.2-2,0.5-3.9,1-6.1c1-4.6,2.4-9,3.4-13.6C479.2,216.1,474.4,214.8,473.6,217.9z"/>
				</g>
			</g>
			<path class="st5" d="M537,193.2c-9.9,0.9-15.7-11.1-15.9-19.7c8.1,94-59.3,40.7-15.7,25.1"/>
		</g>
	</g>
</g>
<g>
	<path class="st9" d="M5.5,342c-8.9-7.9,2.6-23.9,13.1-19.2c5.5,3.4,7,12.4,3.1,17.4C18,344.4,9.7,346.2,5.5,342z"/>
	<g>
		<g>
			<g>
				<g>
					<path d="M250.8,523.3c7,7.3,13.7,15.2,19.8,23.3c7.8,10.4,13.1,22.6,17.8,34.7c3.1,7.8,5.8,15.8,8.6,23.8
						c0.4,1.3,1.7,2.1,3.1,1.7c1.2-0.3,2.2-1.8,1.7-3.1c-5-14.4-10-28.8-16.7-42.4c-2.7-5.5-5.7-11-9.3-16c-3.3-4.5-6.8-8.8-10.4-13
						c-3.6-4.3-7.3-8.5-11.1-12.5C252.1,517.5,248.6,521,250.8,523.3L250.8,523.3z"/>
				</g>
			</g>
			<g>
				<g>
					<path d="M182.1,534.3c2.3,10.6,3.7,21.5,4.8,32.3c0.5,5.4,0.6,10.9,1.1,16.3c0.7,7.4,2.1,14.7,4.1,21.9c2.3,8.1,5.1,16,8,23.9
						c0.5,1.3,1.7,2.1,3.1,1.7c1.2-0.3,2.2-1.8,1.7-3.1c-4.9-13.9-10.1-27.9-11.7-42.6c-0.6-5.6-0.6-11.2-1.1-16.8
						c-0.6-6-1.3-11.9-2.1-17.9c-0.8-5.7-1.7-11.4-2.9-17.1C186.2,529.9,181.4,531.2,182.1,534.3L182.1,534.3z"/>
				</g>
			</g>
			<path class="st2" d="M158.1,482.8c0,15.3-0.6,49.4-0.5,64.6c13.6-8.8,31.5-10.6,46.5-4.5c0.2-13.5,2.3-27,6.3-39.9
				c5.4,13.6,10.1,27.4,14.1,41.4c15.2-10.9,33.4-17.8,52-19.6c-17.3-33.1-21-74.4-77.6-70.6C186.3,456.5,176.9,475.8,158.1,482.8z"
				/>
			<path class="st1" d="M90.4,369.6c13.8,15.3,43.5,24.9,51.8,43.7c7.4,23.4,6.8,48.9,5.7,73.2c34.8-12.8,73.3-25.6,107.9-12.5
				c8.2-11.7-18.5-51.4-24.3-64.6c9.5,2.9,19,5.8,28.6,8.7c0.8-8.9,6.9-29.5,7.7-38.4c-17-10.6-39.4-9.5-56.5-20.1
				c-24.2,22.6-68.3,2.9-93.2-11C107.5,339.3,95.4,362,90.4,369.6z"/>
			<g>
				<path d="M202.4,628c-10.8-9.5-28.3-12.4-42.6-13c-10.8-1-45.8,4.9-28.3,20.4C154,647.2,182.9,644.1,202.4,628z"/>
			</g>
			<g>
				<path d="M300.1,605.3c8.5-18.1,35.9-42,55.9-44.1c7.4,7.6-5.3,21.3-11.7,26.6c-12.5,10.6-28.3,18.9-44.5,17.3"/>
			</g>
		</g>
		<g>
			<g>
				<g>
					<g>
						<path class="st10" d="M227.2,264.5c14.8,32.6-4.7,79.8-38.9,91.1c-63.3,12.5-105.7-89.1-47.4-120.9
							C169.3,217.5,211.8,237.6,227.2,264.5z"/>
						<path class="st3" d="M201.7,313c17.2-5.9,15.5-43.7-5.2-44.2C172.4,270.5,173.6,320.4,201.7,313z"/>
						<path class="st4" d="M187,286.2"/>
					</g>
					<path d="M138.5,268.4c-14.4,11.2-19,44.9,2.5,47.3c0.9,0.1,1.9,0.2,2.8,0.3c32.7,4.3,28.8-51.2,0.2-49.6
						C142,266.5,140.1,267.2,138.5,268.4z"/>
					<path class="st4" d="M148.3,311.5c8.1,0.3,11.2-8.9,9-10.9c-6.2-6-14.2-10.4-22.8-7.1c0,0-1.9,0.6-2,2.8
						C132.2,304.7,133.9,310.9,148.3,311.5z"/>
					<path class="st4" d="M142.9,272c-10,4.6-3.3,9.3,2.9,9.6c2.7,0.1,4.5-1.1,6.4-2.6c2-1.7,1.6-5.3-0.7-6.2
						C148.5,271.7,144.8,271.3,142.9,272z"/>
				</g>
				<path class="st4" d="M185.4,302.7c0.7,2.8,3.1,4.4,5.8,5.5c2.9,1.2,6.1,1.5,9.1,0.9C224.4,304.1,173.3,276.5,185.4,302.7z"/>
				<path class="st4" d="M202.7,279c0.6-1.6,0.1-3.4-1.2-4.5c-7.7-6.4-23.2,9.9-5.9,10.8C199.2,285.3,201.5,282.2,202.7,279z"/>
			</g>
		</g>
		<g>
			<g>
				<path d="M265,402.1c12.6,0.2,25.1,1.9,37.3,5c1.2,0.3,2.8-0.4,3.1-1.7c3.1-18.1,6.3-36.2,9.4-54.2c0.2-1.3-0.4-2.7-1.7-3.1
					c-1.2-0.3-2.8,0.4-3.1,1.7c-3.1,18.1-6.3,36.2-9.4,54.2c1-0.6,2.1-1.2,3.1-1.7c-12.6-3.2-25.6-5-38.7-5.2
					C261.8,397.1,261.8,402.1,265,402.1L265,402.1z"/>
			</g>
		</g>
		<g>
			<g>
				<path d="M94.2,354.5c-17.5-5.8-35.3-10.8-53.3-14.9c-5.1-1.2-10.2-2.3-15.4-3.3c-1.3-0.3-2.7,0.4-3.1,1.7
					c-0.3,1.2,0.4,2.8,1.7,3.1c18.1,3.7,36,8.2,53.7,13.5c5,1.5,10,3.1,15,4.7C96,360.3,97.3,355.5,94.2,354.5L94.2,354.5z"/>
			</g>
		</g>
		<g>
			<g>
				<path d="M287.3,324.4c-2.4,10.4-11.2,33.1,4.3,35.7c14.9,1.3,30.1,5.5,45,5.1c17.8-21.5,15-54.6,24.6-80.5
					c4.2-10.8,4.4-25.1-9.3-25.7C274.8,244,304,255,287.3,324.4z"/>
				<g>
					<path d="M284.8,323.7c-1.2,5-2.7,9.9-3.7,14.9c-1,5.2-1.9,11.2,0.2,16.2c1,2.5,2.6,4.6,4.9,6c3.3,1.9,7.1,1.9,10.7,2.3
						c9.7,1.2,19.2,3.2,28.9,4.1c2.4,0.2,4.9,0.4,7.3,0.4c1.1,0,2.2,0.1,3.3,0c1.4-0.1,2.1-1.1,2.9-2.2c2.3-3,4.4-6.2,6.1-9.7
						c3.4-6.9,5.7-14.4,7.4-21.9c3.4-15.1,4.7-30.7,9.5-45.5c1-3.1,2.3-6.1,2.9-9.2c0.6-2.9,1-6,0.7-9c-0.6-6-3.7-11.3-9.8-13
						c-1.6-0.5-3.4-0.5-5-0.8c-1.8-0.3-3.5-0.7-5.3-1c-3.2-0.6-6.5-1.2-9.7-1.8c-5.3-0.9-10.6-1.8-16-2.4
						c-6.2-0.7-13.3-1.4-19.2,1.3c-4.4,2-6.8,6.3-7.9,10.8c-1.6,6.5-1.7,13.4-2.2,20c-0.8,10.6-2,20.3-4.1,30.7
						C286.3,317.3,285.6,320.5,284.8,323.7c-0.8,3.1,4.1,4.5,4.8,1.3c2.2-9.2,3.9-18.4,5-27.8c0.8-6.7,1.3-13.5,1.8-20.2
						c0.2-2.5,0.4-5,0.7-7.5c0-0.3,0.1-0.6,0.1-0.9c0-0.3-0.1,0.6,0-0.2c0.1-0.5,0.2-1.1,0.3-1.6c0.2-1,0.4-1.9,0.6-2.9
						c0.2-0.8,0.5-1.6,0.8-2.4c0.2-0.6-0.3,0.6,0,0c0.1-0.2,0.2-0.3,0.2-0.5c0.2-0.4,0.4-0.7,0.6-1c0.2-0.3,0.4-0.6,0.6-0.9
						c-0.5,0.8,0.1-0.2,0.4-0.4c0.3-0.3,0.5-0.5,0.8-0.8c0.4-0.4-0.3,0.1-0.1,0c0.2-0.1,0.4-0.3,0.5-0.4c0.3-0.2,0.6-0.4,0.9-0.5
						c0.2-0.1,0.3-0.2,0.5-0.2c0.3-0.1-0.6,0.2,0.1,0c0.8-0.3,1.6-0.5,2.5-0.7c0.4-0.1,0.9-0.2,1.4-0.2c-0.9,0.2,0,0,0.3,0
						c0.3,0,0.6-0.1,0.9-0.1c1.2-0.1,2.4-0.1,3.6-0.1c7.1,0.1,13.2,1.1,20.1,2.3c4.9,0.8,9.7,1.7,14.6,2.6c1.4,0.3,2.9,0.6,4.3,0.8
						c1.3,0.2,2.4,0.2,3.7,0.6c1.7,0.5,3,1.3,4.2,2.8c-0.3-0.4,0.2,0.3,0.2,0.3c0.1,0.2,0.2,0.3,0.3,0.5c0.2,0.4,0.4,0.8,0.6,1.2
						c-0.2-0.4,0.1,0.3,0.1,0.3c0.1,0.2,0.2,0.5,0.2,0.7c0.1,0.5,0.3,1,0.4,1.5c0.1,0.6,0.2,1.6,0.2,2.5c0,1.2,0,2.4-0.2,3.5
						c-0.5,4.5-2.6,9.3-4,13.9c-3.4,11.3-5,23.1-7.1,34.7c-2.1,11.2-4.7,22.7-10.5,32.7c-1.4,2.4-2.9,4.6-4.6,6.7
						c0.6-0.2,1.2-0.5,1.8-0.7c-7.9,0.2-15.7-0.9-23.5-2.1c-3.8-0.6-7.6-1.2-11.4-1.8c-2-0.3-3.9-0.5-5.9-0.8
						c-1.6-0.2-3.3-0.2-4.9-0.6c-0.3-0.1-0.5-0.1-0.7-0.2c0,0-0.8-0.3-0.3-0.1c-0.4-0.2-0.8-0.4-1.2-0.7c-0.2-0.1-0.4-0.2-0.6-0.4
						c0.4,0.3-0.1-0.1-0.2-0.2c-0.2-0.1-0.3-0.3-0.5-0.5c-0.1-0.1-0.6-0.8-0.3-0.3c-0.2-0.3-0.4-0.6-0.6-0.9
						c-0.1-0.2-0.2-0.4-0.3-0.6c0-0.1-0.3-0.7-0.1-0.2c-0.4-0.9-0.6-1.9-0.8-2.8c0,0-0.1-0.8,0-0.3c0-0.2-0.1-0.5-0.1-0.7
						c0-0.5-0.1-1-0.1-1.5c0-1.1,0-2.3,0.1-3.4c0.2-2,0.5-3.9,1-6.1c1-4.6,2.4-9,3.4-13.6C290.4,321.9,285.6,320.5,284.8,323.7z"/>
				</g>
			</g>
			<path class="st5" d="M347.9,298.7c-9.9,0.9-15.7-11.1-15.9-19.7c8.1,94-59.3,40.7-15.7,25.1"/>
		</g>
	</g>
</g>
<g>
	<g>
		<path d="M168.5,346.5c8.1,0,16.3,0,24.4,0c3.2,0,3.2-5,0-5c-8.1,0-16.3,0-24.4,0C165.3,341.5,165.3,346.5,168.5,346.5L168.5,346.5
			z"/>
	</g>
</g>
<g>
	<g>
		<path class="st11" d="M284.3,175.1c-7.7-1.8-18.8,3.4-16.1,12.4c0,0-0.9,2.7-0.9,2.7c-11.9,0.4-12.4,21.5,1.2,22.2
			c3.7-0.5,0.7,8.6,5.4,6.8c1.4,9.2,14.2,13,20.7,6.9c8.1,5.1,15.4-6.2,16.3-13.6c11.4,9,11.5-18.4-1.9-13.2
			c6.4-5.1,3.9-15.9-5.2-13.3c6.6-16.1-22.5-19-20.8-3.8"/>
		<g>
			<path d="M284.9,172.6c-9.4-2.1-22.3,4.3-19.2,15.5c0-0.4,0-0.9,0-1.3c-0.3,0.9-0.6,1.8-0.9,2.7c0.8-0.6,1.6-1.2,2.4-1.8
				c-7.7,0.3-12.2,7.7-11.4,15c0.4,3.5,1.9,7,4.7,9.3c1.5,1.2,3.3,2.1,5.2,2.6c1,0.2,2,0.4,3,0.3c0.3,0-0.6-0.2-0.2,0
				c0,0-0.9-0.6-0.5-0.3c-0.4-0.3-0.3-0.3-0.1-0.1c0,0-0.1-0.5,0,0.1c0.4,1.6,0.4,3.4,1.2,4.9c1,2.1,3.3,2.9,5.5,2.1
				c-1-0.6-2.1-1.2-3.1-1.7c1.9,11.1,16.9,15.2,24.9,8c-1,0.1-2,0.3-3,0.4c10.4,6.3,18.9-6.8,20.1-15.7c-1.4,0.6-2.8,1.2-4.3,1.8
				c2.2,1.7,4.9,3.2,7.7,2.3c2.4-0.7,3.8-2.9,4.5-5.2c1.2-4.5,0.1-10.3-3.7-13.3c-2.7-2.2-6.1-2.4-9.3-1.2c0.8,1.4,1.6,2.8,2.4,4.2
				c3.4-2.8,5.3-7.9,3.8-12.2c-1.7-4.9-6.6-6.6-11.4-5.3c1,1,2.1,2.1,3.1,3.1c1.3-3.2,1.5-6.7,0-9.8c-1.1-2.5-3.3-4.4-5.8-5.5
				c-5.2-2.4-12.1-2.2-16.6,1.7c-2.6,2.3-3.7,5.8-3.4,9.2c0.1,1.3,1.1,2.5,2.5,2.5c1.2,0,2.6-1.1,2.5-2.5c-0.1-0.7-0.1-1.3,0-1.9
				c0-0.7-0.1,0.1,0-0.3c0.1-0.3,0.1-0.7,0.2-1c0-0.2,0.4-0.9,0.1-0.3c0.1-0.2,0.2-0.4,0.3-0.6c0.1-0.2,0.3-0.4,0.4-0.7
				c0.2-0.3-0.4,0.4,0,0c0.1-0.1,0.2-0.2,0.3-0.3c0.2-0.2,0.4-0.4,0.6-0.5c0.5-0.5-0.2,0.1,0.2-0.1c0.5-0.3,1-0.6,1.5-0.9
				c0.3-0.2-0.4,0.1,0.2-0.1c0.3-0.1,0.5-0.2,0.8-0.3c0.6-0.2,1.1-0.3,1.7-0.4c-0.7,0.1,0.1,0,0.3,0c0.3,0,0.6,0,0.9,0
				c0.6,0,1.1,0,1.7,0.1c0.7,0.1-0.2-0.1,0.4,0c0.3,0.1,0.6,0.1,0.8,0.2c0.6,0.1,1.1,0.3,1.7,0.5c0.1,0,0.2,0.1,0.3,0.1
				c0.4,0.1-0.5-0.3,0,0c0.2,0.1,0.4,0.2,0.7,0.3c0.5,0.3,1,0.6,1.4,0.9c0.3,0.2-0.4-0.4,0,0c0.1,0.1,0.2,0.2,0.3,0.2
				c0.2,0.2,0.3,0.3,0.5,0.5c0.1,0.1,0.7,0.9,0.3,0.3c0.2,0.2,0.3,0.5,0.5,0.7c0.1,0.3,0.3,0.5,0.4,0.8c-0.3-0.6,0.1,0.2,0.1,0.4
				c0.1,0.3,0.1,0.6,0.2,0.9c-0.1-0.7,0,0.3,0,0.5c0,0.3,0,0.7,0,1c0,0-0.1,0.7,0,0.3c0-0.4,0,0.2-0.1,0.3c-0.2,0.9-0.4,1.7-0.8,2.5
				c-0.7,1.8,1.4,3.5,3.1,3.1c1-0.3,1.4-0.3,2.4-0.3c0.4,0,1,0.2,1.3,0.3c0.2,0.1,0.3,0.2,0.5,0.3c0.4,0.2-0.1-0.1,0.1,0.1
				c0.1,0.1,0.7,0.8,0.4,0.4c0.2,0.3,0.3,0.5,0.5,0.8c0.1,0.2,0.2,0.4,0.1,0.1c0.1,0.2,0.1,0.4,0.2,0.5c0.3,1.1,0.3,2.2-0.1,3.5
				c-0.4,1.2-1.3,2.4-2.5,3.4c-1.9,1.6,0.1,5,2.4,4.2c0.5-0.2,1.1-0.4,1.7-0.5c0.1,0,0.3,0,0.4-0.1c-0.1,0-0.5,0-0.1,0
				c0.3,0,0.5,0,0.8,0c0.3,0,0.6,0.1,0.1,0c0.2,0,0.4,0.1,0.6,0.1c0.2,0.1,0.4,0.1,0.6,0.2c-0.7-0.3,0,0,0.2,0.1
				c0.1,0,0.7,0.4,0.3,0.2c-0.3-0.2,0.2,0.2,0.3,0.3c0.2,0.1,0.3,0.3,0.4,0.5c0.1,0.1,0.1,0.1,0.2,0.2c0.4,0.4-0.3-0.5,0,0
				c0.2,0.4,0.5,0.7,0.7,1.1c0,0.1,0.3,0.7,0.1,0.3c-0.1-0.3,0.1,0.4,0.2,0.5c0.1,0.4,0.3,0.9,0.4,1.3c0,0.2,0.1,0.4,0.1,0.7
				c0.1,0.3,0-0.5,0,0.3c0,0.4,0,0.8,0,1.2c0,0.2,0,0.4,0,0.6c0,0.5-0.1,0.5,0,0.2c-0.1,0.4-0.1,0.8-0.3,1.2c0,0.2-0.1,0.3-0.2,0.5
				c-0.2,0.6,0.3-0.4-0.1,0.2c-0.1,0.2-0.6,0.9-0.4,0.6c0.3-0.4-0.1,0.1-0.2,0.2c-0.4,0.5,0.2-0.3,0,0c-0.1,0.1-0.7,0.4-0.2,0.2
				c0.5-0.2-0.2,0.1-0.3,0.1c-0.3-0.1,0.2,0,0.3,0c-0.1,0-0.3,0-0.4,0c-0.4,0-0.5-0.1,0,0c-0.2-0.1-0.5-0.1-0.7-0.2
				c-0.6-0.2,0.2,0.1-0.3-0.1c-0.3-0.2-0.5-0.3-0.8-0.4c-0.1-0.1-0.9-0.6-0.6-0.4c-1.8-1.4-4-0.5-4.3,1.8c0-0.3,0,0.2-0.1,0.3
				c0,0.2-0.1,0.5-0.1,0.7c-0.1,0.4-0.2,0.9-0.3,1.3c-0.3,0.9-0.6,1.7-0.9,2.4c-0.8,1.7-1.8,3.4-3.1,4.8c-1.1,1.2-2.4,2.2-3.7,2.6
				c-1.5,0.5-2.7,0.2-4.3-0.7c-1-0.6-2.2-0.4-3,0.4c-5.3,4.8-15.3,1.6-16.6-5.8c-0.2-1.3-1.9-2.2-3.1-1.7c-0.2,0.1-0.5,0.1-0.6,0.2
				c0.1-0.1,0.5,0,0.1,0c0.6,0.1,0.4,0.1,0.2,0c0.1,0,0.8,0.6,0.5,0.3c0.4,0.4,0.1,0.2,0-0.1c0.2,0.8-0.1-0.4-0.1-0.5
				c-0.3-1.2-0.3-2.4-0.7-3.5c-0.6-1.8-1.9-3.1-3.9-3.2c-0.4,0-0.7,0-1.1,0c0.4,0-0.4-0.1-0.6-0.1c-0.4-0.1-0.8-0.2-1.2-0.3
				c-0.1,0-0.3-0.1-0.4-0.2c0.5,0.2-0.2-0.1-0.3-0.2c-0.3-0.2-0.6-0.3-0.9-0.5c0,0-0.6-0.4-0.3-0.2c0.3,0.2-0.3-0.2-0.2-0.2
				c-0.2-0.2-0.5-0.4-0.7-0.7c-0.1-0.1-0.2-0.3-0.4-0.4c-0.4-0.5,0.3,0.4-0.1-0.2c-0.4-0.6-0.7-1.1-1-1.7c-0.1-0.1-0.2-0.6,0-0.1
				c-0.1-0.1-0.1-0.3-0.1-0.4c-0.1-0.4-0.2-0.7-0.3-1.1c-0.1-0.3-0.1-0.6-0.2-0.9c-0.1-0.7,0,0.5,0-0.2c0-0.1,0-0.3,0-0.4
				c-0.1-0.7-0.1-1.4,0-2.1c0-0.2,0-0.4,0.1-0.5c0-0.4-0.1,0.6,0-0.1c0.1-0.3,0.1-0.6,0.2-0.9c0.1-0.3,0.2-0.6,0.3-0.9
				c0.1-0.2,0.1-0.3,0.2-0.5c0.2-0.6-0.1,0.2,0.1-0.3c0.2-0.3,0.3-0.6,0.5-0.9c0.1-0.1,0.2-0.3,0.3-0.4c0.1-0.1,0.5-0.7,0.1-0.2
				c0.2-0.3,0.4-0.5,0.7-0.7c0.1-0.1,0.2-0.2,0.4-0.3c0.1-0.1,0.6-0.4,0.3-0.2c-0.1,0.1,0.6-0.3,0.8-0.5c0.1-0.1,0.3-0.2,0.5-0.2
				c0.1-0.1-0.3,0.1,0.2-0.1c0.4-0.1,0.7-0.2,1.1-0.3c0.1,0,0.3-0.1,0.4-0.1c-0.6,0.1,0.4,0,0.5,0c1.1,0,2.1-0.7,2.4-1.8
				c0.2-0.7,0.5-1.5,0.7-2.2c0.3-1.1-0.1-2.3-0.1-3.1c-0.1-1.2-0.1-1.8,0.4-3c-0.1,0.4,0.2-0.3,0.2-0.4c0.1-0.2,0.3-0.5,0.4-0.7
				c0.2-0.2,0.4-0.5,0.8-0.9c1.4-1.4,3.2-2.3,5.2-2.9c2.1-0.6,4.3-0.7,6.3-0.2C286.7,178.2,288.1,173.3,284.9,172.6L284.9,172.6z"/>
		</g>
	</g>
	<g>
		<path class="st12" d="M274,189.3c-2,4.5-1.7,11.7-1.8,15.5c0.1,1.2,0.9,2.6,2,3.1c0.9,0.4,1.7,0.5,2.8,0.5c2.4,0,4.6-1.3,5.7-3.5
			c0.6-1.2,0.9-2.5,1.3-3.6c0.4-1.7,1-4.2,1.2-6.8C281.7,192.1,278,190,274,189.3z"/>
		<path class="st13" d="M282.2,214.2c-0.6,0.1-1,0.6-0.9,1.3c0.1,0.7,0.5,1.6,1.1,2.4c1.5,1.9,3.7,2.2,4.9,2.2
			c0.4,0,0.9-0.2,1.1-0.5c1.9-2.4,4.6-4.3,7.7-5.8c0.5-0.2,0.3-0.9-0.3-0.9C291.3,213.3,286.8,213.8,282.2,214.2z"/>
		<path class="st11" d="M281.4,198.7c0.3,2.5-3,3.7-3.6,0.9c-0.4-1.3,0.6-2.9,1.9-3C280.6,197,281.6,197.6,281.4,198.7z"/>
	</g>
	<g>
		<path class="st12" d="M301.1,190.3c2,4.5,1.7,11.7,1.8,15.5c-0.1,1.2-0.9,2.6-2,3.1c-1.1,0.6-2.3,0.7-3.4,0.3
			c-0.5-0.2-1-0.2-1.6-0.3c-2.7-0.5-4-4.2-4.7-6.6c-0.4-1.7-1-4.2-1.2-6.8C293.4,193.1,297.1,191,301.1,190.3z"/>
		<path class="st11" d="M293.6,199.6c-0.3,2.5,3,3.7,3.6,0.9c0.4-1.3-0.6-2.9-1.9-3C294.5,198,293.5,198.6,293.6,199.6z"/>
	</g>
</g>
<g>
	<g>
		<path class="st11" d="M434.6,130.8c-7.7-1.8-18.8,3.4-16.1,12.4c0,0-0.9,2.7-0.9,2.7c-11.9,0.4-12.4,21.5,1.2,22.2
			c3.7-0.5,0.7,8.6,5.4,6.8c1.4,9.2,14.2,13,20.7,6.9c8.1,5.1,15.4-6.2,16.3-13.6c11.4,9,11.5-18.4-1.9-13.2
			c6.4-5.1,3.9-15.9-5.2-13.3c6.6-16.1-22.5-19-20.8-3.8"/>
		<g>
			<path d="M435.3,128.4c-9.4-2.1-22.3,4.3-19.2,15.5c0-0.4,0-0.9,0-1.3c-0.3,0.9-0.6,1.8-0.9,2.7c0.8-0.6,1.6-1.2,2.4-1.8
				c-7.7,0.3-12.2,7.7-11.4,15c0.4,3.5,1.9,7,4.7,9.3c1.5,1.2,3.3,2.1,5.2,2.6c1,0.2,2,0.4,3,0.3c0.3,0-0.6-0.2-0.2,0
				c0,0-0.9-0.6-0.5-0.3c-0.4-0.3-0.3-0.3-0.1-0.1c0,0-0.1-0.5,0,0.1c0.4,1.6,0.4,3.4,1.2,4.9c1,2.1,3.3,2.9,5.5,2.1
				c-1-0.6-2.1-1.2-3.1-1.7c1.9,11.1,16.9,15.2,24.9,8c-1,0.1-2,0.3-3,0.4c10.4,6.3,18.9-6.8,20.1-15.7c-1.4,0.6-2.8,1.2-4.3,1.8
				c2.2,1.7,4.9,3.2,7.7,2.3c2.4-0.7,3.8-2.9,4.5-5.2c1.2-4.5,0.1-10.3-3.7-13.3c-2.7-2.2-6.1-2.4-9.3-1.2c0.8,1.4,1.6,2.8,2.4,4.2
				c3.4-2.8,5.3-7.9,3.8-12.2c-1.7-4.9-6.6-6.6-11.4-5.3c1,1,2.1,2.1,3.1,3.1c1.3-3.2,1.5-6.7,0-9.8c-1.1-2.5-3.3-4.4-5.8-5.5
				c-5.2-2.4-12.1-2.2-16.6,1.7c-2.6,2.3-3.7,5.8-3.4,9.2c0.1,1.3,1.1,2.5,2.5,2.5c1.2,0,2.6-1.1,2.5-2.5c-0.1-0.7-0.1-1.3,0-1.9
				c0-0.7-0.1,0.1,0-0.3c0.1-0.3,0.1-0.7,0.2-1c0-0.2,0.4-0.9,0.1-0.3c0.1-0.2,0.2-0.4,0.3-0.6c0.1-0.2,0.3-0.4,0.4-0.7
				c0.2-0.3-0.4,0.4,0,0c0.1-0.1,0.2-0.2,0.3-0.3c0.2-0.2,0.4-0.4,0.6-0.5c0.5-0.5-0.2,0.1,0.2-0.1c0.5-0.3,1-0.6,1.5-0.9
				c0.3-0.2-0.4,0.1,0.2-0.1c0.3-0.1,0.5-0.2,0.8-0.3c0.6-0.2,1.1-0.3,1.7-0.4c-0.7,0.1,0.1,0,0.3,0c0.3,0,0.6,0,0.9,0
				c0.6,0,1.1,0,1.7,0.1c0.7,0.1-0.2-0.1,0.4,0c0.3,0.1,0.6,0.1,0.8,0.2c0.6,0.1,1.1,0.3,1.7,0.5c0.1,0,0.2,0.1,0.3,0.1
				c0.4,0.1-0.5-0.3,0,0c0.2,0.1,0.4,0.2,0.7,0.3c0.5,0.3,1,0.6,1.4,0.9c0.3,0.2-0.4-0.4,0,0c0.1,0.1,0.2,0.2,0.3,0.2
				c0.2,0.2,0.3,0.3,0.5,0.5c0.1,0.1,0.7,0.9,0.3,0.3c0.2,0.2,0.3,0.5,0.5,0.7c0.1,0.3,0.3,0.5,0.4,0.8c-0.3-0.6,0.1,0.2,0.1,0.4
				c0.1,0.3,0.1,0.6,0.2,0.9c-0.1-0.7,0,0.3,0,0.5c0,0.3,0,0.7,0,1c0,0-0.1,0.7,0,0.3c0-0.4,0,0.2-0.1,0.3c-0.2,0.9-0.4,1.7-0.8,2.5
				c-0.7,1.8,1.4,3.5,3.1,3.1c1-0.3,1.4-0.3,2.4-0.3c0.4,0,1,0.2,1.3,0.3c0.2,0.1,0.3,0.2,0.5,0.3c0.4,0.2-0.1-0.1,0.1,0.1
				c0.1,0.1,0.7,0.8,0.4,0.4c0.2,0.3,0.3,0.5,0.5,0.8c0.1,0.2,0.2,0.4,0.1,0.1c0.1,0.2,0.1,0.4,0.2,0.5c0.3,1.1,0.3,2.2-0.1,3.5
				c-0.4,1.2-1.3,2.4-2.5,3.4c-1.9,1.6,0.1,5,2.4,4.2c0.5-0.2,1.1-0.4,1.7-0.5c0.1,0,0.3,0,0.4-0.1c-0.1,0-0.5,0-0.1,0
				c0.3,0,0.5,0,0.8,0c0.3,0,0.6,0.1,0.1,0c0.2,0,0.4,0.1,0.6,0.1c0.2,0.1,0.4,0.1,0.6,0.2c-0.7-0.3,0,0,0.2,0.1
				c0.1,0,0.7,0.4,0.3,0.2c-0.3-0.2,0.2,0.2,0.3,0.3c0.2,0.1,0.3,0.3,0.4,0.5c0.1,0.1,0.1,0.1,0.2,0.2c0.4,0.4-0.3-0.5,0,0
				c0.2,0.4,0.5,0.7,0.7,1.1c0,0.1,0.3,0.7,0.1,0.3c-0.1-0.3,0.1,0.4,0.2,0.5c0.1,0.4,0.3,0.9,0.4,1.3c0,0.2,0.1,0.4,0.1,0.7
				c0.1,0.3,0-0.5,0,0.3c0,0.4,0,0.8,0,1.2c0,0.2,0,0.4,0,0.6c0,0.5-0.1,0.5,0,0.2c-0.1,0.4-0.1,0.8-0.3,1.2c0,0.2-0.1,0.3-0.2,0.5
				c-0.2,0.6,0.3-0.4-0.1,0.2c-0.1,0.2-0.6,0.9-0.4,0.6c0.3-0.4-0.1,0.1-0.2,0.2c-0.4,0.5,0.2-0.3,0,0c-0.1,0.1-0.7,0.4-0.2,0.2
				c0.5-0.2-0.2,0.1-0.3,0.1c-0.3-0.1,0.2,0,0.3,0c-0.1,0-0.3,0-0.4,0c-0.4,0-0.5-0.1,0,0c-0.2-0.1-0.5-0.1-0.7-0.2
				c-0.6-0.2,0.2,0.1-0.3-0.1c-0.3-0.2-0.5-0.3-0.8-0.4c-0.1-0.1-0.9-0.6-0.6-0.4c-1.8-1.4-4-0.5-4.3,1.8c0-0.3,0,0.2-0.1,0.3
				c0,0.2-0.1,0.5-0.1,0.7c-0.1,0.4-0.2,0.9-0.3,1.3c-0.3,0.9-0.6,1.7-0.9,2.4c-0.8,1.7-1.8,3.4-3.1,4.8c-1.1,1.2-2.4,2.2-3.7,2.6
				c-1.5,0.5-2.7,0.2-4.3-0.7c-1-0.6-2.2-0.4-3,0.4c-5.3,4.8-15.3,1.6-16.6-5.8c-0.2-1.3-1.9-2.2-3.1-1.7c-0.2,0.1-0.5,0.1-0.6,0.2
				c0.1-0.1,0.5,0,0.1,0c0.6,0.1,0.4,0.1,0.2,0c0.1,0,0.8,0.6,0.5,0.3c0.4,0.4,0.1,0.2,0-0.1c0.2,0.8-0.1-0.4-0.1-0.5
				c-0.3-1.2-0.3-2.4-0.7-3.5c-0.6-1.8-1.9-3.1-3.9-3.2c-0.4,0-0.7,0-1.1,0c0.4,0-0.4-0.1-0.6-0.1c-0.4-0.1-0.8-0.2-1.2-0.3
				c-0.1,0-0.3-0.1-0.4-0.2c0.5,0.2-0.2-0.1-0.3-0.2c-0.3-0.2-0.6-0.3-0.9-0.5c0,0-0.6-0.4-0.3-0.2c0.3,0.2-0.3-0.2-0.2-0.2
				c-0.2-0.2-0.5-0.4-0.7-0.7c-0.1-0.1-0.2-0.3-0.4-0.4c-0.4-0.5,0.3,0.4-0.1-0.2c-0.4-0.6-0.7-1.1-1-1.7c-0.1-0.1-0.2-0.6,0-0.1
				c-0.1-0.1-0.1-0.3-0.1-0.4c-0.1-0.4-0.2-0.7-0.3-1.1c-0.1-0.3-0.1-0.6-0.2-0.9c-0.1-0.7,0,0.5,0-0.2c0-0.1,0-0.3,0-0.4
				c-0.1-0.7-0.1-1.4,0-2.1c0-0.2,0-0.4,0.1-0.5c0-0.4-0.1,0.6,0-0.1c0.1-0.3,0.1-0.6,0.2-0.9c0.1-0.3,0.2-0.6,0.3-0.9
				c0.1-0.2,0.1-0.3,0.2-0.5c0.2-0.6-0.1,0.2,0.1-0.3c0.2-0.3,0.3-0.6,0.5-0.9c0.1-0.1,0.2-0.3,0.3-0.4c0.1-0.1,0.5-0.7,0.1-0.2
				c0.2-0.3,0.4-0.5,0.7-0.7c0.1-0.1,0.2-0.2,0.4-0.3c0.1-0.1,0.6-0.4,0.3-0.2c-0.1,0.1,0.6-0.3,0.8-0.5c0.1-0.1,0.3-0.2,0.5-0.2
				c0.1-0.1-0.3,0.1,0.2-0.1c0.4-0.1,0.7-0.2,1.1-0.3c0.1,0,0.3-0.1,0.4-0.1c-0.6,0.1,0.4,0,0.5,0c1.1,0,2.1-0.7,2.4-1.8
				c0.2-0.7,0.5-1.5,0.7-2.2c0.3-1.1-0.1-2.3-0.1-3.1c-0.1-1.2-0.1-1.8,0.4-3c-0.1,0.4,0.2-0.3,0.2-0.4c0.1-0.2,0.3-0.5,0.4-0.7
				c0.2-0.2,0.4-0.5,0.8-0.9c1.4-1.4,3.2-2.3,5.2-2.9c2.1-0.6,4.3-0.7,6.3-0.2C437.1,134,438.5,129.1,435.3,128.4L435.3,128.4z"/>
		</g>
	</g>
	<g>
		<path class="st12" d="M424.4,145.1c-2,4.5-1.7,11.7-1.8,15.5c0.1,1.2,0.9,2.6,2,3.1c0.9,0.4,1.7,0.5,2.8,0.5
			c2.4,0,4.6-1.3,5.7-3.5c0.6-1.2,0.9-2.5,1.3-3.6c0.4-1.7,1-4.2,1.2-6.8C432,147.9,428.4,145.8,424.4,145.1z"/>
		<path class="st13" d="M432.6,170c-0.6,0.1-1,0.6-0.9,1.3c0.1,0.7,0.5,1.6,1.1,2.4c1.5,1.9,3.7,2.2,4.9,2.2c0.4,0,0.9-0.2,1.1-0.5
			c1.9-2.4,4.6-4.3,7.7-5.8c0.5-0.2,0.3-0.9-0.3-0.9C441.7,169.1,437.2,169.6,432.6,170z"/>
		<path class="st11" d="M431.8,154.5c0.3,2.5-3,3.7-3.6,0.9c-0.4-1.3,0.6-2.9,1.9-3C431,152.8,432,153.4,431.8,154.5z"/>
	</g>
	<g>
		<path class="st12" d="M451.5,146.1c2,4.5,1.7,11.7,1.8,15.5c-0.1,1.2-0.9,2.6-2,3.1c-1.1,0.6-2.3,0.7-3.4,0.3
			c-0.5-0.2-1-0.2-1.6-0.3c-2.7-0.5-4-4.2-4.7-6.6c-0.4-1.7-1-4.2-1.2-6.8C443.8,148.9,447.5,146.8,451.5,146.1z"/>
		<path class="st11" d="M444,155.4c-0.3,2.5,3,3.7,3.6,0.9c0.4-1.3-0.6-2.9-1.9-3C444.9,153.8,443.8,154.4,444,155.4z"/>
	</g>
</g>
<g>
	<g>
		<path class="st11" d="M572,74.2c-7.7-1.8-18.8,3.4-16.1,12.4c0,0-0.9,2.7-0.9,2.7c-11.9,0.4-12.4,21.5,1.2,22.2
			c3.7-0.5,0.7,8.6,5.4,6.8c1.4,9.2,14.2,13,20.7,6.9c8.1,5.1,15.4-6.2,16.3-13.6c11.4,9,11.5-18.4-1.9-13.2
			c6.4-5.1,3.9-15.9-5.2-13.3c6.6-16.1-22.5-19-20.8-3.8"/>
		<g>
			<path d="M572.7,71.8c-9.4-2.1-22.3,4.3-19.2,15.5c0-0.4,0-0.9,0-1.3c-0.3,0.9-0.6,1.8-0.9,2.7c0.8-0.6,1.6-1.2,2.4-1.8
				c-7.7,0.3-12.2,7.7-11.4,15c0.4,3.5,1.9,7,4.7,9.3c1.5,1.2,3.3,2.1,5.2,2.6c1,0.2,2,0.4,3,0.3c0.3,0-0.6-0.2-0.2,0
				c0,0-0.9-0.6-0.5-0.3c-0.4-0.3-0.3-0.3-0.1-0.1c0,0-0.1-0.5,0,0.1c0.4,1.6,0.4,3.4,1.2,4.9c1,2.1,3.3,2.9,5.5,2.1
				c-1-0.6-2.1-1.2-3.1-1.7c1.9,11.1,16.9,15.2,24.9,8c-1,0.1-2,0.3-3,0.4c10.4,6.3,18.9-6.8,20.1-15.7c-1.4,0.6-2.8,1.2-4.3,1.8
				c2.2,1.7,4.9,3.2,7.7,2.3c2.4-0.7,3.8-2.9,4.5-5.2c1.2-4.5,0.1-10.3-3.7-13.3c-2.7-2.2-6.1-2.4-9.3-1.2c0.8,1.4,1.6,2.8,2.4,4.2
				c3.4-2.8,5.3-7.9,3.8-12.2c-1.7-4.9-6.6-6.6-11.4-5.3c1,1,2.1,2.1,3.1,3.1c1.3-3.2,1.5-6.7,0-9.8c-1.1-2.5-3.3-4.4-5.8-5.5
				c-5.2-2.4-12.1-2.2-16.6,1.7c-2.6,2.3-3.7,5.8-3.4,9.2c0.1,1.3,1.1,2.5,2.5,2.5c1.2,0,2.6-1.1,2.5-2.5c-0.1-0.7-0.1-1.3,0-1.9
				c0-0.7-0.1,0.1,0-0.3c0.1-0.3,0.1-0.7,0.2-1c0-0.2,0.4-0.9,0.1-0.3c0.1-0.2,0.2-0.4,0.3-0.6c0.1-0.2,0.3-0.4,0.4-0.7
				c0.2-0.3-0.4,0.4,0,0c0.1-0.1,0.2-0.2,0.3-0.3c0.2-0.2,0.4-0.4,0.6-0.5c0.5-0.5-0.2,0.1,0.2-0.1c0.5-0.3,1-0.6,1.5-0.9
				c0.3-0.2-0.4,0.1,0.2-0.1c0.3-0.1,0.5-0.2,0.8-0.3c0.6-0.2,1.1-0.3,1.7-0.4c-0.7,0.1,0.1,0,0.3,0c0.3,0,0.6,0,0.9,0
				c0.6,0,1.1,0,1.7,0.1c0.7,0.1-0.2-0.1,0.4,0c0.3,0.1,0.6,0.1,0.8,0.2c0.6,0.1,1.1,0.3,1.7,0.5c0.1,0,0.2,0.1,0.3,0.1
				c0.4,0.1-0.5-0.3,0,0c0.2,0.1,0.4,0.2,0.7,0.3c0.5,0.3,1,0.6,1.4,0.9c0.3,0.2-0.4-0.4,0,0c0.1,0.1,0.2,0.2,0.3,0.2
				c0.2,0.2,0.3,0.3,0.5,0.5c0.1,0.1,0.7,0.9,0.3,0.3c0.2,0.2,0.3,0.5,0.5,0.7c0.1,0.3,0.3,0.5,0.4,0.8c-0.3-0.6,0.1,0.2,0.1,0.4
				c0.1,0.3,0.1,0.6,0.2,0.9c-0.1-0.7,0,0.3,0,0.5c0,0.3,0,0.7,0,1c0,0-0.1,0.7,0,0.3c0-0.4,0,0.2-0.1,0.3c-0.2,0.9-0.4,1.7-0.8,2.5
				c-0.7,1.8,1.4,3.5,3.1,3.1c1-0.3,1.4-0.3,2.4-0.3c0.4,0,1,0.2,1.3,0.3c0.2,0.1,0.3,0.2,0.5,0.3c0.4,0.2-0.1-0.1,0.1,0.1
				c0.1,0.1,0.7,0.8,0.4,0.4c0.2,0.3,0.3,0.5,0.5,0.8c0.1,0.2,0.2,0.4,0.1,0.1c0.1,0.2,0.1,0.4,0.2,0.5c0.3,1.1,0.3,2.2-0.1,3.5
				c-0.4,1.2-1.3,2.4-2.5,3.4c-1.9,1.6,0.1,5,2.4,4.2c0.5-0.2,1.1-0.4,1.7-0.5c0.1,0,0.3,0,0.4-0.1c-0.1,0-0.5,0-0.1,0
				c0.3,0,0.5,0,0.8,0c0.3,0,0.6,0.1,0.1,0c0.2,0,0.4,0.1,0.6,0.1c0.2,0.1,0.4,0.1,0.6,0.2c-0.7-0.3,0,0,0.2,0.1
				c0.1,0,0.7,0.4,0.3,0.2c-0.3-0.2,0.2,0.2,0.3,0.3c0.2,0.1,0.3,0.3,0.4,0.5c0.1,0.1,0.1,0.1,0.2,0.2c0.4,0.4-0.3-0.5,0,0
				c0.2,0.4,0.5,0.7,0.7,1.1c0,0.1,0.3,0.7,0.1,0.3c-0.1-0.3,0.1,0.4,0.2,0.5c0.1,0.4,0.3,0.9,0.4,1.3c0,0.2,0.1,0.4,0.1,0.7
				c0.1,0.3,0-0.5,0,0.3c0,0.4,0,0.8,0,1.2c0,0.2,0,0.4,0,0.6c0,0.5-0.1,0.5,0,0.2c-0.1,0.4-0.1,0.8-0.3,1.2c0,0.2-0.1,0.3-0.2,0.5
				c-0.2,0.6,0.3-0.4-0.1,0.2c-0.1,0.2-0.6,0.9-0.4,0.6c0.3-0.4-0.1,0.1-0.2,0.2c-0.4,0.5,0.2-0.3,0,0c-0.1,0.1-0.7,0.4-0.2,0.2
				c0.5-0.2-0.2,0.1-0.3,0.1c-0.3-0.1,0.2,0,0.3,0c-0.1,0-0.3,0-0.4,0c-0.4,0-0.5-0.1,0,0c-0.2-0.1-0.5-0.1-0.7-0.2
				c-0.6-0.2,0.2,0.1-0.3-0.1c-0.3-0.2-0.5-0.3-0.8-0.4c-0.1-0.1-0.9-0.6-0.6-0.4c-1.8-1.4-4-0.5-4.3,1.8c0-0.3,0,0.2-0.1,0.3
				c0,0.2-0.1,0.5-0.1,0.7c-0.1,0.4-0.2,0.9-0.3,1.3c-0.3,0.9-0.6,1.7-0.9,2.4c-0.8,1.7-1.8,3.4-3.1,4.8c-1.1,1.2-2.4,2.2-3.7,2.6
				c-1.5,0.5-2.7,0.2-4.3-0.7c-1-0.6-2.2-0.4-3,0.4c-5.3,4.8-15.3,1.6-16.6-5.8c-0.2-1.3-1.9-2.2-3.1-1.7c-0.2,0.1-0.5,0.1-0.6,0.2
				c0.1-0.1,0.5,0,0.1,0c0.6,0.1,0.4,0.1,0.2,0c0.1,0,0.8,0.6,0.5,0.3c0.4,0.4,0.1,0.2,0-0.1c0.2,0.8-0.1-0.4-0.1-0.5
				c-0.3-1.2-0.3-2.4-0.7-3.5c-0.6-1.8-1.9-3.1-3.9-3.2c-0.4,0-0.7,0-1.1,0c0.4,0-0.4-0.1-0.6-0.1c-0.4-0.1-0.8-0.2-1.2-0.3
				c-0.1,0-0.3-0.1-0.4-0.2c0.5,0.2-0.2-0.1-0.3-0.2c-0.3-0.2-0.6-0.3-0.9-0.5c0,0-0.6-0.4-0.3-0.2c0.3,0.2-0.3-0.2-0.2-0.2
				c-0.2-0.2-0.5-0.4-0.7-0.7c-0.1-0.1-0.2-0.3-0.4-0.4c-0.4-0.5,0.3,0.4-0.1-0.2c-0.4-0.6-0.7-1.1-1-1.7c-0.1-0.1-0.2-0.6,0-0.1
				c-0.1-0.1-0.1-0.3-0.1-0.4c-0.1-0.4-0.2-0.7-0.3-1.1c-0.1-0.3-0.1-0.6-0.2-0.9c-0.1-0.7,0,0.5,0-0.2c0-0.1,0-0.3,0-0.4
				c-0.1-0.7-0.1-1.4,0-2.1c0-0.2,0-0.4,0.1-0.5c0-0.4-0.1,0.6,0-0.1c0.1-0.3,0.1-0.6,0.2-0.9c0.1-0.3,0.2-0.6,0.3-0.9
				c0.1-0.2,0.1-0.3,0.2-0.5c0.2-0.6-0.1,0.2,0.1-0.3c0.2-0.3,0.3-0.6,0.5-0.9c0.1-0.1,0.2-0.3,0.3-0.4c0.1-0.1,0.5-0.7,0.1-0.2
				c0.2-0.3,0.4-0.5,0.7-0.7c0.1-0.1,0.2-0.2,0.4-0.3c0.1-0.1,0.6-0.4,0.3-0.2c-0.1,0.1,0.6-0.3,0.8-0.5c0.1-0.1,0.3-0.2,0.5-0.2
				c0.1-0.1-0.3,0.1,0.2-0.1c0.4-0.1,0.7-0.2,1.1-0.3c0.1,0,0.3-0.1,0.4-0.1c-0.6,0.1,0.4,0,0.5,0c1.1,0,2.1-0.7,2.4-1.8
				c0.2-0.7,0.5-1.5,0.7-2.2c0.3-1.1-0.1-2.3-0.1-3.1c-0.1-1.2-0.1-1.8,0.4-3c-0.1,0.4,0.2-0.3,0.2-0.4c0.1-0.2,0.3-0.5,0.4-0.7
				c0.2-0.2,0.4-0.5,0.8-0.9c1.4-1.4,3.2-2.3,5.2-2.9c2.1-0.6,4.3-0.7,6.3-0.2C574.5,77.3,575.9,72.5,572.7,71.8L572.7,71.8z"/>
		</g>
	</g>
	<g>
		<path class="st12" d="M561.8,88.5c-1.5,4.7-3.8,16,0.2,18.6c8.4,3.1,10.3-6.8,10.9-13.4C569.4,91.3,565.8,89.2,561.8,88.5z"/>
		<path class="st13" d="M570,113.4c-1.8,0.5-0.6,2.5,0.2,3.7c1.5,1.9,3.7,2.2,4.9,2.2c2.9-1.7,5-4.9,8.8-6.4
			C585.1,110.7,571.9,113.7,570,113.4z"/>
		<path class="st11" d="M569.2,97.8c-0.8,6.2-6.9-0.6-1.7-2C568.4,96.2,569.4,96.8,569.2,97.8z"/>
	</g>
	<g>
		<path class="st12" d="M588.9,89.5c1.5,4.7,3.8,16-0.2,18.6c-8.3,2.8-10.3-6.8-10.9-13.4C581.2,92.2,584.9,90.2,588.9,89.5z"/>
		<path class="st11" d="M581.4,98.8c0.8,6.2,6.9-0.6,1.7-2C582.3,97.2,581.2,97.7,581.4,98.8z"/>
	</g>
</g>
<g>
	<g>
		<path class="st11" d="M1066.2,71.1c-7.7-1.8-18.8,3.4-16.1,12.4c0,0-0.9,2.7-0.9,2.7c-11.9,0.4-12.4,21.5,1.2,22.2
			c3.7-0.5,0.7,8.6,5.4,6.8c1.4,9.2,14.2,13,20.7,6.9c8.1,5.1,15.4-6.2,16.3-13.6c11.1,9.1,11.8-18.2-1.9-13.2
			c6.4-5.3,4-15.8-5.2-13.3c6.4-16.9-22.8-18.3-20.8-3.8"/>
		<g>
			<path d="M1066.8,68.7c-9.4-2.1-22.3,4.3-19.2,15.5c0-0.4,0-0.9,0-1.3c-0.3,0.9-0.6,1.8-0.9,2.7c0.8-0.6,1.6-1.2,2.4-1.8
				c-7.7,0.3-12.2,7.7-11.4,15c0.4,3.5,1.9,7,4.7,9.3c1.5,1.2,3.3,2.1,5.2,2.6c1,0.2,2,0.4,3,0.3c0.3,0-0.6-0.2-0.2,0
				c0,0-0.9-0.6-0.5-0.3c-0.4-0.3-0.3-0.3-0.1-0.1c0,0-0.1-0.5,0,0.1c0.4,1.6,0.4,3.4,1.2,4.9c1,2.1,3.3,2.9,5.5,2.1
				c-1-0.6-2.1-1.2-3.1-1.7c1.9,11.1,16.9,15.2,24.9,8c-1,0.1-2,0.3-3,0.4c10.4,6.3,18.9-6.8,20.1-15.7c-1.4,0.6-2.8,1.2-4.3,1.8
				c2.1,1.7,4.8,3.2,7.6,2.4c2.4-0.7,3.8-2.8,4.5-5.1c1.4-4.4,0.2-10.4-3.5-13.4c-2.7-2.2-6.2-2.4-9.4-1.3c0.8,1.4,1.6,2.8,2.4,4.2
				c3.4-2.9,5.3-7.9,3.8-12.2c-1.7-4.9-6.7-6.5-11.4-5.3c1,1,2.1,2.1,3.1,3.1c1.2-3.2,1.4-6.8-0.1-10c-1.2-2.5-3.4-4.4-5.9-5.5
				c-5.3-2.3-12.2-1.9-16.6,2c-2.5,2.3-3.6,5.7-3.2,9c0.2,1.3,1,2.5,2.5,2.5c1.2,0,2.7-1.2,2.5-2.5c-0.1-0.6-0.1-1.2-0.1-1.8
				c0-0.1,0-0.3,0-0.4c0-0.6-0.1,0.4,0,0c0.1-0.3,0.1-0.6,0.2-1c0.1-0.2,0.3-0.7,0-0.2c0.1-0.2,0.2-0.5,0.3-0.7
				c0.1-0.2,0.3-0.4,0.4-0.6c0.2-0.4,0,0.1-0.1,0.1c0.1-0.1,0.2-0.3,0.3-0.4c0.2-0.2,0.4-0.4,0.6-0.6c0.1-0.1,0.2-0.1,0.3-0.2
				c0,0-0.5,0.3-0.1,0.1c0.5-0.3,1-0.6,1.5-0.9c0.5-0.3-0.1,0,0.2-0.1c0.2-0.1,0.5-0.2,0.8-0.3c0.5-0.2,1.1-0.3,1.7-0.4
				c0.2,0,0.3,0,0.5-0.1c0.4-0.1-0.5,0-0.1,0c0.3,0,0.6-0.1,0.8-0.1c0.6,0,1.2,0,1.9,0c0.2,0,0.5,0,0.7,0.1c-0.7-0.1,0.2,0,0.3,0.1
				c0.6,0.1,1.1,0.3,1.7,0.4c0.3,0.1,0.5,0.2,0.8,0.3c0.4,0.1-0.5-0.3,0,0c0.1,0.1,0.2,0.1,0.3,0.2c0.5,0.3,1,0.6,1.4,0.9
				c0.5,0.3-0.3-0.3,0.2,0.2c0.2,0.2,0.4,0.3,0.6,0.5c0.2,0.2,0.3,0.4,0.5,0.6c-0.4-0.5,0.1,0.2,0.2,0.3c0.2,0.2,0.3,0.5,0.4,0.8
				c0.3,0.5-0.1-0.4,0,0c0.1,0.2,0.1,0.3,0.2,0.5c0.1,0.3,0.1,0.6,0.2,0.9c0,0.2,0.1,0.6,0,0c0,0.2,0,0.4,0,0.6c0,0.3,0,0.7,0,1
				c0,0.1,0,0.3,0,0.4c0,0.6,0.1-0.3,0,0.2c-0.2,0.9-0.4,1.8-0.7,2.6c-0.7,1.9,1.4,3.5,3.1,3.1c0.9-0.2,1.4-0.3,2.3-0.3
				c0.8,0-0.2-0.1,0.2,0c0.2,0,0.4,0.1,0.6,0.1c0.2,0,0.3,0.1,0.5,0.1c-0.3-0.1,0,0,0.1,0.1c0.2,0.1,0.8,0.6,0.5,0.3
				c0.1,0.1,0.6,0.6,0.5,0.5c-0.1-0.1,0.3,0.5,0.4,0.7c0.3,0.6-0.1-0.3,0.1,0.1c0.1,0.2,0.1,0.3,0.2,0.5c0,0.1,0.1,0.3,0.1,0.4
				c0.1,0.5,0-0.2,0,0.1c0,0.3,0,0.7,0,1.1c0,0.2,0,0.3,0,0.5c-0.1,0.7,0.1-0.2,0,0.2c-0.1,0.4-0.2,0.7-0.3,1.1
				c-0.4,1.2-1.3,2.5-2.5,3.6c-1.9,1.6,0.1,5,2.4,4.2c0.6-0.2,1.1-0.3,1.7-0.5c0.4-0.1-0.4,0,0.3,0c0.3,0,0.6,0,0.8,0
				c0.1,0,0.2,0,0.4,0c0.3,0-0.5-0.1-0.2,0c0.2,0.1,0.4,0.1,0.6,0.2c0.3,0.1,0.5,0.2,0.1,0c0.2,0.1,0.5,0.2,0.7,0.4
				c0.2,0.1,0.7,0.5,0.1,0.1c0.2,0.1,0.3,0.3,0.5,0.4c0.1,0.1,0.2,0.3,0.4,0.4c0.4,0.3-0.2-0.3,0.1,0.2c0.2,0.4,0.4,0.7,0.7,1.1
				c0.1,0.1,0.3,0.8,0.1,0.2c0.1,0.2,0.2,0.5,0.3,0.7c0.1,0.4,0.2,0.9,0.3,1.3c0,0.2,0.1,0.4,0.1,0.6c-0.1-0.8,0,0.1,0,0.3
				c0,0.4,0,0.9,0,1.3c0,0.2,0,0.4,0,0.6c0,0.7,0.1-0.1,0,0.2c-0.1,0.4-0.2,0.8-0.3,1.2c-0.1,0.2-0.1,0.4-0.2,0.5
				c-0.1,0.3,0.3-0.5-0.1,0.1c-0.1,0.2-0.2,0.3-0.3,0.5c-0.3,0.5-0.1,0.1,0,0c-0.1,0-0.2,0.3-0.3,0.3c0,0-0.2,0.1-0.2,0.2
				c0.4-0.6,0.4-0.2,0.1-0.1c-0.1,0-0.7,0.3-0.2,0.1c0.5-0.2-0.2,0.1-0.3,0c-0.3,0,0.7,0,0,0c-0.7,0,0.2,0.1-0.1,0
				c-0.2-0.1-0.5-0.1-0.7-0.2c-0.1,0-0.4-0.2,0.1,0.1c-0.1-0.1-0.3-0.1-0.4-0.2c-0.3-0.1-0.5-0.3-0.7-0.4c-0.1-0.1-0.2-0.2-0.3-0.2
				c-0.4-0.3,0.3,0.2-0.2-0.2c-1.8-1.5-4-0.4-4.3,1.8c0-0.3,0,0.2-0.1,0.3c0,0.2-0.1,0.5-0.1,0.7c-0.1,0.4-0.2,0.9-0.3,1.3
				c-0.3,0.9-0.6,1.7-0.9,2.4c-0.8,1.7-1.8,3.4-3.1,4.8c-1.1,1.2-2.4,2.2-3.7,2.6c-1.5,0.5-2.7,0.2-4.3-0.7c-1-0.6-2.2-0.4-3,0.4
				c-5.3,4.8-15.3,1.6-16.6-5.8c-0.2-1.3-1.9-2.2-3.1-1.7c-0.2,0.1-0.5,0.1-0.6,0.2c0.1-0.1,0.5,0,0.1,0c0.6,0.1,0.4,0.1,0.2,0
				c0.1,0,0.8,0.6,0.5,0.3c0.4,0.4,0.1,0.2,0-0.1c0.2,0.8-0.1-0.4-0.1-0.5c-0.3-1.2-0.3-2.4-0.7-3.5c-0.6-1.8-1.9-3.1-3.9-3.2
				c-0.4,0-0.7,0-1.1,0c0.4,0-0.4-0.1-0.6-0.1c-0.4-0.1-0.8-0.2-1.2-0.3c-0.1,0-0.3-0.1-0.4-0.2c0.5,0.2-0.2-0.1-0.3-0.2
				c-0.3-0.2-0.6-0.3-0.9-0.5c0,0-0.6-0.4-0.3-0.2c0.3,0.2-0.3-0.2-0.2-0.2c-0.2-0.2-0.5-0.4-0.7-0.7c-0.1-0.1-0.2-0.3-0.4-0.4
				c-0.4-0.5,0.3,0.4-0.1-0.2c-0.4-0.6-0.7-1.1-1-1.7c-0.1-0.1-0.2-0.6,0-0.1c-0.1-0.1-0.1-0.3-0.1-0.4c-0.1-0.4-0.2-0.7-0.3-1.1
				c-0.1-0.3-0.1-0.6-0.2-0.9c-0.1-0.7,0,0.5,0-0.2c0-0.1,0-0.3,0-0.4c-0.1-0.7-0.1-1.4,0-2.1c0-0.2,0-0.4,0.1-0.5
				c0-0.4-0.1,0.6,0-0.1c0.1-0.3,0.1-0.6,0.2-0.9c0.1-0.3,0.2-0.6,0.3-0.9c0.1-0.2,0.1-0.3,0.2-0.5c0.2-0.6-0.1,0.2,0.1-0.3
				c0.2-0.3,0.3-0.6,0.5-0.9c0.1-0.1,0.2-0.3,0.3-0.4c0.1-0.1,0.5-0.7,0.1-0.2c0.2-0.3,0.4-0.5,0.7-0.7c0.1-0.1,0.2-0.2,0.4-0.3
				c0.1-0.1,0.6-0.4,0.3-0.2c-0.1,0.1,0.6-0.3,0.8-0.5c0.1-0.1,0.3-0.2,0.5-0.2c0.1-0.1-0.3,0.1,0.2-0.1c0.4-0.1,0.7-0.2,1.1-0.3
				c0.1,0,0.3-0.1,0.4-0.1c-0.6,0.1,0.4,0,0.5,0c1.1,0,2.1-0.7,2.4-1.8c0.2-0.7,0.5-1.5,0.7-2.2c0.3-1.1-0.1-2.3-0.1-3.1
				c-0.1-1.2-0.1-1.8,0.4-3c-0.1,0.4,0.2-0.3,0.2-0.4c0.1-0.2,0.3-0.5,0.4-0.7c0.2-0.2,0.4-0.5,0.8-0.9c1.4-1.4,3.2-2.3,5.2-2.9
				c2.1-0.6,4.3-0.7,6.3-0.2C1068.6,74.2,1070,69.4,1066.8,68.7L1066.8,68.7z"/>
		</g>
	</g>
	<g>
		<path class="st12" d="M1055.9,85.4c-2,4.5-1.7,11.7-1.8,15.5c0.1,1.2,0.9,2.6,2,3.1c0.9,0.4,1.7,0.5,2.8,0.5
			c2.4,0,4.6-1.3,5.7-3.5c0.6-1.2,0.9-2.5,1.3-3.6c0.4-1.7,1-4.2,1.2-6.8C1063.6,88.2,1059.9,86.1,1055.9,85.4z"/>
		<path class="st13" d="M1064.2,110.3c-0.6,0.1-1,0.6-0.9,1.3c0.1,0.7,0.5,1.6,1.1,2.4c1.5,1.9,3.7,2.2,4.9,2.2
			c0.4,0,0.9-0.2,1.1-0.5c1.9-2.4,4.6-4.3,7.7-5.8c0.5-0.2,0.3-0.9-0.3-0.9C1073.2,109.4,1068.7,109.8,1064.2,110.3z"/>
		<path class="st11" d="M1063.4,94.8c0.3,2.5-3,3.7-3.6,0.9c-0.4-1.3,0.6-2.9,1.9-3C1062.5,93.1,1063.5,93.7,1063.4,94.8z"/>
	</g>
	<g>
		<path class="st12" d="M1083,86.4c2,4.5,1.7,11.7,1.8,15.5c-0.1,1.2-0.9,2.6-2,3.1c-1.1,0.6-2.3,0.7-3.4,0.3
			c-0.5-0.2-1-0.2-1.6-0.3c-2.7-0.5-4-4.2-4.7-6.6c-0.4-1.7-1-4.2-1.2-6.8C1075.3,89.2,1079,87.1,1083,86.4z"/>
		<path class="st11" d="M1075.5,95.7c-0.3,2.5,3,3.7,3.6,0.9c0.4-1.3-0.6-2.9-1.9-3C1076.4,94.1,1075.4,94.7,1075.5,95.7z"/>
	</g>
</g>
<g>
	<g>
		<path class="st11" d="M1197.6,5.3c-7.7-1.8-18.8,3.4-16.1,12.4c0,0-0.9,2.7-0.9,2.7c-11.9,0.4-12.4,21.5,1.2,22.2
			c3.7-0.5,0.7,8.6,5.4,6.8c1.4,9.2,14.2,13,20.7,6.9c8.1,5.1,15.4-6.2,16.3-13.6c11.1,9.1,11.8-18.2-1.9-13.2
			c6.4-5.3,4-15.8-5.2-13.3c6.4-16.9-22.8-18.3-20.8-3.8"/>
		<g>
			<path d="M1198.3,2.9c-9.4-2.1-22.3,4.3-19.2,15.5c0-0.4,0-0.9,0-1.3c-0.3,0.9-0.6,1.8-0.9,2.7c0.8-0.6,1.6-1.2,2.4-1.8
				c-7.7,0.3-12.2,7.7-11.4,15c0.4,3.5,1.9,7,4.7,9.3c1.5,1.2,3.3,2.1,5.2,2.6c1,0.2,2,0.4,3,0.3c0.3,0-0.6-0.2-0.2,0
				c0,0-0.9-0.6-0.5-0.3c-0.4-0.3-0.3-0.3-0.1-0.1c0,0-0.1-0.5,0,0.1c0.4,1.6,0.4,3.4,1.2,4.9c1,2.1,3.3,2.9,5.5,2.1
				c-1-0.6-2.1-1.2-3.1-1.7c1.9,11.1,16.9,15.2,24.9,8c-1,0.1-2,0.3-3,0.4c10.4,6.3,18.9-6.8,20.1-15.7c-1.4,0.6-2.8,1.2-4.3,1.8
				c2.1,1.7,4.8,3.2,7.6,2.4c2.4-0.7,3.8-2.8,4.5-5.1c1.4-4.4,0.2-10.4-3.5-13.4c-2.7-2.2-6.2-2.4-9.4-1.3c0.8,1.4,1.6,2.8,2.4,4.2
				c3.4-2.9,5.3-7.9,3.8-12.2c-1.7-4.9-6.7-6.5-11.4-5.3c1,1,2.1,2.1,3.1,3.1c1.2-3.2,1.4-6.8-0.1-10c-1.2-2.5-3.4-4.4-5.9-5.5
				c-5.3-2.3-12.2-1.9-16.6,2c-2.5,2.3-3.6,5.7-3.2,9c0.2,1.3,1,2.5,2.5,2.5c1.2,0,2.7-1.2,2.5-2.5c-0.1-0.6-0.1-1.2-0.1-1.8
				c0-0.1,0-0.3,0-0.4c0-0.6-0.1,0.4,0,0c0.1-0.3,0.1-0.6,0.2-1c0.1-0.2,0.3-0.7,0-0.2c0.1-0.2,0.2-0.5,0.3-0.7
				c0.1-0.2,0.3-0.4,0.4-0.6c0.2-0.4,0,0.1-0.1,0.1c0.1-0.1,0.2-0.3,0.3-0.4c0.2-0.2,0.4-0.4,0.6-0.6c0.1-0.1,0.2-0.1,0.3-0.2
				c0,0-0.5,0.3-0.1,0.1c0.5-0.3,1-0.6,1.5-0.9c0.5-0.3-0.1,0,0.2-0.1c0.2-0.1,0.5-0.2,0.8-0.3c0.5-0.2,1.1-0.3,1.7-0.4
				c0.2,0,0.3,0,0.5-0.1c0.4-0.1-0.5,0-0.1,0c0.3,0,0.6-0.1,0.8-0.1c0.6,0,1.2,0,1.9,0c0.2,0,0.5,0,0.7,0.1c-0.7-0.1,0.2,0,0.3,0.1
				c0.6,0.1,1.1,0.3,1.7,0.4c0.3,0.1,0.5,0.2,0.8,0.3c0.4,0.1-0.5-0.3,0,0c0.1,0.1,0.2,0.1,0.3,0.2c0.5,0.3,1,0.6,1.4,0.9
				c0.5,0.3-0.3-0.3,0.2,0.2c0.2,0.2,0.4,0.3,0.6,0.5c0.2,0.2,0.3,0.4,0.5,0.6c-0.4-0.5,0.1,0.2,0.2,0.3c0.2,0.2,0.3,0.5,0.4,0.8
				c0.3,0.5-0.1-0.4,0,0c0.1,0.2,0.1,0.3,0.2,0.5c0.1,0.3,0.1,0.6,0.2,0.9c0,0.2,0.1,0.6,0,0c0,0.2,0,0.4,0,0.6c0,0.3,0,0.7,0,1
				c0,0.1,0,0.3,0,0.4c0,0.6,0.1-0.3,0,0.2c-0.2,0.9-0.4,1.8-0.7,2.6c-0.7,1.9,1.4,3.5,3.1,3.1c0.9-0.2,1.4-0.3,2.3-0.3
				c0.8,0-0.2-0.1,0.2,0c0.2,0,0.4,0.1,0.6,0.1c0.2,0,0.3,0.1,0.5,0.1c-0.3-0.1,0,0,0.1,0.1c0.2,0.1,0.8,0.6,0.5,0.3
				c0.1,0.1,0.6,0.6,0.5,0.5c-0.1-0.1,0.3,0.5,0.4,0.7c0.3,0.6-0.1-0.3,0.1,0.1c0.1,0.2,0.1,0.3,0.2,0.5c0,0.1,0.1,0.3,0.1,0.4
				c0.1,0.5,0-0.2,0,0.1c0,0.3,0,0.7,0,1.1c0,0.2,0,0.3,0,0.5c-0.1,0.7,0.1-0.2,0,0.2c-0.1,0.4-0.2,0.7-0.3,1.1
				c-0.4,1.2-1.3,2.5-2.5,3.6c-1.9,1.6,0.1,5,2.4,4.2c0.6-0.2,1.1-0.3,1.7-0.5c0.4-0.1-0.4,0,0.3,0c0.3,0,0.6,0,0.8,0
				c0.1,0,0.2,0,0.4,0c0.3,0-0.5-0.1-0.2,0c0.2,0.1,0.4,0.1,0.6,0.2c0.3,0.1,0.5,0.2,0.1,0c0.2,0.1,0.5,0.2,0.7,0.4
				c0.2,0.1,0.7,0.5,0.1,0.1c0.2,0.1,0.3,0.3,0.5,0.4c0.1,0.1,0.2,0.3,0.4,0.4c0.4,0.3-0.2-0.3,0.1,0.2c0.2,0.4,0.4,0.7,0.7,1.1
				c0.1,0.1,0.3,0.8,0.1,0.2c0.1,0.2,0.2,0.5,0.3,0.7c0.1,0.4,0.2,0.9,0.3,1.3c0,0.2,0.1,0.4,0.1,0.6c-0.1-0.8,0,0.1,0,0.3
				c0,0.4,0,0.9,0,1.3c0,0.2,0,0.4,0,0.6c0,0.7,0.1-0.1,0,0.2c-0.1,0.4-0.2,0.8-0.3,1.2c-0.1,0.2-0.1,0.4-0.2,0.5
				c-0.1,0.3,0.3-0.5-0.1,0.1c-0.1,0.2-0.2,0.3-0.3,0.5c-0.3,0.5-0.1,0.1,0,0c-0.1,0-0.2,0.3-0.3,0.3c0,0-0.2,0.1-0.2,0.2
				c0.4-0.6,0.4-0.2,0.1-0.1c-0.1,0-0.7,0.3-0.2,0.1c0.5-0.2-0.2,0.1-0.3,0c-0.3,0,0.7,0,0,0c-0.7,0,0.2,0.1-0.1,0
				c-0.2-0.1-0.5-0.1-0.7-0.2c-0.1,0-0.4-0.2,0.1,0.1c-0.1-0.1-0.3-0.1-0.4-0.2c-0.3-0.1-0.5-0.3-0.7-0.4c-0.1-0.1-0.2-0.2-0.3-0.2
				c-0.4-0.3,0.3,0.2-0.2-0.2c-1.8-1.5-4-0.4-4.3,1.8c0-0.3,0,0.2-0.1,0.3c0,0.2-0.1,0.5-0.1,0.7c-0.1,0.4-0.2,0.9-0.3,1.3
				c-0.3,0.9-0.6,1.7-0.9,2.4c-0.8,1.7-1.8,3.4-3.1,4.8c-1.1,1.2-2.4,2.2-3.7,2.6c-1.5,0.5-2.7,0.2-4.3-0.7c-1-0.6-2.2-0.4-3,0.4
				c-5.3,4.8-15.3,1.6-16.6-5.8c-0.2-1.3-1.9-2.2-3.1-1.7c-0.2,0.1-0.5,0.1-0.6,0.2c0.1-0.1,0.5,0,0.1,0c0.6,0.1,0.4,0.1,0.2,0
				c0.1,0,0.8,0.6,0.5,0.3c0.4,0.4,0.1,0.2,0-0.1c0.2,0.8-0.1-0.4-0.1-0.5c-0.3-1.2-0.3-2.4-0.7-3.5c-0.6-1.8-1.9-3.1-3.9-3.2
				c-0.4,0-0.7,0-1.1,0c0.4,0-0.4-0.1-0.6-0.1c-0.4-0.1-0.8-0.2-1.2-0.3c-0.1,0-0.3-0.1-0.4-0.2c0.5,0.2-0.2-0.1-0.3-0.2
				c-0.3-0.2-0.6-0.3-0.9-0.5c0,0-0.6-0.4-0.3-0.2c0.3,0.2-0.3-0.2-0.2-0.2c-0.2-0.2-0.5-0.4-0.7-0.7c-0.1-0.1-0.2-0.3-0.4-0.4
				c-0.4-0.5,0.3,0.4-0.1-0.2c-0.4-0.6-0.7-1.1-1-1.7c-0.1-0.1-0.2-0.6,0-0.1c-0.1-0.1-0.1-0.3-0.1-0.4c-0.1-0.4-0.2-0.7-0.3-1.1
				c-0.1-0.3-0.1-0.6-0.2-0.9c-0.1-0.7,0,0.5,0-0.2c0-0.1,0-0.3,0-0.4c-0.1-0.7-0.1-1.4,0-2.1c0-0.2,0-0.4,0.1-0.5
				c0-0.4-0.1,0.6,0-0.1c0.1-0.3,0.1-0.6,0.2-0.9c0.1-0.3,0.2-0.6,0.3-0.9c0.1-0.2,0.1-0.3,0.2-0.5c0.2-0.6-0.1,0.2,0.1-0.3
				c0.2-0.3,0.3-0.6,0.5-0.9c0.1-0.1,0.2-0.3,0.3-0.4c0.1-0.1,0.5-0.7,0.1-0.2c0.2-0.3,0.4-0.5,0.7-0.7c0.1-0.1,0.2-0.2,0.4-0.3
				c0.1-0.1,0.6-0.4,0.3-0.2c-0.1,0.1,0.6-0.3,0.8-0.5c0.1-0.1,0.3-0.2,0.5-0.2c0.1-0.1-0.3,0.1,0.2-0.1c0.4-0.1,0.7-0.2,1.1-0.3
				c0.1,0,0.3-0.1,0.4-0.1c-0.6,0.1,0.4,0,0.5,0c1.1,0,2.1-0.7,2.4-1.8c0.2-0.7,0.5-1.5,0.7-2.2c0.3-1.1-0.1-2.3-0.1-3.1
				c-0.1-1.2-0.1-1.8,0.4-3c-0.1,0.4,0.2-0.3,0.2-0.4c0.1-0.2,0.3-0.5,0.4-0.7c0.2-0.2,0.4-0.5,0.8-0.9c1.4-1.4,3.2-2.3,5.2-2.9
				c2.1-0.6,4.3-0.7,6.3-0.2C1200.1,8.4,1201.4,3.6,1198.3,2.9L1198.3,2.9z"/>
		</g>
	</g>
	<g>
		<path class="st12" d="M1187.4,19.6c-2,4.5-1.7,11.7-1.8,15.5c0.1,1.2,0.9,2.6,2,3.1c0.9,0.4,1.7,0.5,2.8,0.5
			c2.4,0,4.6-1.3,5.7-3.5c0.6-1.2,0.9-2.5,1.3-3.6c0.4-1.7,1-4.2,1.2-6.8C1195,22.4,1191.4,20.3,1187.4,19.6z"/>
		<path class="st13" d="M1195.6,44.5c-0.6,0.1-1,0.6-0.9,1.3c0.1,0.7,0.5,1.6,1.1,2.4c1.5,1.9,3.7,2.2,4.9,2.2
			c0.4,0,0.9-0.2,1.1-0.5c1.9-2.4,4.6-4.3,7.7-5.8c0.5-0.2,0.3-0.9-0.3-0.9C1204.7,43.6,1200.1,44,1195.6,44.5z"/>
		<path class="st11" d="M1194.8,28.9c0.3,2.5-3,3.7-3.6,0.9c-0.4-1.3,0.6-2.9,1.9-3C1194,27.3,1195,27.9,1194.8,28.9z"/>
	</g>
	<g>
		<path class="st12" d="M1214.5,20.6c2,4.5,1.7,11.7,1.8,15.5c-0.1,1.2-0.9,2.6-2,3.1c-1.1,0.6-2.3,0.7-3.4,0.3
			c-0.5-0.2-1-0.2-1.6-0.3c-2.7-0.5-4-4.2-4.7-6.6c-0.4-1.7-1-4.2-1.2-6.8C1206.8,23.3,1210.5,21.3,1214.5,20.6z"/>
		<path class="st11" d="M1207,29.9c-0.3,2.5,3,3.7,3.6,0.9c0.4-1.3-0.6-2.9-1.9-3C1207.9,28.3,1206.8,28.8,1207,29.9z"/>
	</g>
</g>
</svg>
