<svg xmlns="http://www.w3.org/2000/svg" id="Bakgrunn" viewBox="0 0 1688.6 2375.09">
  <defs>
    <style>
      .cls-4,.cls-5{stroke:#231f20;stroke-miterlimit:10;stroke-width:4.6px}.cls-5{fill:#00b1dc}.cls-4{fill:#a1cf6d}
    </style>
  </defs>
  <path d="M845.27 1698.84c340.03 0 643.44 156.78 841.89 401.99v-618.77l-6.24-6.38c-14.55-13.4-37.24-29.76-66.54-46.84-2.8-1.63-5.66-3.27-8.58-4.91-3.16-1.78-6.38-3.56-9.68-5.34-6.43-3.48-13.1-6.97-20.04-10.45-.03-.02-.07-.03-.1-.05-8.36-4.2-17.08-8.38-26.13-12.52-.93-.42-1.86-.85-2.79-1.27-25.75-11.66-54.14-22.95-84.72-33.11-76.62-25.47-166.93-43.96-263.41-43.96-336.22 0-446.34 169.43-842.11 161.06-92.61-1.96-162.82-14.49-216.05-32.61-1.46-.5-2.9-1-4.33-1.5a377.96 377.96 0 0 1-8.68-3.17c-.85-.32-1.7-.64-2.54-.97-1.27-.49-2.52-.98-3.77-1.47-2.32-.92-4.61-1.85-6.85-2.79-1.8-.75-3.58-1.51-5.33-2.28-2.7-1.18-5.35-2.38-7.94-3.59-1.23-.57-2.45-1.15-3.65-1.73-1.92-.93-3.82-1.86-5.68-2.8h-.01c-12.04-6.08-22.84-12.47-32.54-19.06-.71-.48-1.41-.96-2.11-1.45a240.011 240.011 0 0 1-6.47-4.63c-.97-.72-1.92-1.44-2.87-2.16-8.67-6.62-16.32-13.39-23.08-20.19 0-.01-.02-.02-.03-.03-1.6-1.61-3.15-3.23-4.65-4.84-.07-.08-.15-.16-.22-.24-6.38-6.89-11.88-13.79-16.61-20.58v748.63c198.45-245.21 501.86-401.99 841.89-401.99Z" style="fill:#c77161;opacity:.38"/>
  <path d="M20.2 1373.02c1.5 1.62 3.05 3.23 4.65 4.84l.03.03c6.75 6.8 14.41 13.57 23.08 20.19a238.402 238.402 0 0 0 9.34 6.79c.7.48 1.4.96 2.11 1.45 9.7 6.59 20.51 12.98 32.54 19.06h.01c1.86.94 3.76 1.87 5.68 2.8a348.364 348.364 0 0 0 11.59 5.32c1.75.77 3.53 1.53 5.33 2.28 2.25.94 4.53 1.87 6.85 2.79 1.25.49 2.5.98 3.77 1.47.84.32 1.69.65 2.54.97 2.84 1.07 5.74 2.13 8.68 3.17 1.43.5 2.88 1.01 4.33 1.5 53.23 18.11 123.44 30.65 216.05 32.61 395.77 8.37 505.89-161.06 842.11-161.06 96.48 0 186.78 18.49 263.41 43.96 30.58 10.17 58.98 21.45 84.72 33.11.93.42 1.87.85 2.79 1.27 9.05 4.14 17.78 8.32 26.13 12.52.03.02.07.03.1.05 6.93 3.48 13.61 6.97 20.04 10.45 3.3 1.78 6.52 3.56 9.68 5.34 2.92 1.64 5.78 3.28 8.58 4.91 29.31 17.07 51.99 33.44 66.54 46.84l6.24 6.38V833.3c-293.86 100.93-557.96-38-774.55-103.07-244.33-70.04-571.27-100.84-813.05-41.76-32.8 10.36-64.86 18.49-96.18 29.53v634.2c4.73 6.79 10.23 13.69 16.61 20.58.07.08.15.16.22.24Z" style="fill:#00b1dc;opacity:.15"/>
  <path d="M912.61 730.24c216.59 65.07 480.69 204 774.55 103.07V259.53l-1.23-.65c-95.77-37.57-307.02-103.41-507.65-50.2C925.1 275.82 389.58 644.58 9.67 428.92l-6.29-3.31v292.4c31.32-11.04 63.38-19.17 96.18-29.53 241.79-59.08 568.73-28.28 813.05 41.76Z" style="fill:#005ba7"/>
  <path d="M1178.27 208.68c200.63-53.21 411.89 12.63 507.65 50.2l1.23.65V0H3.38v425.61l6.29 3.31c379.91 215.67 915.44-153.1 1168.6-220.24Z" style="fill:#fff"/>
  <path d="M2.3 1982.98c46.97-70.68 106.75-133.57 175.35-188.61 53.55-45.42 115.09-83.72 179.03-116.74 106.7-56.57 223.39-99.17 340.69-127.67 82.66-31.99 297.86-63.37 361.45-42.99 4.2.05 8.39.12 12.56.21 124.44 1.73 372.99 84.96 372.12 85.12 34.85 9.8 65.67 32.93 94.75 55.98-.4-.32-.87-.52-1.28-.82 1.87 1.52 3.73 3.04 5.58 4.56 17 13.28 28.57 23.41 28.57 23.41 45.95 39.5 83.69 84.65 115.19 133.73" style="stroke:#231f20;stroke-miterlimit:10;stroke-width:4.6px;fill:none"/>
  <path d="M1352.61 2370.58c2.52-6.49 6.44-12.52 11.85-17.54 4.9-8.39 2.62-19.36 12.83-25.55 13.21-38.58-.44-82.09 25.22-117.43 40-34.88 87.12-90.38 66.72-152.07-67.84-107.07 52.71-212.7-45.19-298.28-16.43-25.24-40.27-46.07-52.5-73.06-5.57-36.5 24.21-63.66 36.25-94.94 10.98-2.79 35.69.59 35.69.59.24-.45-262.96-88.39-384.68-85.33 15.96 5.12 22.37 13.49 14.72 25.94 0 0 3.97 8.24-.31 12.7-7.47 6.95-18.48 13.53-27.26 19.61-5.69 5.11-4.03 18.06-13.48 17.8-3.4-.4-3.92 1.79-4.54 4.23-3.99 9.98-30.67 29.24-25.82 39.11.88 1.8.45 4.66-1.91 5.6-11.35 6.48 7.58 22.36-9.69 25.81-3.92 26.66 18.74 50.86 24.13 76.36 18.82 54.81-48.49 78.25-85.3 91.88-13.14 7.75-32.55-10.28-43.22-15.79-16.68-8.62-21.87-33-31.2-50.46-15.68-16.63-27.73-42.22-53.8-41.69-7.79-4.77-18.38-12.16-27.53-7.71-51.91 5.22-162.99-141.65-76.24-160.4-117.29 28.5-233.99 71.1-340.69 127.67 52.5-27.12 106.62-50.68 159.25-71.67 18.26-1.77 18.9 20.41 22.61 32.78-1.19 8.9-15.02 17.43-22.38 23.56-2.83.84-1.83 8.46-5.33 11.64 2.42 3.71 5.06-1.58 7.37.78-1.78 7.52-18.36 2.03-16.11 11.49-1.72 3.22-8.97 1.6-9.4 7.73-10.3 23.12-24.82 45.87-37.76 67.5-23.51 56.58-3.93 128.27-52.36 174.56-11.57 12.97-35.21 6.56-43.5 16.71-56.01 30.87-137.36 80.87-114.38 157.07 9.74 19.9-20.42 32.97-28.97 49.22-24.9 23.34-41.9 57.73-76.67 67.78-20.08 6.37-25.34-21.52-39.94-28.89-35.8-39.63 38.77-93.51 4.19-137.44-7.86-19.63-30.97-37.18-25.55-60.5 22.45-20.61 26.2-54.98 53.46-71.19 8.56-23.89 32.94-39.39 29.78-66.33 13.89-18.21-1.87-52.36 16.69-68.07-68.6 55.04-128.38 117.93-175.35 188.61l1.5 392.1m956.67-244.73c-4.18 16.96-.43 43.08-20.27 51.44-4.02 13.15-15.82 15.1-28.47 9.76-15.06-4.75-35.94 3.05-45.12-9.46-6.24-8.5-18.14 3.01-26.97 1.89-4.4-.55-13.34 2.05-14.75 2.79-14.57 7.65-31.76 2.5-37.32-10.85-2.01-6.58-14.8-.7-14-11.04-4.05-20.65-1.25-43.47 6.62-64.38 3.5-15.59-4.43-34.49 4.59-48.72 11.18-1.56-.59-8.59 3.19-12.8 12.51-3.96 9.25-26.31 18.67-26.02 6.79-.1 9.77-5.47 13.93-9.24 22.59 4.59 52.82 1.53 68.65 25.15 2.42-3.42 4.92-7.3 6.79-.08.42 14.72 19.11 18.9 20.04 30.11-.17 2.84.29 4.89 3.92 5.83 14.31 2.89 4.49 24.32 19.81 25.72 4.78 3.07 4.7 11.74 12.02 12.62 3.13.97 3.64 2.58 3.63 5.2-2.62 9.26 11.68 13.9 5.06 22.07Z" class="cls-5"/>
  <path d="M1536.96 1647.46c.42.29.88.49 1.28.82-29.08-23.05-59.9-46.19-94.75-55.98 29.91 8.54 71.57 38.25 99.05 59.72-1.85-1.52-3.71-3.04-5.58-4.56Z" class="cls-5"/>
  <path d="M955.41 2108.28c.02-2.62-.49-4.24-3.63-5.2-7.32-.89-7.25-9.56-12.02-12.62-15.32-1.4-5.5-22.83-19.81-25.72-3.63-.94-4.08-2.99-3.92-5.83-.92-11.21-19.61-15.39-20.04-30.11-1.86-7.22-4.37-3.34-6.79.08-15.83-23.62-46.05-20.56-68.65-25.15-4.16 3.77-7.13 9.14-13.93 9.24-9.42-.29-6.16 22.06-18.67 26.02-3.78 4.22 7.98 11.24-3.19 12.8-9.02 14.22-1.1 33.13-4.59 48.72-7.87 20.91-10.67 43.73-6.62 64.38-.8 10.35 12 4.46 14 11.04 5.56 13.35 22.76 18.5 37.32 10.85 1.41-.74 10.35-3.34 14.75-2.79 8.83 1.11 20.73-10.39 26.97-1.89 9.18 12.5 30.06 4.71 45.12 9.46 12.64 5.33 24.44 3.39 28.47-9.76 19.85-8.36 16.09-34.48 20.27-51.44 6.62-8.17-7.68-12.81-5.06-22.07ZM1571.11 1675.42s-11.58-10.13-28.57-23.41c-27.48-21.47-69.14-51.19-99.05-59.72s-24.72-3.38-35.69-.59c-12.04 31.28-41.82 58.44-36.25 94.94 12.23 26.99 36.07 47.82 52.5 73.06 97.9 85.58-22.65 191.21 45.19 298.28 20.4 61.7-26.73 117.2-66.72 152.07-25.66 35.34-12 78.85-25.22 117.43-10.21 6.18-7.93 17.16-12.83 25.55-5.42 5.02-9.33 11.05-11.85 17.54h333.69v-561.43c-31.5-49.07-69.24-94.23-115.19-133.73ZM665.21 1570.27c-6.58 47.44 55.16 140.69 108.39 140.08 9.15-4.45 19.75 2.94 27.53 7.71 26.07-.53 38.12 25.06 53.8 41.69 9.33 17.46 14.52 41.84 31.2 50.46 10.67 5.51 30.07 23.54 43.22 15.79 0 0 41.25-17.88 46.31-18.52 26.77-10.12 50.63-44.51 38.99-73.36-5.38-25.5-28.05-49.7-24.13-76.36 17.27-3.45-1.66-19.34 9.69-25.81 2.36-.94 2.79-3.8 1.92-5.6-3.79-8.1 5.47-9.04 5.89-16.05 6.98-7.38 15.03-14.09 19.92-23.06.63-2.44 1.14-4.63 4.54-4.23 9.44.26 7.78-12.69 13.48-17.8 8.79-6.08 19.79-12.66 27.26-19.61 4.29-4.46.31-12.7.31-12.7 7.65-12.45 1.24-20.82-14.72-25.94-63.58-20.38-278.79 11.01-361.45 42.99-17.87 6.92-29.55 13.86-32.16 20.32ZM160.97 1862.44c3.16 26.94-21.21 42.43-29.78 66.33-27.26 16.21-31.01 50.58-53.46 71.19-5.42 23.32 17.69 40.87 25.55 60.5 34.58 43.93-39.99 97.81-4.19 137.44 14.6 7.37 19.86 35.26 39.94 28.89 34.77-10.04 51.77-44.44 76.67-67.78 8.55-16.26 38.71-29.33 28.97-49.23-18.28-57.13 29.4-108.19 76.47-133.38 9.68-11.33 27.88-15.71 37.91-23.69 8.29-10.14 31.93-3.74 43.5-16.71 48.43-46.29 28.85-117.98 52.36-174.56 12.95-21.63 27.47-44.38 37.76-67.5.43-6.13 7.68-4.5 9.4-7.73-1.52-6.33 4.16-4.94 6.97-6.51 3.01-1.68 7.83-.1 9.14-4.98-2.3-2.36-4.94 2.93-7.37-.78 3.5-3.18 2.5-10.81 5.33-11.64 7.36-6.13 21.2-14.66 22.38-23.56-3.72-12.37-4.35-34.56-22.61-32.78-52.63 20.99-106.74 44.56-159.25 71.67-63.93 33.02-125.48 71.32-179.03 116.74l-.01.01c-18.54 15.72-2.79 49.86-16.68 68.06Z" class="cls-4"/>
</svg>
