<?xml version="1.0" encoding="utf-8"?>
<!-- Generator: Adobe Illustrator 27.7.0, SVG Export Plug-In . SVG Version: 6.00 Build 0)  -->
<svg version="1.1" id="Layer_1" xmlns="http://www.w3.org/2000/svg" xmlns:xlink="http://www.w3.org/1999/xlink" x="0px" y="0px"
	 viewBox="0 0 468.8 445.8" style="enable-background:new 0 0 468.8 445.8;" xml:space="preserve">
<style type="text/css">
	.st0{fill:#A1CF6D;}
	.st1{fill:#FFFFFF;stroke:#000000;stroke-width:4.6017;stroke-miterlimit:10;}
	.st2{stroke:#000000;stroke-miterlimit:10;}
</style>
<g>
	<g>
		<path class="st0" d="M118,40.8c-10.6-1.5-22.1-0.7-31.1,5S72.1,63.3,75.7,73.4l-2.2,7.1c-13-0.4-23.4,12.9-23.4,25.8
			c0,11.7,5.5,32.3,26.6,32.3c8.9,0,2.8,14.1,10.4,18.9l3.9-1.1c1.5,9.2,7.8,17.3,16,21.7c8.2,4.4,18.1,5.2,27.1,2.8
			c3.8-1,6-2.3,9-4.8c0.4-0.3,1.3-1.3,1.8-1.6c0.1-0.1,0.3-0.1,0.5-0.1c2.2,1,12.3,5.1,18.4,2.6c6.9-2.9,11.6-9.4,15.6-15.8
			c4.2-6.9,8.1-14.3,8.8-22.3l5.1,3.6c3.9,3.7,10.9,1.4,13.8-3.1c2.9-4.6,2.8-10.3,2.4-15.7c-0.3-5.7-1.1-12-5.2-16
			c-5.3-5.1-13.7-4.3-21-3.2l6.7-8.7c4.4-6,4.3-14.9-0.2-20.7c-4.5-5.9-13.1-8.2-20-5.4l0.9-0.7c0.9-9.1,1.6-19.2-3.9-26.5
			c-6.2-8.2-18-9.6-28.1-8.2c-6.6,0.9-13.3,3-18.2,7.4s-7.7,11.8-5.2,18"/>
		<g>
			<path d="M118,38.3c-9.5-1.3-19.5-0.8-28.4,3.2C81.8,45,75.6,51.8,73.1,60.1c-1.3,4.5-1.4,9.4,0.2,13.9c0-0.4,0-0.9,0-1.3
				c-0.7,2.4-1.5,4.7-2.2,7.1c0.8-0.6,1.6-1.2,2.4-1.8c-10.3-0.3-19.2,7.1-23.2,16.2c-3.4,7.6-3.3,15.9-1.2,23.9
				c1.9,7.3,5.8,14.3,12.2,18.7c3.6,2.5,7.9,3.8,12.3,4.3c1.1,0.1,2.2,0.1,3.3,0.2c0,0,0.8,0.1,0.4,0c-0.4-0.1,0.3,0.1,0.3,0.1
				c0.1,0,0.7,0.3,0.2,0c0.2,0.1,0.3,0.2,0.5,0.3c0.5,0.3-0.2-0.2,0,0c0.1,0.1,0.2,0.2,0.3,0.3c0.4,0.4-0.2-0.3,0,0
				c0.1,0.1,0.2,0.3,0.2,0.4c0,0,0.3,0.6,0.1,0.2c-0.2-0.4,0.1,0.3,0.1,0.3c0.1,0.4,0.3,0.8,0.3,1.2c0.5,2.1,0.5,3.3,0.8,5.5
				c0.3,2.1,0.8,4.2,1.8,6.1c1,1.9,3.2,4.7,5.6,4.2c1.3-0.3,2.6-0.7,3.8-1.1c-1-0.6-2.1-1.2-3.1-1.7c1.6,9.1,7.5,17.1,15.2,22
				c8.6,5.5,19.5,6.7,29.4,4.6c2.6-0.6,5.2-1.4,7.5-2.8c1.1-0.6,2.1-1.4,3-2.1c0.5-0.4,1-0.8,1.5-1.2c0.2-0.2,0.4-0.4,0.6-0.6
				c0.3-0.3,1-0.6,0-0.2c-0.4,0-0.9,0-1.3,0c-0.5-0.1-0.1-0.1,0.2,0c0.4,0.1,0.8,0.3,1.2,0.5c0.7,0.3,1.4,0.5,2.1,0.8
				c1.8,0.6,3.5,1.1,5.4,1.5c4.4,0.9,8.8,1,12.9-1c4.4-2.1,7.9-5.7,10.8-9.5c3.1-4,5.8-8.4,8.2-12.9c2.9-5.5,5-11.2,5.6-17.4
				c-1.3,0.7-2.5,1.4-3.8,2.2c1.2,0.9,2.5,1.7,3.7,2.6c0.4,0.3,0.9,0.6,1.3,0.9c0.2,0.2-0.7-0.6,0,0c0.3,0.3,0.7,0.5,1,0.7
				c0.7,0.4,1.5,0.8,2.2,1c5.5,1.7,11.8-1.7,14.4-6.5c3.3-6,2.8-13.5,2.1-20.1c-0.7-6.3-2.7-12.7-8.4-16.1
				c-6.2-3.7-13.9-2.8-20.6-1.7c0.9,1.2,1.9,2.4,2.8,3.7c1.4-1.8,2.8-3.7,4.2-5.5c1.7-2.2,3.4-4.3,4.5-7c3.8-9.3,0-20.7-9.2-25.1
				c-4.9-2.4-10.8-2.9-15.9-0.9c0.8,1.4,1.6,2.8,2.4,4.2c0.3-0.2,0.6-0.4,0.9-0.7c0.9-0.9,0.8-2.2,0.9-3.4c0.2-1.8,0.3-3.6,0.4-5.5
				c0.2-3.8,0-7.5-0.7-11.2c-1.4-6.9-5.7-12.9-12.1-16.1c-6.1-3-13.2-3.7-19.9-3.1c-7.5,0.7-15.1,2.7-21.1,7.4
				c-6.2,4.9-10,13.7-7.1,21.5c0.5,1.3,1.7,2.1,3.1,1.7c1.2-0.3,2.2-1.8,1.7-3.1c-2-5.3,0.1-11.2,4.1-15.1
				c4.6-4.5,11.1-6.3,17.2-7.2c10.3-1.5,23.6,0.2,28.1,11.1c2.7,6.6,1.9,14.2,1.2,21c0.2-0.6,0.5-1.2,0.7-1.8
				c-0.3,0.2-0.6,0.5-0.9,0.7c-1.9,1.6,0.1,5.1,2.4,4.2c7.2-2.8,16.3,0.4,19.3,7.9c1.5,3.7,1.4,8.1-0.2,11.8c-0.9,2.2-2.5,4-4,5.8
				c-1.5,1.9-2.9,3.8-4.4,5.7c-0.6,0.8-0.4,2.1,0.2,2.8c0.7,0.8,1.6,1.1,2.6,0.9c4.9-0.7,10.4-1.5,15.2,0.4c4.8,2,6.7,6.7,7.4,11.6
				c0.4,2.7,0.5,5.5,0.6,8.2c0.1,2.8-0.1,5.7-1,8.4c-0.7,2.2-2,4.1-4,5.3c-1.7,1-3.7,1.5-5.4,1.1c-1.3-0.4-2.6-1.6-3.8-2.5
				c-1.2-0.8-2.4-1.7-3.5-2.5c-1.7-1.2-3.6,0.5-3.8,2.2c-0.4,4.8-2.2,9.4-4.3,13.7c-2.1,4.2-4.6,8.3-7.3,12.1
				c-2.4,3.4-5.2,6.6-8.8,8.8c-3.3,2-6.5,2.2-10.2,1.5c-1.7-0.3-3.4-0.8-5.1-1.4c-0.7-0.2-1.3-0.5-2-0.7c-0.3-0.1-0.5-0.2-0.8-0.3
				c-0.1,0-0.2-0.1-0.3-0.1c-0.3-0.1,0.5,0.2,0.1,0c-1-0.4-2-0.7-3-0.2c-1,0.5-1.6,1.3-2.4,2c-1.5,1.3-3.2,2.5-5,3.3
				c-4,1.8-8.8,2.3-13.1,2.2c-4.5-0.1-9.1-0.9-13.3-2.8c-8.6-3.9-15.1-11.7-16.8-21.1c-0.2-1.3-1.9-2.1-3.1-1.7
				c-1.3,0.4-2.6,0.7-3.9,1.1c0.6,0.1,1.3,0.2,1.9,0.3c-0.5-0.3-0.3-0.2-0.7-0.6c-0.2-0.2-0.5-0.5-0.7-0.7c0.2,0.3-0.3-0.5-0.4-0.6
				c-0.3-0.5-0.4-0.7-0.4-0.8c-0.6-1.5-0.8-3-1.1-4.5c-0.1-0.4,0,0.3,0-0.1c0-0.2-0.1-0.4-0.1-0.6c0-0.3-0.1-0.7-0.1-1
				c-0.1-0.9-0.2-1.9-0.4-2.8c-0.3-1.4-0.7-2.8-1.4-4.1c-0.9-1.4-2.1-2.4-3.7-3c-1.8-0.6-3.9-0.4-5.8-0.6c-3.5-0.4-6.6-1.5-9.5-3.4
				c-5-3.3-8.2-9.1-9.8-14.9c-0.4-1.5-0.8-2.9-1-4.4c-0.1-0.4-0.1-0.7-0.2-1.1c0-0.2,0-0.3-0.1-0.5c-0.1-0.7,0,0.3,0-0.1
				c-0.1-0.7-0.2-1.4-0.2-2.1c-0.3-3.5,0-7,1-10.4C56.4,90.5,64,82.7,73.5,83c1.1,0,2.1-0.8,2.4-1.8c0.7-2.3,1.6-4.6,2.2-6.9
				c0.2-0.9,0-1.7-0.3-2.5c-0.3-1.1-0.6-2.3-0.6-3.5c-0.1-2.2,0.1-4.4,0.7-6.6c1.3-4.4,3.9-8.4,7.4-11.5c3.8-3.4,8.8-5.5,13.8-6.6
				c6.2-1.4,12.7-1.2,19-0.3c1.3,0.2,2.5-1.3,2.5-2.5C120.5,39.3,119.4,38.4,118,38.3L118,38.3z"/>
		</g>
	</g>
	<g>
		<path class="st1" d="M91.1,78.2c-5.2,11.9-4.5,30.6-4.8,40.7c0.2,3.1,2.5,6.9,5.3,8.1c2.3,1.2,4.4,1.4,7.3,1.4
			c6.3,0,12.2-3.4,14.9-9.1c1.5-3.1,2.4-6.5,3.3-9.6c0.9-4.3,2.5-11,3.2-17.9C111.2,85.5,101.6,80.1,91.1,78.2z"/>
		<path class="st2" d="M112.7,143.5c-1.6,0.2-2.7,1.7-2.4,3.3c0.4,1.9,1.2,4.2,2.9,6.3c3.9,4.9,9.7,5.7,12.8,5.8
			c1.2,0,2.3-0.5,3-1.4c4.9-6.3,12.1-11.2,20.1-15.3c1.2-0.6,0.7-2.5-0.7-2.3C136.5,141.1,124.6,142.3,112.7,143.5z"/>
		<path class="st0" d="M110.7,102.7c0.7,6.5-7.8,9.7-9.5,2.5c-1.2-3.5,1.5-7.5,5-7.8C108.4,98.4,111.1,99.9,110.7,102.7z"/>
	</g>
	<g>
		<path class="st1" d="M162.2,80.8c5.2,11.9,4.5,30.6,4.8,40.7c-0.2,3.1-2.5,6.9-5.3,8.1c-3,1.5-6.1,1.8-9,0.8
			c-1.3-0.4-2.7-0.6-4.1-0.9c-7.2-1.3-10.4-11-12.3-17.2c-0.9-4.3-2.5-11-3.2-17.9C142.1,88,151.7,82.6,162.2,80.8z"/>
		<path class="st0" d="M142.6,105.3c-0.7,6.5,7.8,9.7,9.5,2.5c1.2-3.5-1.5-7.5-5-7.8C144.9,101,142.2,102.5,142.6,105.3z"/>
	</g>
</g>
<g>
	<g>
		<path d="M110.5,69.6c0.7,0.8,1.4,1.6,2,2.5c-0.1-0.2-0.2-0.2,0,0c0.1,0.1,0.2,0.2,0.2,0.3c0.2,0.2,0.3,0.4,0.5,0.6
			c0.3,0.5,0.7,0.9,1,1.4c1.3,1.8,2.5,3.6,3.6,5.4c0.7,1.1,2.3,1.6,3.4,0.9c1.1-0.7,1.6-2.2,0.9-3.4c-2.4-3.9-5.1-7.6-8.1-11.2
			c-0.8-1-2.7-0.9-3.5,0C109.5,67.1,109.6,68.5,110.5,69.6L110.5,69.6z"/>
	</g>
</g>
<g>
	<g>
		<path d="M135.5,78c0.7-1,1.4-2,2.1-3c0.2-0.2,0.4-0.5,0.6-0.7c0.2-0.3-0.2,0.3,0,0c0.1-0.1,0.2-0.3,0.3-0.4c0.4-0.5,0.8-1,1.2-1.4
			c1.6-1.9,3.3-3.7,5-5.4c0.9-0.9,1-2.6,0-3.5c-1-0.9-2.5-1-3.5,0c-3.8,3.6-7.1,7.6-10,11.9c-0.7,1.1-0.3,2.8,0.9,3.4
			C133.3,79.5,134.7,79.1,135.5,78L135.5,78z"/>
	</g>
</g>
</svg>
