<?xml version="1.0" encoding="utf-8"?>
<!-- Generator: Adobe Illustrator 27.7.0, SVG Export Plug-In . SVG Version: 6.00 Build 0)  -->
<svg version="1.1" id="Layer_1" xmlns="http://www.w3.org/2000/svg" xmlns:xlink="http://www.w3.org/1999/xlink" x="0px" y="0px"
	 viewBox="0 0 111.7 122" style="enable-background:new 0 0 111.7 122;" xml:space="preserve">
<style type="text/css">
	.st0{fill:#F5EC43;stroke:#000000;stroke-width:4.6017;stroke-miterlimit:10;}
</style>
<path class="st0" d="M32.4,43.8c2.8-6.4-1.8-9.3-0.7-21.4C32,18.5,33.2,5,39.9,2.7c7.3-2.5,17.8,9.2,20.4,12c8.3,9.2,8.5,16,14.2,17
	c4.5,0.8,5.7-3.2,14.4-5.3c3.5-0.8,13.1-3.2,17.5,1.6c4.7,5.2,0.5,15.8,0.1,16.6c-3.5,8.4-9.4,8.9-9.4,14.2
	c-0.1,5.2,5.5,5.9,9.4,14.3c2.2,4.8,4.9,14.2,0.8,18.4c-4.6,4.7-15.7,1.1-19.7-0.2c-8.7-2.8-10.3-6.4-14-5.4
	c-5.2,1.5-4.4,9.2-11.4,19.7c-1.2,1.8-10.4,15.7-17.6,14c-6.2-1.5-9-14.3-9.6-20.5c-0.9-8.8,1.4-13.7-1.6-16
	c-2.8-2.1-6.1,1.2-13.4,1.1C13.2,84.1,4,81,2.5,75.6c-1.5-5.4,5.3-11.6,11-16.8C24.1,49.2,29.6,50.4,32.4,43.8z"/>
</svg>
