<?xml version="1.0" encoding="utf-8"?>
<!-- Generator: Adobe Illustrator 27.7.0, SVG Export Plug-In . SVG Version: 6.00 Build 0)  -->
<svg version="1.1" id="Layer_1" xmlns="http://www.w3.org/2000/svg" xmlns:xlink="http://www.w3.org/1999/xlink" x="0px" y="0px"
	 viewBox="0 0 468.8 445.8" style="enable-background:new 0 0 468.8 445.8;" xml:space="preserve">
<style type="text/css">
	.st0{fill:#C77161;}
	.st1{stroke:#000000;stroke-width:4.206;stroke-miterlimit:10;}
</style>
<g>
	<g>
		<path class="st0" d="M344.1,104.6c4.4,1.3,9.7-3.3,13.9-8.1c-5.1-5.7-8.1-13.2-8.4-20.9c-0.6,1.3-3.6-1.1-4.9-0.6
			c-10-9.9-25.9-11.8-39.6-8.3c-13.7,3.5-25.7,11.5-37.4,19.2c-2.3,1.5-4.7,3.1-7.4,3.9c-3.8,1.1-5.8,4-9.7,3.8
			c-11.9-0.8-50,5-56,6.6c-18.9,5.1-91,46.9-128.3,90.4c-5.3,6.2-5.1,17.2-1.3,24.5L82.6,249c7.7,1.2,18.1-5.1,17.7-7.2
			c-0.2-1.1-3.7-0.3-6.5-1.7c-9.8-5.1-14-40.5,5.6-52.3c12.7-7.6,30.5-2.4,39.7,6.8c9,9,11,23.3,11,23.3l146-84.1
			c0,0-10.5-11.5-11.5-24.2c-0.8-9.4,2.5-24.2,15.3-31.2c9.5-5.2,22.6-5.2,30.4,1.3C340.2,87.8,337.1,102.6,344.1,104.6z"/>
		<g>
			<path d="M343.5,107c6.5,1.6,12.4-4.3,16.3-8.7c0.9-1.1,0.9-2.5,0-3.5c-4.7-5.3-7.4-12.1-7.6-19.1c-0.1-2.5-3.3-3.4-4.7-1.3
				c0.6-0.3,1.2-0.5,1.8-0.8c-0.1,0-0.2,0-0.3-0.1c-0.1-0.1-0.4-0.1-0.6-0.2c-0.5-0.2-0.9-0.3-1.3-0.5c-1-0.3-2-0.5-3-0.2
				c0.8,0.2,1.6,0.4,2.4,0.6c-8.5-8.2-20.6-11.3-32.2-10.5c-13.1,0.9-25.1,6.7-36.1,13.5c-2.9,1.8-5.8,3.7-8.7,5.6
				c-2.7,1.8-5.4,3.9-8.5,5.2c-1.5,0.6-3,1-4.4,1.8c-1.2,0.6-2.3,1.5-3.6,2c-1.6,0.6-3.3,0.3-5,0.3c-8.2,0-16.5,1.1-24.6,2.1
				c-8.2,1-16.5,2.2-24.6,3.7c-4.7,0.9-8.9,2.3-13.3,4.1c-15.7,6.7-30.5,15.7-44.8,24.9c-19.1,12.3-37.5,25.8-54.4,41
				c-4.1,3.7-8.2,7.5-12.1,11.5c-3.7,3.8-7.7,7.6-10.8,11.9c-5.4,7.6-4.4,18.7-0.3,26.6c5.5,10.6,11,21.1,16.5,31.7
				c0.3,0.5,0.5,1,0.8,1.5c1.1,1.8,3.8,1.6,5.7,1.4c4.9-0.4,9.9-2.3,13.8-5.2c1.4-1,2.9-2.4,3-4.3c0.1-3.2-3.3-3.2-5.6-3.5
				c-0.9-0.1-1.8-0.3-2.5-0.8c-0.1-0.1-0.8-0.6-0.3-0.2c-0.2-0.2-0.4-0.4-0.7-0.6c-0.2-0.2-0.4-0.5-0.6-0.7
				c-0.5-0.5,0.1,0.1-0.3-0.4c-0.4-0.6-0.8-1.2-1.1-1.8c-0.8-1.5-1.1-2.3-1.7-4c-0.5-1.7-1-3.5-1.3-5.3c-0.6-3.6-0.7-7.8-0.4-11.7
				c0.7-7.8,3.6-15.9,9.8-21.1c8-6.8,20-6.3,29.2-2.2c4.8,2.1,9.2,5.2,12.5,9.4c3,3.9,5.1,8.4,6.5,13.1c0.7,2.1,1.3,4.3,1.6,6.6
				c0.2,1.6,2.4,2.2,3.7,1.5c4.9-2.8,9.7-5.6,14.6-8.4c11.6-6.7,23.2-13.4,34.8-20c14.1-8.1,28.1-16.2,42.2-24.3
				c12.2-7,24.3-14,36.5-21c5.9-3.4,11.9-6.6,17.7-10.2c0.1-0.1,0.2-0.1,0.3-0.1c1.4-0.8,1.6-2.8,0.5-3.9c-1.5-1.6-2.2-2.7-3.5-4.5
				c-2.5-3.6-4.6-7.5-6-11.7c-2.4-7.3-1.8-15.6,1.3-22.6c3.7-8.4,10.9-14.1,19.9-15.7c8.8-1.6,18.7,0.8,23.2,9.1
				c2,3.7,2.8,7.9,4,11.9C338,102.2,339.6,105.8,343.5,107c3.1,1,4.4-3.9,1.3-4.8c-0.6-0.2-0.7-0.2-1-0.6c-0.1-0.1-0.6-0.7-0.4-0.4
				c-0.2-0.3-0.4-0.7-0.6-1.1c-0.6-1.2-1.1-2.9-1.5-4.5c-1.1-4.2-2.2-8.4-4.4-12.1c-5.3-9-16.1-12.4-26-11.1
				c-10.3,1.3-19.4,7-24.3,16.2c-4,7.5-5.5,16.7-3.8,25c1.7,8,6.2,16,11.7,22c0.2-1.3,0.3-2.6,0.5-3.9c-4.9,2.8-9.7,5.6-14.6,8.4
				c-11.6,6.7-23.2,13.4-34.8,20c-14.1,8.1-28.1,16.2-42.2,24.3c-12.2,7-24.3,14-36.5,21c-4,2.3-8,4.6-12,6.9
				c-1.9,1.1-3.9,2.1-5.7,3.3c-0.1,0.1-0.2,0.1-0.3,0.1c1.2,0.5,2.4,1,3.7,1.5c-1.2-8.2-4.8-16.6-10.2-22.8
				c-7.6-8.9-20.6-13.9-32.1-12.7c-10.7,1.1-19.4,7.7-23.6,17.5c-3.6,8.4-4.3,18-2.7,27c0.7,4,2,8.2,4.2,11.6c1,1.5,2.1,2.8,3.6,3.9
				c1.1,0.7,2.3,1.2,3.6,1.5c0.9,0.2,1.8,0.3,2.7,0.4c0.2,0,0.5,0.1,0.7,0.1c0.3,0,0,0.1-0.2-0.2c-0.2-0.4-0.4-0.7-0.6-1.1
				c-0.2-0.5,0.1-0.8,0.2-1.1c-0.1,0.1-0.4,0.5,0,0.1c-0.2,0.3-0.9,0.9-0.9,0.9c-1.2,1-2.6,1.7-4,2.3c-2.9,1.4-6.6,2.5-9.8,2
				c0.5,0.4,1,0.8,1.5,1.1c-3.5-6.7-7-13.3-10.4-20c-2-3.8-4-7.6-6-11.5c-1.9-3.5-3.3-7.1-3.6-11.2c-0.2-3.6,0.2-7.4,1.9-10.6
				c1.7-3.1,4.5-5.7,6.9-8.2c5.3-5.6,10.8-11,16.6-16.1c12-10.7,24.7-20.5,37.9-29.7c11.9-8.3,24.1-16.1,36.7-23.2
				c5-2.8,10.1-5.6,15.3-8.2c2.1-1,4.2-2,6.4-3c0.5-0.2,0.9-0.4,1.4-0.6c0.2-0.1,0.5-0.2,0.7-0.3c-0.4,0.2,0.1-0.1,0.3-0.1
				c0.9-0.3,1.7-0.7,2.6-1c2.7-1,5.5-1.7,8.4-2.2c5.3-1,10.7-1.8,16-2.6c6.3-0.9,12.7-1.7,19.1-2.3c5-0.5,10.1-1,15.2-0.8
				c1.9,0.1,3.6-0.2,5.3-1c1.7-0.7,3.1-1.9,4.8-2.6c2.3-1,4.5-1.7,6.7-3c2-1.2,3.9-2.6,5.9-3.8c7.8-5.1,15.9-10.3,24.6-13.8
				c7.9-3.2,16.3-4.9,24.9-4.2c3.9,0.3,7.8,1.2,11.5,2.8c3.6,1.5,6.5,3.7,9.4,6.2c0.6,0.6,1.3,0.7,2.1,0.7c0.7,0-0.3-0.2,0.2,0
				c0.6,0.3,1.3,0.5,1.9,0.7c1.7,0.5,3.5,0.3,4.5-1.3c-1.6-0.4-3.1-0.8-4.7-1.3c0.3,8.4,3.5,16.3,9.1,22.6c0-1.2,0-2.4,0-3.5
				c-1.8,2-3.7,4.1-6,5.6c-1.5,1.1-3.5,2.3-5.5,1.8C341.7,101.4,340.3,106.2,343.5,107z"/>
		</g>
	</g>
	<g>
		<path d="M246.3,105.9c-28.5,14.6-62.8,33.4-92,46.7c-11.4,5.2-22.9,10.3-34.9,13.8c10.5-16.5,28.1-26.9,45-36.8
			c12.1-7,24.2-14,37.3-18.8C206.5,109.1,231.5,104.5,246.3,105.9z"/>
	</g>
	<path class="st1" d="M328,118c-8.2,8.8-24.3,8-32.1-1.3c-11.9-18.3,12.3-43.3,29.4-29C334.2,94.4,334.4,109.8,328,118z"/>
	<path class="st1" d="M138.9,223.2c-3.6,13.5-20.4,21.6-33.5,16.4c-22.2-12.2-11.4-51,14-45.8C132.2,195.7,140.9,211.3,138.9,223.2z
		"/>
</g>
</svg>
