<?xml version="1.0" encoding="utf-8"?>
<!-- Generator: Adobe Illustrator 27.7.0, SVG Export Plug-In . SVG Version: 6.00 Build 0)  -->
<svg version="1.1" id="Layer_1" xmlns="http://www.w3.org/2000/svg" xmlns:xlink="http://www.w3.org/1999/xlink" x="0px" y="0px"
	 viewBox="0 0 468.8 445.8" style="enable-background:new 0 0 468.8 445.8;" xml:space="preserve">
<style type="text/css">
	.st0{fill:#FCE0CE;stroke:#000000;stroke-width:4.6017;stroke-miterlimit:10;}
	.st1{fill:#00B1DC;}
	.st2{fill:#C77161;}
	.st3{stroke:#000000;stroke-width:4.6017;stroke-miterlimit:10;}
	.st4{fill:#FFFFFF;}
	.st5{fill:none;stroke:#FFFFFF;stroke-width:4.6017;stroke-miterlimit:10;}
</style>
<g>
	<g>
		<g>
			<g>
				<path d="M272.3,312.5c0.1,12.8,0.5,25.7,0.9,38.5c0.4,14.5,0.8,29.1,1,43.6c0.1,6.7,0.1,13.4-0.2,20.1c-0.1,3.2,4.9,3.2,5,0
					c0.5-12.8,0.2-25.7-0.1-38.5c-0.3-14.5-0.8-29.1-1.2-43.6c-0.2-6.7-0.3-13.4-0.4-20.1C277.3,309.3,272.3,309.3,272.3,312.5
					L272.3,312.5z"/>
			</g>
		</g>
		<g>
			<path d="M275.4,415.9c12.1-2.5,23.9-8.7,36.2-7.1c1.9,0.2,3.8,0.7,5.2,2.1c2.1,2.2,1.8,5.9,0,8.4s-4.8,3.8-7.7,4.7
				C297.6,427.5,285.2,422.8,275.4,415.9z"/>
		</g>
	</g>
	<g>
		<path class="st0" d="M379.3,119.5c-8.9-7.9,2.6-23.9,13.1-19.2c5.5,3.4,7,12.4,3.1,17.4C391.8,121.8,383.6,123.6,379.3,119.5z"/>
		<g>
			<path class="st1" d="M176.7,155.4c-2,8.8-1.1,17.8-3.1,26.6c6.5,1.5,12.9,3.7,19,6.5c1.4,0.7,3,1.5,3.5,3
				c0.5,1.4-0.1,2.8-0.6,4.1c-8.2,20.5-14.2,41.9-17.9,63.7c36.2-2.6,72.5-3.9,108.7-3.9c-7-22.6-12-45.8-14.8-69.2
				c15.8-6.3,31.6-12.6,47.3-19c-4.7-8.3-9.4-16.7-14.2-25c-6.9,3.7-13.9,7.4-20.8,11.1c-8.3,4.4-16.7,8.9-25.8,11.1
				c-9.9,2.4-20.3,2-30.4,1C210.4,163.8,193.3,160.4,176.7,155.4z"/>
			<g>
				<path d="M174.3,154.7c-1.9,8.8-1.2,17.9-3.1,26.6c-0.3,1.3,0.4,2.8,1.7,3.1c5.9,1.4,11.6,3.2,17.2,5.7c1,0.5,2.2,0.9,3.2,1.6
					c0.9,0.7,0.5,1.5,0.2,2.5c-1,2.9-2.2,5.7-3.3,8.5c-4.3,11.6-7.9,23.5-10.8,35.6c-1.6,6.8-3,13.6-4.2,20.4
					c-0.3,1.5,0.6,3.3,2.4,3.2c28.3-2,56.6-3.3,84.9-3.7c7.9-0.1,15.9-0.2,23.9-0.2c1.6,0,2.9-1.6,2.4-3.2
					c-5.4-17.4-9.6-35.2-12.5-53.2c-0.8-5.1-1.6-10.2-2.2-15.3c-0.6,0.8-1.2,1.6-1.8,2.4c15.8-6.3,31.6-12.6,47.3-19
					c1.5-0.6,2.4-2.1,1.5-3.7c-4.7-8.3-9.4-16.7-14.2-25c-0.7-1.2-2.2-1.5-3.4-0.9c-7.7,4.1-15.5,8.3-23.2,12.4
					c-7.3,3.9-14.8,7.7-23,9.6c-8.3,2-17,1.9-25.5,1.2c-8.7-0.7-17.3-1.9-25.8-3.4c-9.6-1.8-19.2-4.1-28.6-6.9
					c-3.1-0.9-4.4,3.9-1.3,4.8c17.1,5.2,34.8,8.6,52.6,10.3c8.8,0.8,17.7,1.1,26.4-0.4c8.5-1.5,16.5-5,24.2-9
					c9-4.6,17.8-9.5,26.7-14.2c-1.1-0.3-2.3-0.6-3.4-0.9c4.7,8.3,9.4,16.7,14.2,25c0.5-1.2,1-2.4,1.5-3.7
					c-15.8,6.3-31.6,12.6-47.3,19c-0.9,0.4-2,1.3-1.8,2.4c2.2,18.4,5.7,36.7,10.5,54.6c1.4,5.1,2.8,10.2,4.4,15.3
					c0.8-1.1,1.6-2.1,2.4-3.2c-28.3,0-56.6,0.7-84.9,2.3c-7.9,0.4-15.9,1-23.8,1.5c0.8,1.1,1.6,2.1,2.4,3.2
					c2.2-12.9,5.2-25.7,9-38.2c1.9-6.3,4-12.6,6.4-18.8c0.6-1.5,1.1-3,1.7-4.4c0.5-1.4,1.2-2.8,1.5-4.3c0.7-3.3-0.9-5.9-3.8-7.5
					c-3.1-1.6-6.5-2.9-9.8-4c-3.5-1.3-7.1-2.3-10.8-3.2c0.6,1,1.2,2.1,1.7,3.1c1.9-8.8,1.2-17.9,3.1-26.6
					C179.8,152.9,175,151.6,174.3,154.7z"/>
			</g>
		</g>
		<g>
			<g>
				<g>
					<path d="M199.1,312c0.1,14.3-0.3,28.6-0.8,43c-0.5,15.9-1.2,31.8-1.9,47.7c-0.3,7.5-0.7,15.1-1.1,22.6c-0.2,3.2,4.8,3.2,5,0
						c0.7-14.3,1.4-28.6,2-42.9c0.7-15.9,1.3-31.8,1.6-47.7c0.2-7.5,0.3-15.1,0.2-22.6C204.1,308.7,199.1,308.7,199.1,312L199.1,312
						z"/>
				</g>
			</g>
			<g>
				<path d="M198.5,426.6c-10.8-7.1-25-8.9-38-8.8c-4.4,0-9.2,0.8-12,4.2c-1.1,1.3-1.8,3.1-1.5,4.8c0.5,2.8,3.3,4.6,5.9,5.5
					c4.6,1.6,9.6,1.7,14.4,1.3C178.1,432.8,188.4,429.7,198.5,426.6z"/>
			</g>
		</g>
		<g>
			<path class="st2" d="M164.3,326.2c26.7-3.1,53.6-4.9,80.5-5.7c20.9-0.7,42.4-0.6,61.6,7.6c-6.3-19.9-12.3-50.9-18.6-70.8
				c-0.5-1.7-1.2-3.6-2.8-4.4c-1-0.5-2.2-0.5-3.4-0.5c-33,0.9-66,1.8-99,2.7c-1,0-2,0.1-2.8,0.6c-1.1,0.8-1.4,2.3-1.6,3.7
				C177.5,263.6,164.8,322,164.3,326.2z"/>
			<g>
				<path d="M164.3,328.7c19.2-2.2,38.4-3.8,57.7-4.8c9.5-0.5,18.9-0.9,28.4-1.1c8.8-0.2,17.7-0.2,26.5,0.7
					c9.6,0.9,19.3,2.9,28.2,6.7c0.9,0.4,1.9,0.5,2.8-0.2c0.8-0.6,1.2-1.7,0.9-2.6c-6.2-19.4-10-39.6-15.3-59.2
					c-1.2-4.4-2.2-9-4-13.3c-1.2-3-3.4-4.8-6.7-5c-3.1-0.2-6.2,0.1-9.3,0.2c-13.1,0.4-26.2,0.7-39.3,1.1c-12.9,0.3-25.9,0.7-38.8,1
					c-3.2,0.1-6.5,0.2-9.7,0.3c-2.8,0.1-6.3-0.3-8.3,1.9c-0.9,1-1.4,2.2-1.6,3.5c-0.1,0.4-0.1,0.8-0.2,1.2c-0.1,0.9,0-0.2,0-0.2
					c0,0.1,0,0.2,0,0.3c-0.1,0.5-0.2,1-0.3,1.5c-2.1,11-4.5,21.9-6.8,32.8c-2.2,10.4-4.6,20.8-6.5,31.2c-0.1,0.6-0.2,1.1-0.3,1.7
					C161.6,327.5,163,328.7,164.3,328.7c1.5,0,2.3-1.2,2.5-2.5c-0.2,1.3,0-0.2,0.1-0.5c0.1-0.7,0.2-1.3,0.4-2c0.4-2,0.8-4,1.2-6.1
					c1.2-5.9,2.4-11.7,3.7-17.6c2.5-11.7,5-23.3,7.3-35c0.3-1.4,0.6-2.8,0.8-4.3c0.1-0.7,0.2-1.5,0.4-2.2c0.2-0.8,0.2-1,1-1.1
					c1.6-0.2,3.2-0.1,4.7-0.1c12.7-0.3,25.4-0.7,38.1-1c12.7-0.3,25.4-0.7,38.1-1c6.3-0.2,12.6-0.4,18.9-0.5c1,0,2-0.2,2.7,0.6
					c0.6,0.7,0.9,1.9,1.2,2.8c0.7,2.1,1.3,4.2,1.9,6.3c5.5,19.2,9.3,38.8,14.8,58c0.6,2.1,1.2,4.2,1.9,6.2c1.2-0.9,2.4-1.9,3.7-2.8
					c-16.6-7.1-34.8-8.4-52.7-8.2c-19.2,0.2-38.5,1.3-57.6,2.8c-11,0.9-22,1.9-33,3.2c-1.3,0.2-2.5,1-2.5,2.5
					C161.8,327.4,162.9,328.9,164.3,328.7z"/>
			</g>
		</g>
		<g>
			<g>
				<path d="M312.7,154.6c16.5-9.3,33.2-18.2,50.2-26.6c4.8-2.4,9.7-4.8,14.6-7.1c1.2-0.6,1.5-2.3,0.9-3.4c-0.7-1.2-2.2-1.5-3.4-0.9
					c-17.1,8.2-34,16.8-50.6,25.9c-4.7,2.6-9.5,5.2-14.2,7.9C307.4,151.9,309.9,156.2,312.7,154.6L312.7,154.6z"/>
			</g>
		</g>
		<g>
			<g>
				<path d="M176.5,167.2c-17.6-7.3-34.9-15.4-51.8-24.1c0.3,1.1,0.6,2.3,0.9,3.4c6.1-8.4,10.7-17.8,13.7-27.7
					c0.9-3.1-3.9-4.4-4.8-1.3c-2.9,9.5-7.4,18.5-13.2,26.6c-0.8,1.1-0.2,2.8,0.9,3.4c17.3,8.9,35,17.1,53,24.6
					c1.2,0.5,2.7-0.6,3.1-1.7C178.6,168.9,177.8,167.8,176.5,167.2L176.5,167.2z"/>
			</g>
		</g>
		<g>
			<g>
				<g>
					<g>
						<path class="st0" d="M280.2,34.5c56.9,34.2,10.2,133.9-52.5,118.8c-33.7-12.7-51.2-60.7-35.1-92.6
							C209.2,34.4,252.5,16.2,280.2,34.5z"/>
						<path class="st3" d="M223.1,66.2c-20.6-0.3-23.9,37.4-7,44C243.9,118.7,247.2,69,223.1,66.2z"/>
						<path class="st4" d="M231.9,84"/>
					</g>
					<path d="M275.6,67.6c-26.8-2.7-32.6,49.3-1.8,46.5c0.9-0.1,1.8-0.1,2.6-0.2c20.2-1.4,17.2-33.2,4.2-44.2
						C279.2,68.5,277.4,67.8,275.6,67.6z"/>
					<path class="st4" d="M269.5,110.9c-8.1,0-10.8-9.4-8.6-11.3c6.5-5.8,14.6-9.8,23-6.2c0,0,1.9,0.6,1.9,2.9
						C285.9,104.8,284,110.9,269.5,110.9z"/>
					<path class="st4" d="M276.7,71.8c9.8,5,3,9.4-3.3,9.4c-2.7,0-4.5-1.3-6.2-2.9c-2-1.8-1.4-5.3,1-6.1
						C271,71.2,274.7,71,276.7,71.8z"/>
				</g>
				<path class="st4" d="M217.7,106.3c3,0.8,6.2,0.6,9.2-0.5c2.7-1,5.2-2.5,6-5.2C246,75,193.8,100.4,217.7,106.3z"/>
				<path class="st4" d="M223.4,82.8c17.3-0.2,2.6-17.1-5.4-11c-1.3,1-1.9,2.8-1.4,4.4C217.6,79.4,219.8,82.6,223.4,82.8z"/>
			</g>
			<g>
				<g>
					<path d="M235.2,127c8.1,0,16.3,0,24.4,0c3.2,0,3.2-5,0-5c-8.1,0-16.3,0-24.4,0C232,122,232,127,235.2,127L235.2,127z"/>
				</g>
			</g>
		</g>
		<g>
			<g>
				<path d="M110.9,81.2c-2.5,9.5-6,19.3-3.7,28.8c0.5,2.1,1.5,4.3,3.3,5.6c1.4,0.9,3.1,1.1,4.7,1.4c13.2,1.8,26.4,3.5,39.6,5.3
					c1.8,0.2,3.7,0.5,5.3-0.2c2.3-0.9,3.7-3.3,4.8-5.6c11.1-23.4,12-50.2,19.8-74.9c2.5-8,5.1-18.4-1.8-23.2c-2.2-1.5-4.9-2-7.5-2.5
					c-16-2.7-28.4-5.6-44.7-5.8c-2.1,0-4.4,0-6.2,1.1c-2,1.2-3,3.5-3.9,5.7C118.4,23.2,114.9,65.8,110.9,81.2z"/>
				<g>
					<path d="M108.5,80.6c-1.8,6.7-3.9,13.4-4.4,20.3c-0.4,5.5,0.1,13.9,5.6,17.1c2.9,1.7,6.8,1.6,10.1,2.1c3.6,0.5,7.3,1,10.9,1.4
						c7.1,0.9,14.2,1.9,21.3,2.8c3.4,0.5,7,1.3,10.2-0.4c2.5-1.4,4-4.1,5.2-6.6c2.7-5.8,4.9-11.8,6.6-18c3.6-12.4,5.6-25.1,8.3-37.7
						c1.3-6.3,2.8-12.6,4.8-18.7c1.5-4.9,3.1-10,2.9-15.3c-0.2-5.4-2.6-10.3-7.8-12.5c-2.9-1.3-6.2-1.6-9.3-2.1
						c-3.3-0.6-6.6-1.2-9.9-1.8c-6.2-1.1-12.5-2.1-18.8-2.8c-3.3-0.3-6.7-0.6-10-0.7c-3.1-0.1-6.5-0.4-9.5,0.8
						c-6.7,2.7-7.3,11.8-8.2,17.9c-2.4,16.7-3.7,33.5-7,50C109.2,77.7,108.8,79.1,108.5,80.6c-0.8,3.1,4,4.4,4.8,1.3
						c1.8-6.9,2.7-14.1,3.7-21.1c1.2-8.6,2.2-17.2,3.3-25.7c0.1-0.9,0.2-1.8,0.4-2.8c0.1-1,0.2-1.3,0.3-2.2c0.2-1.6,0.5-3.3,0.7-4.9
						c0.3-2.2,0.7-4.5,1.3-6.7c0.4-1.4,1-2.9,1.9-4.1c1.6-2,4.2-1.9,6.5-1.8c6.1,0.1,12.2,0.6,18.3,1.5c6,0.8,12,2,18,3
						c3.1,0.6,6.2,1,9.3,1.6c2.3,0.5,4.7,1.3,6.2,3.1c2.5,3.2,2,8.1,1.2,12c-1.1,5.3-3,10.4-4.4,15.6c-3,11.8-5,23.8-7.6,35.7
						c-1.3,5.9-2.8,11.8-4.6,17.5c-1,2.9-2,5.8-3.2,8.7c-1,2.3-1.9,5-3.5,7c-1.8,2.3-4.6,1.6-7.2,1.3c-3.3-0.4-6.6-0.9-9.9-1.3
						c-6.9-0.9-13.7-1.8-20.6-2.7c-3.2-0.4-6.4-0.6-9.5-1.3c-2.6-0.6-3.6-2.4-4.2-4.8c-1.5-6.1-0.3-12.4,1.2-18.4
						c0.8-3,1.7-6.1,2.5-9.1C114.1,78.8,109.3,77.4,108.5,80.6z"/>
				</g>
			</g>
			<path class="st5" d="M171.8,55.9c-9.9,0.9-15.7-11.1-15.9-19.7c8.1,94-59.3,40.7-15.7,25.1"/>
		</g>
	</g>
</g>
</svg>
