<?xml version="1.0" encoding="utf-8"?>
<!-- Generator: Adobe Illustrator 27.7.0, SVG Export Plug-In . SVG Version: 6.00 Build 0)  -->
<svg version="1.1" id="Layer_1" xmlns="http://www.w3.org/2000/svg" xmlns:xlink="http://www.w3.org/1999/xlink" x="0px" y="0px"
	 viewBox="0 0 1772.9 1061.3" style="enable-background:new 0 0 1772.9 1061.3;" xml:space="preserve">
<style type="text/css">
	.st0{fill:none;stroke:#000000;stroke-width:4.6006;stroke-miterlimit:10;}
	.st1{fill:#00B1DC;stroke:#000000;stroke-width:4.6006;stroke-miterlimit:10;}
	.st2{stroke:#000000;stroke-width:4.6006;stroke-miterlimit:10;}
	.st3{fill:#FFFFFF;stroke:#000000;stroke-width:4.6006;stroke-miterlimit:10;}
	.st4{fill:#A1CF6D;stroke:#000000;stroke-width:4.6006;stroke-miterlimit:10;}
</style>
<g>
	<path class="st0" d="M39.5,569.2c47-70.7,106.8-133.6,175.4-188.6c53.5-45.4,115.1-83.7,179-116.7
		c106.7-56.6,223.4-99.2,340.7-127.7c82.7-32,297.9-63.4,361.4-43c4.2,0.1,8.4,0.1,12.6,0.2c124.4,1.7,373,85,372.1,85.1
		c0,0,0,0,0,0c34.8,9.8,65.7,32.9,94.7,56c-0.4-0.3-0.9-0.5-1.3-0.8c1.9,1.5,3.7,3,5.6,4.6c17,13.3,28.6,23.4,28.6,23.4
		c45.9,39.5,83.7,84.7,115.2,133.7"/>
	<path class="st1" d="M1401.7,939.3c4.9-8.4,2.6-19.4,12.8-25.5c13.2-38.6-0.4-82.1,25.2-117.4c40-34.9,87.1-90.4,66.7-152.1
		c-67.8-107.1,52.7-212.7-45.2-298.3c-16.4-25.2-40.3-46.1-52.5-73.1c-5.6-36.5,24.2-63.7,36.3-94.9c11-2.8,35.7,0.6,35.7,0.6
		c0.2-0.4-263-88.4-384.7-85.3c16,5.1,22.4,13.5,14.7,25.9c0,0,4,8.2-0.3,12.7c-7.5,6.9-18.5,13.5-27.3,19.6
		c-5.7,5.1-4,18.1-13.5,17.8c-3.4-0.4-3.9,1.8-4.5,4.2c-4,10-30.7,29.2-25.8,39.1c0.9,1.8,0.4,4.7-1.9,5.6
		c-11.3,6.5,7.6,22.4-9.7,25.8c-3.9,26.7,18.7,50.9,24.1,76.4c18.8,54.8-48.5,78.2-85.3,91.9c-13.1,7.8-32.5-10.3-43.2-15.8
		c-16.7-8.6-21.9-33-31.2-50.5c-15.7-16.6-27.7-42.2-53.8-41.7c-7.8-4.8-18.4-12.2-27.5-7.7c-51.9,5.2-163-141.7-76.2-160.4
		c-117.3,28.5-234,71.1-340.7,127.7c52.5-27.1,106.6-50.7,159.2-71.7c18.3-1.8,18.9,20.4,22.6,32.8c-1.2,8.9-15,17.4-22.4,23.6
		c-2.8,0.8-1.8,8.5-5.3,11.6c2.4,3.7,5.1-1.6,7.4,0.8c-1.8,7.5-18.4,2-16.1,11.5c-1.7,3.2-9,1.6-9.4,7.7
		c-10.3,23.1-24.8,45.9-37.8,67.5c-23.5,56.6-3.9,128.3-52.4,174.6c-11.6,13-35.2,6.6-43.5,16.7c-56,30.9-137.4,80.9-114.4,157.1
		c9.7,19.9-20.4,33-29,49.2C228,768.6,211,803,176.2,813c-20.1,6.4-25.3-21.5-39.9-28.9c-35.8-39.6,38.8-93.5,4.2-137.4
		c-7.9-19.6-31-37.2-25.5-60.5c22.5-20.6,26.2-55,53.5-71.2c8.6-23.9,32.9-39.4,29.8-66.3c13.9-18.2-1.9-52.4,16.7-68.1
		c-68.6,55-128.4,117.9-175.4,188.6L41,961.3l364.3-4.5c3.9-47.1,0.9-95.1,13.9-140.6c-5-14.6,1.5-28.5,2.6-42.7
		c1.2-13.1,1.8-26.3,6-38.9c15.4-31.7,27.7-65.9,54.3-91.1c23.9-24,57.8-30.3,89.8-29.4c7.8,1,16.7,0.3,23.6,5.8
		c4.8,3.8,13,4.9,18.7,8.5c32.7,13.6,38.1,48.1,51.2,77.1c6.5,15.1-3.3,31.7-0.3,47.8c4.6,16.8,2.7,33.8,2.7,50.9
		c1,33.1-10.5,63.2-16,95.2c-0.8,4,0.3,8.8-4.9,10.8c1,10.8-5,21.6-4.8,32.7c-0.2,5.1-5,8.7-5.4,14h427.1
		c-2.3-38.7,7.1-77.6,21.3-113.4c11.2-36.9,24.8-73,39.9-108.4c0.5-9.1,5-16.7,10.8-22.9c22.8-27.8,56.1-35.9,90.1-42.1
		c21.4-5.6,33.2,10.9,47.4,23.2c8.2,5.1,14.6,11.8,20.2,19.5c32.6,73.8-15,167.7-11.1,244.2h107.3
		C1392.3,950.3,1396.3,944.3,1401.7,939.3z M997.7,716.6c-4.2,17-0.4,43.1-20.3,51.4c-4,13.1-15.8,15.1-28.5,9.8
		c-15.1-4.7-35.9,3-45.1-9.5c-6.2-8.5-18.1,3-27,1.9c-4.4-0.6-13.3,2.1-14.7,2.8c-14.6,7.6-31.8,2.5-37.3-10.8
		c-2-6.6-14.8-0.7-14-11c-4.1-20.7-1.2-43.5,6.6-64.4c3.5-15.6-4.4-34.5,4.6-48.7c11.2-1.6-0.6-8.6,3.2-12.8
		c12.5-4,9.3-26.3,18.7-26c6.8-0.1,9.8-5.5,13.9-9.2c22.6,4.6,52.8,1.5,68.6,25.2c2.4-3.4,4.9-7.3,6.8-0.1
		c0.4,14.7,19.1,18.9,20,30.1c-0.2,2.8,0.3,4.9,3.9,5.8c14.3,2.9,4.5,24.3,19.8,25.7c4.8,3.1,4.7,11.7,12,12.6
		c3.1,1,3.6,2.6,3.6,5.2C990,703.8,1004.3,708.4,997.7,716.6z"/>
	<path class="st1" d="M1574.2,233.7c0.4,0.3,0.9,0.5,1.3,0.8c-29.1-23-59.9-46.2-94.7-56c29.9,8.5,71.6,38.3,99,59.7
		C1577.9,236.8,1576,235.2,1574.2,233.7z"/>
	<path class="st2" d="M1286.8,903.2c1.3-6.3,0.5-12.7,2.1-19.2c6.3-24.9,19.8-101.1,15.7-126.8c0.3-4.9-3.1-9.5-2.6-14.4
		c0.4-5.8-1.2-11.2-2.9-16.6c-1.5-4.6-1.6-9.8-5.4-13.6c-5.5-7.7-11.9-14.5-20.2-19.5c-4.3-2.7-7.9-6.5-11.2-10.4
		c-9.6-11.1-21.6-15.5-36.2-12.8c-7.7,1.4-15.1,4.2-22.9,5.2c-27.4,3.3-49,17.3-67.2,36.9c-5.8,6.2-10.3,13.8-10.8,22.9
		c-6.6,14-11.7,28.7-17.3,43.1c-8.3,21.5-16.2,43.1-22.6,65.2c-5.3,11.9-9.2,24.3-12.2,37c-1.4,6-2.7,12-4.1,18.1
		c-3.9,16.5-6.4,33.2-5.3,50.3c0.5,2.7,0.5,5.3,0.2,8.1c0,0,0,0,0,0h49.3c5.7-3.2,12.8-3.1,19.4-3.7c4-0.3,7.3,1,10.3,3.5
		c0.1,0,0.1,0.1,0.2,0.1h139.5C1282.1,938.8,1283,920.9,1286.8,903.2z M1233.5,834.3c-2.4-1.4-4.2-3.4-5.5-5.8
		c-5.3-9.6-11.3-18.8-15.1-29.1c-2.2-6.1-6.9-10.8-8.3-17.6c-0.8-4.1-2.1-8.1-2.5-12.4c-1.2-15.1-1.4-30.4,3.3-44.6
		c3.4-10.2,6.4-22.4,17.4-27.7c7-3.4,13.8-8.3,22.8-7.6c8.2,0.6,14.8,3.9,21,8.7c14.3,11.2,21,26.7,24.1,44
		c1.5,7.9,2.5,15.9,3.7,23.9c-0.1,13.6-0.9,27.2-3.4,40.6c-1.9,3.9-1.9,8.3-3.8,12.2C1277.9,837.8,1249.1,843,1233.5,834.3z"/>
	<path class="st3" d="M1132.5,953.1c-6.6,0.6-13.7,0.5-19.4,3.7h29.9c-0.1,0-0.1-0.1-0.2-0.1
		C1139.8,954.1,1136.5,952.8,1132.5,953.1z"/>
	<path class="st3" d="M1291,806.6c2.5-13.4,3.4-27,3.4-40.6c-1.2-8-2.2-16-3.7-23.9c-3.2-17.3-9.8-32.8-24.1-44
		c-6.1-4.8-12.7-8.1-21-8.7c-9-0.7-15.7,4.2-22.8,7.6c-11,5.3-14,17.5-17.4,27.7c-4.7,14.2-4.5,29.6-3.3,44.6
		c0.3,4.3,1.7,8.3,2.5,12.4c1.3,6.8,6,11.5,8.3,17.6c3.8,10.3,9.8,19.5,15.1,29.1c1.3,2.4,3.1,4.4,5.5,5.8
		c15.6,8.8,44.4,3.5,53.7-15.4C1289.1,814.9,1289.1,810.5,1291,806.6z"/>
	<path class="st2" d="M642.2,942.8c-1.1-10.8,6.8-20.4,4.3-31.4c-0.1-0.6-0.1-1,0.5-1.3c5.2-2,4.1-6.8,4.9-10.8
		c1.6-8.4,2.6-17,5.1-25.1c6.8-22.9,10.8-45.8,10.9-70c0.1-17.1,1.9-34.1-2.7-50.9c-1.6-5.7,0.6-11,0.5-16.3
		c-0.1-5,0.4-9.6,1.4-14.4c1.3-5.8,1.4-11.9-1.6-17.1c-5.7-9.9-8.7-20.9-12.2-31.6c-6.8-20.8-19.8-35.8-39.1-45.5
		c-5.5-2.8-11.4-4.8-17-7.2c-1,0.2-1.5-0.4-1.7-1.2c-6.9-5.5-15.9-4.9-23.6-5.8c-11-1.3-22.5,0.7-33.6,2.5
		c-21.2,3.5-40.2,10.6-56.2,27c-14.4,14.7-26.4,30.1-34,49c-2.8,6-5.6,12-8.3,18c-0.4,0.7-1,1.3-1.1,2.1c0.2,0.6,0,1-0.6,1.2
		c-5.9,5.7-6.2,14.2-10.3,20.9c-4.2,12.6-4.8,25.8-6,38.9c-1.1,14.2-7.5,28.1-2.6,42.7c0.5,1.3-0.3,3.2-0.7,4.7
		c-5.8,21.4-10.6,42.9-9.1,65.2c0.1,2.1-0.1,4.3-0.2,6.5c-1.1,21.4-2.9,42.8-3.8,64.2h231.5c0.4-1.7,0.9-3.3,1.5-5
		C639.3,948.6,642.5,946.4,642.2,942.8z M617.9,771.2c-19.4,7.9-35.9,0.8-53-7.4c-24.8-11.8-38-33.4-50.2-56.1
		c-6.2-11.7-4.8-24-2.1-36.2c1.8-8.4,8.3-13.1,16.2-16.2c9.5-3.7,18.8-7.9,28-12.2c23.9-11.2,60.7,6.7,69.9,31.4
		c3.3,9,7.8,17.6,10.5,26.8c1.9,6.5,2.6,13.2,2.4,19.9c0.6,14.2-4.4,27-10.1,39.5C627.3,765.7,623.5,768.9,617.9,771.2z"/>
	<path class="st3" d="M639.6,721.3c0.2-6.7-0.5-13.4-2.4-19.9c-2.7-9.3-7.2-17.9-10.5-26.8c-9.1-24.7-45.9-42.5-69.9-31.4
		c-9.2,4.3-18.5,8.5-28,12.2c-7.9,3.1-14.3,7.8-16.2,16.2c-2.6,12.1-4.1,24.5,2.1,36.2c12.2,22.8,25.4,44.3,50.2,56.1
		c17.1,8.1,33.6,15.3,53,7.4c5.5-2.3,9.3-5.5,11.5-10.3C635.2,748.4,640.2,735.5,639.6,721.3z"/>
	<path class="st4" d="M992.6,694.5c0-2.6-0.5-4.2-3.6-5.2c-7.3-0.9-7.2-9.6-12-12.6c-15.3-1.4-5.5-22.8-19.8-25.7
		c-3.6-0.9-4.1-3-3.9-5.8c-0.9-11.2-19.6-15.4-20-30.1c-1.9-7.2-4.4-3.3-6.8,0.1c-15.8-23.6-46.1-20.6-68.6-25.2
		c-4.2,3.8-7.1,9.1-13.9,9.2c-9.4-0.3-6.2,22.1-18.7,26c-3.8,4.2,8,11.2-3.2,12.8c-9,14.2-1.1,33.1-4.6,48.7
		c-7.9,20.9-10.7,43.7-6.6,64.4c-0.8,10.3,12,4.5,14,11c5.6,13.3,22.8,18.5,37.3,10.8c1.4-0.7,10.4-3.3,14.7-2.8
		c8.8,1.1,20.7-10.4,27-1.9c9.2,12.5,30.1,4.7,45.1,9.5c12.6,5.3,24.4,3.4,28.5-9.8c19.8-8.4,16.1-34.5,20.3-51.4
		C1004.3,708.4,990,703.8,992.6,694.5z"/>
	<path class="st4" d="M1608.3,261.7c0,0-11.6-10.1-28.6-23.4c-27.5-21.5-69.1-51.2-99-59.7c0,0,0,0,0,0l0,0c0,0-24.7-3.4-35.7-0.6
		c-12,31.3-41.8,58.4-36.3,94.9c12.2,27,36.1,47.8,52.5,73.1c97.9,85.6-22.6,191.2,45.2,298.3c20.4,61.7-26.7,117.2-66.7,152.1
		c-25.7,35.3-12,78.8-25.2,117.4c-10.2,6.2-7.9,17.2-12.8,25.5c-5.4,5-9.3,11-11.9,17.5h333.7V395.4
		C1692,346.3,1654.3,301.2,1608.3,261.7z"/>
	<path class="st4" d="M702.4,156.5c-6.6,47.4,55.2,140.7,108.4,140.1c9.2-4.5,19.7,2.9,27.5,7.7c26.1-0.5,38.1,25.1,53.8,41.7
		c9.3,17.5,14.5,41.8,31.2,50.5c10.7,5.5,30.1,23.5,43.2,15.8c0,0,41.3-17.9,46.3-18.5c26.8-10.1,50.6-44.5,39-73.4
		c-5.4-25.5-28-49.7-24.1-76.4c17.3-3.5-1.7-19.3,9.7-25.8c2.4-0.9,2.8-3.8,1.9-5.6c-3.8-8.1,5.5-9,5.9-16.1
		c7-7.4,15-14.1,19.9-23.1c0.6-2.4,1.1-4.6,4.5-4.2c9.4,0.3,7.8-12.7,13.5-17.8c8.8-6.1,19.8-12.7,27.3-19.6
		c4.3-4.5,0.3-12.7,0.3-12.7c7.6-12.4,1.2-20.8-14.7-25.9c-63.6-20.4-278.8,11-361.4,43C716.7,143.1,705,150.1,702.4,156.5z"/>
	<path class="st4" d="M198.2,448.7c3.2,26.9-21.2,42.4-29.8,66.3c-27.3,16.2-31,50.6-53.5,71.2c-5.4,23.3,17.7,40.9,25.5,60.5
		c34.6,43.9-40,97.8-4.2,137.4c14.6,7.4,19.9,35.3,39.9,28.9c34.8-10,51.8-44.4,76.7-67.8c8.5-16.3,38.7-29.3,29-49.2
		c-18.3-57.1,29.4-108.2,76.5-133.4c9.7-11.3,27.9-15.7,37.9-23.7c8.3-10.1,31.9-3.7,43.5-16.7c48.4-46.3,28.8-118,52.4-174.6
		c12.9-21.6,27.5-44.4,37.8-67.5c0.4-6.1,7.7-4.5,9.4-7.7c-1.5-6.3,4.2-4.9,7-6.5c3-1.7,7.8-0.1,9.1-5c-2.3-2.4-4.9,2.9-7.4-0.8
		c3.5-3.2,2.5-10.8,5.3-11.6c7.4-6.1,21.2-14.7,22.4-23.6c-3.7-12.4-4.3-34.6-22.6-32.8c-52.6,21-106.7,44.6-159.2,71.7
		c-63.9,33-125.5,71.3-179,116.7c0,0,0,0,0,0C196.3,396.4,212.1,430.5,198.2,448.7z"/>
</g>
</svg>
