<?xml version="1.0" encoding="utf-8"?>
<!-- Generator: Adobe Illustrator 27.7.0, SVG Export Plug-In . SVG Version: 6.00 Build 0)  -->
<svg version="1.1" id="Layer_1" xmlns="http://www.w3.org/2000/svg" xmlns:xlink="http://www.w3.org/1999/xlink" x="0px" y="0px"
	 viewBox="0 0 922.2 393.5" style="enable-background:new 0 0 922.2 393.5;" xml:space="preserve">
<style type="text/css">
	.st0{fill:#C77161;}
	.st1{stroke:#000000;stroke-width:4.206;stroke-miterlimit:10;}
	.st2{stroke:#000000;stroke-width:0.9921;stroke-miterlimit:10;}
</style>
<g>
	<g>
		<path class="st0" d="M905.8,41.9c4.4,1.3,9.7-3.3,13.9-8.1c-5.1-5.7-8.1-13.2-8.4-20.9c-0.6,1.3-3.6-1.1-4.9-0.6
			c-10-9.9-25.9-11.8-39.6-8.3c-13.7,3.5-25.7,11.5-37.4,19.2c-2.3,1.5-4.7,3.1-7.4,3.9c-3.8,1.1-5.8,4-9.7,3.8
			c-11.9-0.8-50,5-56,6.6c-18.9,5.1-91,46.9-128.3,90.4c-5.3,6.2-5.1,17.2-1.3,24.5l17.6,33.8c7.7,1.2,18.1-5.1,17.7-7.2
			c-0.2-1.1-3.7-0.3-6.5-1.7c-9.8-5.1-14-40.5,5.6-52.3c12.7-7.6,30.5-2.4,39.7,6.8c9,9,11,23.3,11,23.3l146-84.1
			c0,0-10.5-11.5-11.5-24.2c-0.8-9.4,2.5-24.2,15.3-31.2c9.5-5.2,22.6-5.2,30.4,1.3C901.9,25.2,898.8,39.9,905.8,41.9z"/>
		<g>
			<path d="M905.2,44.3c6.5,1.6,12.4-4.3,16.3-8.7c0.9-1.1,0.9-2.5,0-3.5c-4.7-5.3-7.4-12.1-7.6-19.1c-0.1-2.5-3.3-3.4-4.7-1.3
				c0.6-0.3,1.2-0.5,1.8-0.8c-0.1,0-0.2,0-0.3-0.1c-0.1-0.1-0.4-0.1-0.6-0.2c-0.5-0.2-0.9-0.3-1.3-0.5c-1-0.3-2-0.5-3-0.2
				c0.8,0.2,1.6,0.4,2.4,0.6c-8.5-8.2-20.6-11.3-32.2-10.5C863,1.1,851,6.9,839.9,13.6c-2.9,1.8-5.8,3.7-8.7,5.6
				c-2.7,1.8-5.4,3.9-8.5,5.2c-1.5,0.6-3,1-4.4,1.8c-1.2,0.6-2.3,1.5-3.6,2c-1.6,0.6-3.3,0.3-5,0.3c-8.2,0-16.5,1.1-24.6,2.1
				c-8.2,1-16.5,2.2-24.6,3.7c-4.7,0.9-8.9,2.3-13.3,4.1c-15.7,6.7-30.5,15.7-44.8,24.9c-19.1,12.3-37.5,25.8-54.4,41
				c-4.1,3.7-8.2,7.5-12.1,11.5c-3.7,3.8-7.7,7.6-10.8,11.9c-5.4,7.6-4.4,18.7-0.3,26.6c5.5,10.6,11,21.1,16.5,31.7
				c0.3,0.5,0.5,1,0.8,1.5c1.1,1.8,3.8,1.6,5.7,1.4c4.9-0.4,9.9-2.3,13.8-5.2c1.4-1,2.9-2.4,3-4.3c0.1-3.2-3.3-3.2-5.6-3.5
				c-0.9-0.1-1.8-0.3-2.5-0.8c-0.1-0.1-0.8-0.6-0.3-0.2c-0.2-0.2-0.4-0.4-0.7-0.6c-0.2-0.2-0.4-0.5-0.6-0.7
				c-0.5-0.5,0.1,0.1-0.3-0.4c-0.4-0.6-0.8-1.2-1.1-1.8c-0.8-1.5-1.1-2.3-1.7-4c-0.5-1.7-1-3.5-1.3-5.3c-0.6-3.6-0.7-7.8-0.4-11.7
				c0.7-7.8,3.6-15.9,9.8-21.1c8-6.8,20-6.3,29.2-2.2c4.8,2.1,9.2,5.2,12.5,9.4c3,3.9,5.1,8.4,6.5,13.1c0.7,2.1,1.3,4.3,1.6,6.6
				c0.2,1.6,2.4,2.2,3.7,1.5c4.9-2.8,9.7-5.6,14.6-8.4c11.6-6.7,23.2-13.4,34.8-20c14.1-8.1,28.1-16.2,42.2-24.3
				c12.2-7,24.3-14,36.5-21c5.9-3.4,11.9-6.6,17.7-10.2c0.1-0.1,0.2-0.1,0.3-0.1c1.4-0.8,1.6-2.8,0.5-3.9c-1.5-1.6-2.2-2.7-3.5-4.5
				c-2.5-3.6-4.6-7.5-6-11.7c-2.4-7.3-1.8-15.6,1.3-22.6c3.7-8.4,10.9-14.1,19.9-15.7c8.8-1.6,18.7,0.8,23.2,9.1
				c2,3.7,2.8,7.9,4,11.9C899.7,39.6,901.3,43.1,905.2,44.3c3.1,1,4.4-3.9,1.3-4.8c-0.6-0.2-0.7-0.2-1-0.6c-0.1-0.1-0.6-0.7-0.4-0.4
				c-0.2-0.3-0.4-0.7-0.6-1.1c-0.6-1.2-1.1-2.9-1.5-4.5c-1.1-4.2-2.2-8.4-4.4-12.1c-5.3-9-16.1-12.4-26-11.1
				c-10.3,1.3-19.4,7-24.3,16.2c-4,7.5-5.5,16.7-3.8,25c1.7,8,6.2,16,11.7,22c0.2-1.3,0.3-2.6,0.5-3.9c-4.9,2.8-9.7,5.6-14.6,8.4
				c-11.6,6.7-23.2,13.4-34.8,20c-14.1,8.1-28.1,16.2-42.2,24.3c-12.2,7-24.3,14-36.5,21c-4,2.3-8,4.6-12,6.9
				c-1.9,1.1-3.9,2.1-5.7,3.3c-0.1,0.1-0.2,0.1-0.3,0.1c1.2,0.5,2.4,1,3.7,1.5c-1.2-8.2-4.8-16.6-10.2-22.8
				c-7.6-8.9-20.6-13.9-32.1-12.7c-10.7,1.1-19.4,7.7-23.6,17.5c-3.6,8.4-4.3,18-2.7,27c0.7,4,2,8.2,4.2,11.6c1,1.5,2.1,2.8,3.6,3.9
				c1.1,0.7,2.3,1.2,3.6,1.5c0.9,0.2,1.8,0.3,2.7,0.4c0.2,0,0.5,0.1,0.7,0.1c0.3,0,0,0.1-0.2-0.2c-0.2-0.4-0.4-0.7-0.6-1.1
				c-0.2-0.5,0.1-0.8,0.2-1.1c-0.1,0.1-0.4,0.5,0,0.1c-0.2,0.3-0.9,0.9-0.9,0.9c-1.2,1-2.6,1.7-4,2.3c-2.9,1.4-6.6,2.5-9.8,2
				c0.5,0.4,1,0.8,1.5,1.1c-3.5-6.7-7-13.3-10.4-20c-2-3.8-4-7.6-6-11.5c-1.9-3.5-3.3-7.1-3.6-11.2c-0.2-3.6,0.2-7.4,1.9-10.6
				c1.7-3.1,4.5-5.7,6.9-8.2c5.3-5.6,10.8-11,16.6-16.1c12-10.7,24.7-20.5,37.9-29.7c11.9-8.3,24.1-16.1,36.7-23.2
				c5-2.8,10.1-5.6,15.3-8.2c2.1-1,4.2-2,6.4-3c0.5-0.2,0.9-0.4,1.4-0.6c0.2-0.1,0.5-0.2,0.7-0.3c-0.4,0.2,0.1-0.1,0.3-0.1
				c0.9-0.3,1.7-0.7,2.6-1c2.7-1,5.5-1.7,8.4-2.2c5.3-1,10.7-1.8,16-2.6c6.3-0.9,12.7-1.7,19.1-2.3c5-0.5,10.1-1,15.2-0.8
				c1.9,0.1,3.6-0.2,5.3-1c1.7-0.7,3.1-1.9,4.8-2.6c2.3-1,4.5-1.7,6.7-3c2-1.2,3.9-2.6,5.9-3.8c7.8-5.1,15.9-10.3,24.6-13.8
				c7.9-3.2,16.3-4.9,24.9-4.2c3.9,0.3,7.8,1.2,11.5,2.8c3.6,1.5,6.5,3.7,9.4,6.2c0.6,0.6,1.3,0.7,2.1,0.7c0.7,0-0.3-0.2,0.2,0
				c0.6,0.3,1.3,0.5,1.9,0.7c1.7,0.5,3.5,0.3,4.5-1.3c-1.6-0.4-3.1-0.8-4.7-1.3c0.3,8.4,3.5,16.3,9.1,22.6c0-1.2,0-2.4,0-3.5
				c-1.8,2-3.7,4.1-6,5.6c-1.5,1.1-3.5,2.3-5.5,1.8C903.4,38.7,902,43.6,905.2,44.3z"/>
		</g>
	</g>
	<g>
		<path d="M808.1,43.2c-28.5,14.6-62.8,33.4-92,46.7c-11.4,5.2-22.9,10.3-34.9,13.8c10.5-16.5,28.1-26.9,45-36.8
			c12.1-7,24.2-14,37.3-18.8C768.2,46.4,793.2,41.9,808.1,43.2z"/>
	</g>
	<path class="st1" d="M889.7,55.3c-8.2,8.8-24.3,8-32.1-1.3c-11.9-18.3,12.3-43.3,29.4-29C896,31.8,896.1,47.1,889.7,55.3z"/>
	<path class="st1" d="M700.6,160.5c-3.6,13.5-20.4,21.6-33.5,16.4c-22.2-12.2-11.4-51,14-45.8C693.9,133,702.6,148.6,700.6,160.5z"
		/>
</g>
<g>
	<path class="st2" d="M34.7,322c0.3,1.8-0.5,3.3-0.6,5.2c-0.3,5.2,5.8,15.3,9,20.1c1.2-2.5,2.9-5.7,4.4-8.3c1.2-2.2,2.3-3.9,2.9-4.2
		c1.8-0.7,3.8-0.7,5.2,0c1.6,0.9,2.3,2.8,0.8,5.8c-2.6,5.3-4.7,9.3-7,14.8c5.6,7.7,19.6,22.1,26.7,26c2.1,1.2,2.8,1.3,3.6,1.7
		c2.6,1.5,4,3.5,2,6.9c-2,3.7-6.1,3.2-8,2.1c-3.2-1.8-20.5-16.2-29.3-26.5c-0.8,1.7-1.5,3.6-2.2,4.9c-1.2,2.2-3,3.8-6.3,2
		c-4.6-2.6,0.9-12.2,2.2-15.1c-3.9-5.8-8.6-14.1-11.3-20.7c-5.6,10.8-10.4,21.8-15,33.1c-0.8,2-1.3,3-1.6,3.6
		c-1.4,2.5-5.1,3.3-7.8,1.8c-1-0.6-1.9-1.6-1.8-3.1c0.2-4.7,9.7-24.5,17.8-39.1c4.9-8.8,9.3-15.6,10.7-16c0,0,1.5-0.1,2.8,0.6
		C33.1,318.5,34.3,319.4,34.7,322z"/>
	<path class="st2" d="M106.5,284.2c-2.4,2.1-4.5,4-6.6,6c-1.2,1.2-2.3,2.5-3.4,3.8c6.1,8,19.2,24.7,20.5,25.9c2,0.6,3.8,1.7,5.1,3
		c2.1,2,2.8,4.6,0.5,7c-2.7,2.7-7.4,4.2-10.6,1c-1.1-1.1-1.9-2.4-2.5-3.5c-0.4-0.9-9.9-12.9-19.4-25.3
		c-8.2,10.9-13.8,20.6-17.4,24.3c-2,2.1-5.9,2.9-8.3,0.6c-0.7-0.7-1.1-1.6-1-2.8c1.3-16.6-0.8-22-6.8-39.1
		c-1.1-3.3-3.6-9.6-3.9-12.9c-0.1-1.3,0.3-2.4,1-3.1c1.9-2,6.4-1.6,8.9,0.8c0.8,0.8,1.5,1.8,1.6,3c2.4,13.5,8,22.7,8.4,36.8
		c4.2-5.8,7-10.4,11.3-15.5c-7.8-10.2-13.9-18.5-13.9-18.5c-2-2.6-3.6-6.2-1.5-8.4c2.2-2.2,6.9-1.9,8.8,0.1c0.8,0.8,2.8,3.7,3.9,5.6
		c2.9,4.9,6.4,9.3,9.8,13.8c2.9-2.8,6.1-5.6,9.5-7.8c2.6-1.8,4.7-1.5,5.8-0.4C107.9,280.2,108,282.6,106.5,284.2z"/>
	<path class="st2" d="M163.2,271.1c-0.5,0.3-1.1,0.5-1.4,0.7c-2.1,1.3-3.6,2.8-4.8,4c1,2.3,3.6,7.8,5.7,11.1c0.6,1,1.2,1.8,1.6,2.3
		c0.2,0.2,0.4,0.4,0.6,0.7c0.6,1,0.2,1.9-0.5,2.3c-1,0.6-2.7,0.5-3.8-1.3c-1-1.6-2.4-3.9-4.3-8c-1.1-2.3-1.5-3.3-2-4.4
		c-1.6,1.7-1.7,2.3-2.7,4.4c-0.1,0.3-0.3,0.6-0.6,0.8c-0.8,0.5-2.3,0.4-2.9-0.6c-0.3-0.5-0.4-1.1-0.1-1.7c0.6-1.6,3.6-5.2,4.8-6.4
		c-0.4-1-2.4-5.8-3.4-7.5c-0.2-0.4-0.6-0.9-0.9-1.4c-0.6-1-1-2.1,0.2-2.8c1.3-0.8,2.7,0.5,3.8,2.4c1.4,2.3,2.6,5.6,3.1,6.7
		c1.3-1.1,2.4-1.9,3.7-2.7c0.5-0.3,1-0.6,1.7-0.9c1.5-0.7,2.7-0.5,3.1,0.2C164.3,269.6,164.1,270.5,163.2,271.1z"/>
	<path class="st2" d="M177.9,282.6c-0.4,0.5-0.8,0.8-1.3,1.1c-4.9,2.7-11.1-8.3-13.1-11.9l-0.3-0.5c-0.7-1.2-0.3-2.2,0.5-2.6
		c0.9-0.5,2.3-0.3,3,1c0.3,0.5,0.5,1.1,0.9,1.7c2.1,3.8,5.7,9.5,7,8.8c0.1-0.1,0.2-0.2,0.3-0.5c0.7-2.6-2.9-10-3.4-11
		c-0.7-1.4-0.3-2.4,0.5-2.8c0.9-0.5,2.4-0.2,3.1,1C176.1,268.5,179.9,280.3,177.9,282.6z"/>
	<path class="st2" d="M192.7,258.1c-0.6,0.3-1.1,0.1-1.7,0.4c-0.2,0.1-0.4,0.3-0.6,0.6c-1.6,2.4-2.9,6.9-3.6,12.3
		c-0.4,2.6,1.6,5.2,1.3,6.4c-0.1,0.7-0.5,1.1-1,1.3c-1.1,0.5-2.4,0.3-3-0.9c-0.2-0.4-0.4-0.9-0.5-1.4c-0.6-2.2-1.5-4.8-2.6-7.2
		c-1-2.1-2.3-4.1-3.8-5.6c-0.1-0.1-0.2-0.2-0.3-0.4c-0.4-0.8,0.2-1.9,1.2-2.3c2.1-1,3.6,1.6,4.5,3.5c0.6,1.3,1,2,1.5,2.9
		c0.5-2.4,2.1-8.2,3.7-10.4c0.6-0.8,1.3-1.5,2.2-2c1.3-0.6,3-1,3.8,0.6C194.1,256.7,193.6,257.7,192.7,258.1z"/>
	<path class="st2" d="M214,259.1c-0.4,0.6-0.9,1.5-1.2,2.2c-1.6,2.8-4.6,7.6-8,9.1c-3.7,1.6-8.5-1.5-10-5.2
		c-2.3-5.5,2.2-12.1,7.6-14.4c1.5-0.6,3.1-1,4.5-0.8c0.3,0.1,0.5,0.1,0.6,0.3c0.5,1.2-0.6,5.6-3.4,8.5c-2.9,3-4.7,3.6-6.1,4.5
		l0.2,0.5c0.8,2,3.4,4.2,5.7,3.3c2.8-1.2,6.5-8.1,6.8-8.9c0.1-0.9,0.2-2.1,1.1-2.5c0.8-0.3,2.1,0.1,2.5,1
		C214.7,257.4,214.4,258.4,214,259.1z M203.5,254c0,0,0-0.1-0.2,0c-0.5,0.2-1.7,0.8-3.1,2.3c-1.3,1.4-2.1,3.3-2.1,3.3
		s2.3-1.5,3.4-2.6c1.2-1.3,1.7-2.3,2-2.8C203.4,254.1,203.5,254,203.5,254z"/>
	<path class="st2" d="M228.4,244.1c-0.6,0.2-1.1,0-1.7,0.2c-0.2,0.1-0.4,0.3-0.7,0.5c-1.9,2.2-3.6,6.6-4.8,11.9
		c-0.6,2.5,1,5.4,0.7,6.5c-0.2,0.6-0.6,1-1.1,1.2c-1.2,0.4-2.4,0.1-2.9-1.2c-0.1-0.4-0.3-0.9-0.4-1.5c-0.4-2.3-1-5-1.9-7.5
		c-0.8-2.2-1.9-4.3-3.2-5.9c-0.1-0.1-0.2-0.3-0.3-0.4c-0.3-0.8,0.4-1.8,1.4-2.2c2.2-0.8,3.4,2,4.1,4c0.5,1.4,0.8,2.1,1.2,3.1
		c0.8-2.3,2.9-7.9,4.7-10c0.6-0.8,1.4-1.4,2.4-1.7c1.3-0.5,3.1-0.7,3.7,1C229.9,242.9,229.3,243.8,228.4,244.1z"/>
	<path class="st2" d="M268.3,243c0.3,1.2,1.1,1.8,1.3,2.7c0.3,1.1-0.3,2.3-1.3,2.6c-1.9,0.5-2.7-2.2-3.1-3.7c-0.7-2.3-1-5.2-2-8.7
		l-0.3-0.9c-0.3-0.9-0.5-2.1-0.5-3.1c-0.7,0.2-1.4,0.2-1.7,0.3c-2.4,0.7-4.2,1.7-5.7,2.5c0.3,2.5,1.3,8.5,2.4,12.2
		c0.3,1.1,0.6,2.1,0.9,2.6c0.2,0.3,0.3,0.5,0.4,0.8c0.3,1.1-0.3,1.9-1.1,2.1c-1.1,0.3-2.7-0.3-3.3-2.3c-0.5-1.9-1.2-4.5-1.9-8.8
		c-0.4-2.5-0.5-3.5-0.7-4.8c-2.1,1.2-2.3,1.8-3.8,3.5c-0.2,0.2-0.5,0.5-0.8,0.6c-1,0.3-2.3-0.3-2.6-1.3c-0.2-0.6,0-1.2,0.4-1.7
		c1-1.4,4.9-4,6.4-4.9c-0.1-1-0.7-6.3-1.2-8.1c-0.1-0.4-0.3-1-0.5-1.5c-0.3-1.1-0.4-2.3,1-2.7c1.5-0.4,2.4,1.2,3,3.4
		c0.7,2.6,0.9,6.1,1.1,7.3c1.5-0.7,2.8-1.2,4.3-1.6c0.6-0.2,1.2-0.3,1.8-0.4c1.6-0.2,2.6,0.3,2.9,1c1.1-0.2,2.3,0.5,2.6,1.8
		C266.6,233.2,267.7,240.9,268.3,243z M262.6,219.5c-0.1,1.6-0.6,2.1-0.3,3.8c0.2,0.9-0.4,1.8-1.2,2c-0.9,0.3-1.6-0.5-1.8-1.4
		c-0.4-1.4-0.1-3.6,0-4.8c0.2-1.3,0.7-1.9,1.3-2.1c0.8-0.2,1.7,0.4,1.9,1.1C262.6,218.5,262.6,218.9,262.6,219.5z"/>
	<path class="st2" d="M274.8,217.8c1,7.8,1.6,16,3.5,23.7c0.3,1.1,0.8,2.7,1,3.6c0.4,1.5,0.2,3.4-1,3.7c-0.4,0.1-0.9,0-1.6-0.3
		c-0.4-0.2-0.8-1.4-1.2-3.2c-1.5-5.9-3-18.1-3.4-20.3c-0.5-2.8-0.9-5.1-1.2-6.8c-0.3-2-0.4-3.2-0.2-3.5c0.2-0.4,0.7-0.9,1.3-1
		c1.3-0.3,2.1,0.6,2.5,2C274.6,216.3,274.7,217,274.8,217.8z"/>
	<path class="st2" d="M322.9,235.5c-0.6,0.1-1.2,0-1.7-0.6c-0.5-0.5-0.8-1.8-1.1-3.3c-0.5-2.5-0.9-5.7-1.3-8
		c-0.3-1.5-0.8-3.2-1.3-3.1c-1.1,0.2-3.3,14.8-3.4,16.3c-0.1,1.8-0.5,2.6-1.2,2.7c-2.2,0.4-2.7-2.2-2.9-3.1
		c-0.5-2.4-2.1-10.3-2.9-12.2c-0.1-0.3-0.2-0.4-0.4-0.4c-0.4,0.1-0.6,1.7-1.1,3.8c-0.6,2.5-1.4,7.4-0.8,10.5
		c0.1,0.4,0.3,0.8,0.4,1.4c0.2,1-0.9,1.6-1.8,1.8c-1.7,0.3-2.1-0.4-2.4-2.1c-0.6-2.8-0.8-7.9-1.4-11.1c-0.2-0.8-0.5-1.6-0.6-2.5
		c-0.2-1.2,0.2-2.2,1.4-2.5c1-0.2,2.2,0.3,2.5,1.4c0.7-2.1,2-5.5,3.2-5.7c1-0.2,2.4,0.6,3,1.3c0.6,0.7,1.5,3.2,2.7,8.2
		c1.1-3.9,3-11.2,5.6-11.7c1.4-0.3,3.4,1.4,3.8,2.3c0.5,1.1,1.3,4.2,1.8,7.1c0.4,1.8,0.6,3.6,1,5.4c0.1,0.6,0.7,1.2,0.8,1.9
		C324.9,234.7,323.9,235.3,322.9,235.5z"/>
	<path class="st2" d="M339,233.2c-0.2,0.3-0.5,0.5-0.8,0.6c-0.7,0.1-1.5-0.2-1.8-0.8c-1,0.8-2.9,2.3-4.8,2.6c-2.2,0.4-4.1-1-4.5-3.2
		c-0.6-3.3,1.9-7.8,4.9-8.3c1.3-0.2,2.7,0.3,4,2c0-0.6,0-1.3-0.2-2c-0.3-1.8-1.8-5.9-4.5-5.4c-1.2,0.2-2.3,1.2-2.3,1.5
		c0,0.5-0.4,0.8-0.9,0.9c-0.9,0.2-1.9-0.3-2.1-1.3c-0.4-2,2.4-3.9,5-4.4c4.6-0.8,7.5,3.9,8.2,8C340.1,227.7,339.3,232.4,339,233.2z
		 M335.7,209c-1.3,2.1-2.6,3.3-4.2,3.6c-1.9,0.3-3.2-0.6-3.6-2.6c-0.5-2.9,0.8-6.5,4.1-7.1c1.8-0.3,4.3,0.2,4.7,2.3
		C336.9,206.2,336.7,207.5,335.7,209z M332.5,227.5c-1.4,0.3-2.6,2.7-2.3,4.2c0.1,0.6,0.5,0.8,0.9,0.7c1.2-0.2,3-1.9,3.6-2.6
		C334.3,229,333.2,227.4,332.5,227.5z M333,206.3c-0.6,0.1-1.3,0.4-1.7,0.9c-0.4,0.5-0.6,1.3-0.5,1.9c0,0.1,0.1,0.3,0.3,0.2
		c0.7-0.1,2.8-2.3,2.7-2.8C333.7,206.2,333.3,206.2,333,206.3z"/>
	<path class="st2" d="M357.1,232.7c-1.2,0.2-2.8-0.6-3-2c0-0.3,0-0.5,0-0.8c-0.3-1.9-1.1-3.9-1.6-6.7c-0.2-1.4-0.4-2.9-0.7-4.3
		c-0.2-1.3-0.5-2.5-0.6-2.5c-2.6,4.7-3.1,15.6-4.1,16.2c-0.5,0.4-1,0.5-1.3,0.6c-1.4,0.2-1.9-1-2.1-2.4c-0.1-0.4-0.2-1.2-0.2-1.6
		c-0.3-5.4-1.3-9.4-1.5-14.3c0-1.2,0.5-1.6,1.3-1.8c0.8-0.1,1.7,0.2,2.1,0.6c0.3,0.2,0.4,0.7,0.5,1.2c0.2,1.4,0.1,3.5,0.4,5.3
		c1.2-3.2,2.9-8.3,4.9-8.7c2.4-0.4,3.8,4.1,4.9,10.9c0.8,4.7,1,5.9,1.1,6.2c0.5,0.6,1,1.4,1.2,2.2
		C358.7,231.8,358.1,232.6,357.1,232.7z"/>
	<path class="st2" d="M378.9,220.3c-0.6,0.5-1.2,1.3-1.7,1.8c-2.2,2.3-6.2,6.3-9.9,6.9c-4,0.6-7.8-3.5-8.5-7.5
		c-0.9-5.9,5-11.3,10.8-12.2c1.6-0.3,3.3-0.2,4.6,0.3c0.3,0.1,0.5,0.2,0.5,0.4c0.2,1.3-1.9,5.3-5.3,7.4c-3.5,2.2-5.4,2.4-7,2.9
		l0.1,0.6c0.3,2.1,2.3,4.9,4.8,4.5c3-0.5,8.3-6.3,8.7-7c0.3-0.9,0.7-2,1.7-2.1c0.9-0.1,2,0.6,2.2,1.6
		C380,218.8,379.5,219.8,378.9,220.3z M369.9,212.8c0,0,0-0.1-0.2-0.1c-0.5,0.1-1.9,0.4-3.5,1.5c-1.6,1-2.8,2.7-2.8,2.7
		s2.6-0.9,3.9-1.7c1.4-1,2.3-1.9,2.6-2.3C369.9,212.9,369.9,212.8,369.9,212.8z"/>
	<path class="st2" d="M395.5,226.7c-1.2,0.2-2.8-0.7-3-2.1c0-0.3,0-0.5,0-0.8c-0.3-1.9-1-3.9-1.5-6.7c-0.2-1.4-0.4-2.9-0.6-4.3
		c-0.2-1.3-0.4-2.5-0.6-2.5c-2.6,4.6-3.3,15.5-4.3,16.1c-0.5,0.4-1,0.5-1.3,0.6c-1.4,0.2-1.8-1-2.1-2.4c-0.1-0.4-0.2-1.2-0.2-1.6
		c-0.3-5.4-1.2-9.4-1.3-14.3c0-1.2,0.6-1.6,1.3-1.7c0.8-0.1,1.7,0.2,2.1,0.6c0.3,0.2,0.4,0.7,0.5,1.2c0.2,1.4,0.1,3.5,0.4,5.3
		c1.3-3.2,3.1-8.3,5.1-8.6c2.4-0.4,3.7,4.2,4.8,10.9c0.7,4.7,0.9,6,1.1,6.3c0.5,0.6,1,1.4,1.2,2.2
		C397.1,225.8,396.5,226.5,395.5,226.7z"/>
	<path class="st2" d="M421.1,220.7c-3.3,0.5-5.8-3.1-6.3-6.2c-0.2-1.2-0.2-2.5,0.2-3.8c1.5-5.8,3.7-8.5,6.3-9.1l0.2,0
		c3.9-0.6,7.1,2.9,7.7,6.9C430.2,214.8,425,220,421.1,220.7z M422.9,205.1c-2.8,0.4-5,6.2-4.6,8.8c0.2,1.1,1.1,3.5,2.8,3.2
		c1.6-0.2,3.7-2.5,4.2-4.2c0.5-1.5,0.7-2.9,0.5-4.3C425.6,207.4,424.6,204.8,422.9,205.1z"/>
	<path class="st2" d="M460.7,218.4c-0.9,0.2-1.9,0-2.5-0.9c-3.3,0.5-5.4,1.1-7.5,1.7c0.5,1,0.9,2.1,1,3.2c1.3,7.9-3.4,19-11.1,20.3
		c-4.3,0.7-9.6-1.8-10.4-6.8c-0.4-2.3,0.1-4.9,1.8-7.6c4-6.3,7.7-8.4,13.2-10.7c-1.7-1.4-3.8-1.7-5.8-1.4c-1.4,0.2-2.7,0.7-3.9,1.4
		c-0.7,0.4-1.4,1-2.2,1.1c-0.8,0.1-2.1-0.4-2.3-1.4c-0.1-0.8,0.5-1.8,1.4-2.3c-0.3-0.6-0.5-1.2-0.6-1.8c-0.5-3.1,1.6-5.8,3.2-8.5
		c-0.8-0.5-1.1-1-1.2-1.5c-0.1-0.8,0.5-1.5,1.4-1.7c0.7-0.1,1.2,0.4,2,0.3c1-0.2,2.8-0.8,4.8-1.4c1-0.3,3.9-1.3,5.7-1.5
		c0.9-0.2,2.6,0,2.8,1.2c0.1,0.7-0.5,1.5-2,1.8c-0.2,0-0.5,0-0.8,0.1c-1.6,0.3-3,0.9-4.5,1.4c1.3,1,2,2.1,2.2,3.2
		c0.3,2-0.8,4.2-2.6,6.2c2.4,0.6,4,1.7,5.7,3.4c1.2-0.3,3.8-1,6.4-1.5c1.5-0.3,7.7-1.2,8.1,1.3C463.4,217.2,462.1,218.2,460.7,218.4
		z M447.3,220.5c-1.8,0.7-8.5,3.5-12,9.6c-1.2,2.2-1.7,3.9-1.4,5.3c0.4,2.6,3.7,4.4,6.3,3.9c5.2-0.9,9.2-9.6,8.1-16
		C448.1,222.3,447.8,221.4,447.3,220.5z M439.3,205.1c-1.2,1.5-2,2.8-2.6,3.9c-0.6,1.2-1.1,2.5-0.9,3.8c0,0.3,0.1,0.6,0.2,0.9
		c2.1-0.9,6.5-3.7,6.1-6.2C441.7,205.6,439.9,205.2,439.3,205.1z"/>
	<path class="st2" d="M493.9,202.3c0.2,1.2,0.9,1.9,1.1,2.8c0.2,1.1-0.5,2.3-1.5,2.5c-1.9,0.4-2.5-2.4-2.8-3.9
		c-0.5-2.4-0.6-5.2-1.3-8.8l-0.2-0.9c-0.2-0.9-0.4-2.1-0.2-3.1c-0.8,0.1-1.4,0.1-1.7,0.2c-2.4,0.5-4.3,1.3-5.9,2
		c0.1,2.5,0.6,8.6,1.4,12.4c0.2,1.1,0.5,2.1,0.7,2.7c0.1,0.3,0.2,0.5,0.3,0.8c0.2,1.1-0.4,1.8-1.3,2c-1.1,0.2-2.7-0.5-3.1-2.5
		c-0.4-1.9-0.9-4.6-1.2-9c-0.2-2.5-0.2-3.6-0.3-4.9c-2.1,1-2.4,1.6-4.1,3.2c-0.2,0.2-0.5,0.5-0.9,0.5c-1,0.2-2.3-0.5-2.5-1.5
		c-0.1-0.6,0.1-1.2,0.5-1.7c1.1-1.3,5.3-3.6,6.8-4.3c0-1-0.2-6.3-0.6-8.2c-0.1-0.4-0.2-1-0.3-1.6c-0.2-1.1-0.2-2.3,1.2-2.6
		c1.5-0.3,2.3,1.4,2.8,3.6c0.5,2.7,0.4,6.1,0.5,7.4c1.6-0.6,2.9-1,4.4-1.3c0.6-0.1,1.2-0.2,1.9-0.3c1.6-0.1,2.6,0.5,2.8,1.2
		c1.1-0.2,2.2,0.7,2.4,2C493,192.3,493.4,200.1,493.9,202.3z M490,178.4c-0.2,1.6-0.7,2.1-0.6,3.7c0.1,0.9-0.6,1.7-1.3,1.9
		c-0.9,0.2-1.5-0.6-1.7-1.5c-0.3-1.5,0.2-3.6,0.4-4.8c0.3-1.3,0.9-1.9,1.5-2c0.8-0.2,1.7,0.5,1.8,1.3
		C490.2,177.4,490.1,177.8,490,178.4z"/>
	<path class="st2" d="M502.4,177.2c0.7,7.8,0.9,16.1,2.5,23.8c0.2,1.1,0.7,2.8,0.8,3.7c0.3,1.5,0,3.4-1.2,3.6
		c-0.4,0.1-0.9,0-1.6-0.3c-0.4-0.2-0.7-1.4-1.1-3.2c-1.2-5.9-2.2-18.2-2.5-20.5c-0.3-2.8-0.7-5.1-0.9-6.8c-0.2-2-0.2-3.2,0-3.5
		c0.2-0.4,0.7-0.8,1.3-1c1.3-0.3,2.1,0.7,2.4,2.1C502.2,175.7,502.3,176.3,502.4,177.2z"/>
	<path class="st2" d="M518.4,200.7c-0.5,0.7-1.4,1.8-1.8,2.6c-0.3,0.7-0.8,1-1.2,1.1c-0.9,0.2-1.9-0.4-2.2-1.5
		c-0.5,0-1.2-0.1-1.6-0.6c-0.1-0.1-0.4-1.2-0.7-2.8c-0.6-2.6-1.3-6.8-1.6-9.9c-0.5-0.3-0.8-0.7-0.9-1.2c-0.2-0.7,0.2-1.6,0.9-2.2
		c0-1.2,0.1-5.6-0.5-8.7c-0.1-0.6-0.6-1.1-0.8-1.9c-0.2-1.1,0.3-1.9,1-2c1.1-0.2,2.8,0.7,3.4,3.5c0.5,2.6,0.2,5.2,0.3,7.8
		c2.1-0.4,7.7-1,10.5,2.8c0.3,0.4,0.4,0.7,0.5,1.2C524.3,192.3,520.2,198.1,518.4,200.7z M513.5,188.3l-0.8,0.2c0,2.5,0.3,5,0.8,7.5
		c0.3,1.4,0.7,2.8,1.1,4.2c1.7-2.1,5.8-7.5,5.3-10.2C519.5,187.6,515.3,187.9,513.5,188.3z"/>
	<path class="st2" d="M538.6,197.8c-0.2,0.3-0.4,0.5-0.8,0.6c-0.7,0.1-1.5-0.1-1.9-0.7c-0.9,0.9-2.8,2.4-4.7,2.8
		c-2.2,0.5-4.1-0.8-4.6-3c-0.7-3.3,1.5-7.9,4.5-8.6c1.3-0.3,2.7,0.2,4.1,1.8c0-0.6-0.1-1.3-0.3-2c-0.4-1.8-2.1-5.8-4.7-5.2
		c-1.2,0.3-2.2,1.3-2.2,1.6c0.1,0.5-0.3,0.9-0.8,1c-0.9,0.2-1.9-0.2-2.2-1.2c-0.4-2,2.2-4.1,4.8-4.6c4.6-1,7.6,3.5,8.6,7.7
		C539.4,192.3,538.9,197,538.6,197.8z M531.9,192.4c-1.4,0.4-2.4,2.9-2.1,4.3c0.1,0.6,0.5,0.8,1,0.7c1.1-0.3,2.9-2,3.5-2.8
		C533.8,193.8,532.6,192.3,531.9,192.4z"/>
	<path class="st2" d="M569.2,189.3c-0.4,0.2-0.8,0.7-1.5,1.1c-1.1,0.7-2.3,1.2-3.5,1.5c-5.6,1.4-12.4-1.1-17.1-3.3
		c0.1,1.3,0.3,2.7,0.7,4.1c0.2,1,0.5,1.9,1,2.8c0.3,0.6,0.6,1.1,0.7,1.7c0.2,1-0.1,1.8-1.8,2.3c-1.3,0.3-2.5-2.4-3.4-6.2
		c-2.2-8.9-3.1-24.4-1.6-25.6c0.3-0.2,0.6-0.3,0.8-0.4c1.2-0.3,2.3,0.6,2.5,1.7c0.1,0.2,0.1,0.4-0.1,1.8c-0.4,2.9-0.1,7.4,0.2,10.4
		c2.7-1.6,12.2-7.2,14.2-7.7c0.8-0.2,1.6,0,1.9,1c0.2,0.6,0,1.3-0.4,1.8c-0.4,0.5-4,2.1-4.7,2.5c-2.4,1.2-5.7,3.1-9.6,6
		c1.5,0.9,5.2,2.7,10.8,3.8c2.4,0.4,4.2,0.3,5.5,0c2.4-0.6,3.3-2,3.3-2.1c0.2-0.8,0.7-1.2,1.3-1.3c1-0.2,2.3,0.4,2.5,1.4
		C571,187.3,570.6,188.3,569.2,189.3z"/>
	<path class="st2" d="M586.8,179.2c-0.5,0.5-1.1,1.4-1.5,2c-2,2.5-5.5,6.9-9.2,7.9c-3.9,1.1-8.2-2.7-9.2-6.5
		c-1.6-5.8,3.8-11.7,9.5-13.3c1.6-0.4,3.3-0.5,4.6-0.2c0.3,0.1,0.5,0.2,0.6,0.4c0.4,1.3-1.4,5.5-4.5,7.9c-3.3,2.6-5.1,2.9-6.7,3.6
		l0.2,0.6c0.6,2.1,2.8,4.6,5.2,4c2.9-0.8,7.6-7.2,7.9-7.9c0.2-0.9,0.5-2,1.4-2.3c0.9-0.2,2.1,0.4,2.3,1.4
		C587.7,177.6,587.3,178.5,586.8,179.2z M577.1,172.6c0,0,0-0.1-0.2,0c-0.5,0.1-1.8,0.6-3.4,1.9c-1.5,1.2-2.5,3-2.5,3
		s2.5-1.1,3.7-2.1c1.3-1.1,2-2.1,2.3-2.5C577.1,172.7,577.1,172.7,577.1,172.6z"/>
</g>
</svg>
