<?xml version="1.0" encoding="utf-8"?>
<!-- Generator: Adobe Illustrator 27.7.0, SVG Export Plug-In . SVG Version: 6.00 Build 0)  -->
<svg version="1.1" id="Layer_1" xmlns="http://www.w3.org/2000/svg" xmlns:xlink="http://www.w3.org/1999/xlink" x="0px" y="0px"
	 viewBox="0 0 468.8 608.7" style="enable-background:new 0 0 468.8 608.7;" xml:space="preserve">
<style type="text/css">
	.st0{fill:#816C5D;stroke:#000000;stroke-width:4.6017;stroke-miterlimit:10;}
	.st1{fill:#F5EC43;stroke:#000000;stroke-width:4.6017;stroke-miterlimit:10;}
	.st2{fill:#A1CF6D;stroke:#000000;stroke-width:4.602;stroke-miterlimit:10;}
	.st3{stroke:#000000;stroke-width:4.6017;stroke-miterlimit:10;}
	.st4{fill:#FFFFFF;}
	.st5{fill:none;stroke:#FFFFFF;stroke-width:4.6017;stroke-miterlimit:10;}
</style>
<g>
	<g>
		<g>
			<path d="M309.3,460.3c5.6,12.7,16.1,22,25,32.2c2.2,2.5,4.3,5.1,6.2,7.8c0.9,1.3,2.1,2.6,1.7,4.3c-0.5,2-1.4,3.8-2.1,5.7
				c-2.9,7.7-5.5,15.6-7.8,23.5c-2.6,9-4.8,18.1-6.6,27.3c-0.3,1.3,0.4,2.7,1.7,3.1c1.2,0.3,2.8-0.4,3.1-1.7
				c3.3-16.6,7.9-32.9,13.7-48.8c0.7-2,1.5-4,2.3-6c0.8-2,1.3-4,0.6-6.1c-0.6-1.8-1.9-3.3-2.9-4.9c-1-1.4-2.1-2.9-3.3-4.2
				c-4.4-5.5-9.4-10.5-14.1-15.7c-5.2-5.8-9.9-11.9-13.1-19c-0.5-1.2-2.4-1.5-3.4-0.9C308.9,457.7,308.7,459.1,309.3,460.3
				L309.3,460.3z"/>
		</g>
	</g>
	<g>
		<path class="st0" d="M42.7,342.9c-11.7-1.8-10.8-21.5,0.6-23.2c6.4-0.2,12.6,6.6,12.1,13C54.5,338.1,48.6,344.1,42.7,342.9z"/>
		<g>
			<path d="M219.7,586c-7.2-10.4-22.4-17.2-35.3-21.2c-8.6-2.7-17.9-3.6-27-2.6c-6.7,0.7-9.4,8.1-4.5,12.3c7,6,15.6,10.6,24.8,13.2
				C191.3,591.4,206.4,590.8,219.7,586z"/>
		</g>
		<g>
			<path d="M328.1,562.3c17.9-3.1,35.3-11.1,53.5-9.1c2.8,0.3,5.7,0.9,7.6,2.6c3.2,2.7,2.7,7.5,0,10.6c-2.7,3.1-7,4.8-11.3,5.9
				C360.9,577,342.6,571.1,328.1,562.3z"/>
		</g>
		<path class="st1" d="M199.9,402.5c0,17.1-0.6,43.7-0.6,60.9c0,1.3,0,2.7,0.9,3.6c0.8,1,2.2,1.2,3.5,1.4c22.5,3,45.2,4.8,67.9,5.6
			c0.3-12.6-1.4-25.2-5.1-37.2c8.2,7.6,14.8,17,19.1,27.3c18.3-3.5,36.7-6.9,55-10.4c-3.9-20.9-7.8-41.7-11.7-62.6
			c-0.5-2.6-1.2-12.8-3.5-14.2c-2-1.2-4.5-0.8-6.8-0.4C276,384.4,241.5,389.8,199.9,402.5z"/>
		<g>
			<g>
				<path d="M56.2,333.2c20.3-0.3,40.6,1.8,60.5,6.2c5.6,1.2,11.1,2.7,16.6,4.3c1.1,0.3,2.2-0.2,2.8-1.1c5.6-9,14-16.4,23.8-20.5
					c1.2-0.5,2.1-1.7,1.7-3.1c-0.3-1.2-1.8-2.3-3.1-1.7c-11.1,4.6-20.5,12.5-26.8,22.8c0.9-0.4,1.9-0.8,2.8-1.1
					c-19.8-5.8-40.4-9.3-61-10.3c-5.8-0.3-11.6-0.4-17.4-0.3C53,328.3,52.9,333.3,56.2,333.2L56.2,333.2z"/>
			</g>
		</g>
		<path class="st2" d="M149.3,307.2c1.4,12.5,6.2,24.6,13.7,34.6c9-8.6,18.1-17.2,27.1-25.8c1.5,31.1,2.9,62.3,4.4,93.4
			c44.9-15.2,91.8-24.6,139.1-27.9c-7.9-29.1-15.7-58.1-23.6-87.2c-0.8-2.9-1.6-5.8-1-8.8c0.5-2.7,2.1-5.1,3.6-7.4
			c11.7-17.1,24.4-33.5,37.9-49.1c-7.5-9.9-15.5-19.4-23.9-28.5c-18.8,16-37.6,31.9-56.4,47.9c-2.6,2.2-5.3,4.5-8.6,5.7
			c-3.5,1.3-7.3,1.2-11,1.1c-15.2-0.5-30.4-1-45.7-1.4c-2.4-0.1-4.8-0.1-7.1,0.7c-2.5,1-4.4,3-6.2,4.9
			C178,274.2,163.1,292.3,149.3,307.2z"/>
		<g>
			<g>
				<path d="M338.8,214.5c2.4-1.7,4.9-3.5,7.3-5.2c2.1-1.5,4.6-2.9,6.2-4.9c1.7-2.2,1.8-4.9,1.7-7.6c-0.1-2.8-0.2-5.5-0.2-8.3
					c0-11.1,1.1-22.2,3.2-33c1.2-6.2,2.7-12.4,4.6-18.4c0.9-3.1-3.9-4.4-4.8-1.3c-3.2,10.4-5.4,21-6.6,31.7
					c-0.6,5.3-1,10.7-1.2,16.1c-0.1,2.8-0.1,5.5-0.1,8.3c0,2.5,0.5,5.3,0.2,7.8c-0.3,2.4-3,3.7-4.8,4.9c-2.6,1.9-5.3,3.7-7.9,5.6
					c-1.1,0.8-1.6,2.2-0.9,3.4C336,214.7,337.6,215.3,338.8,214.5L338.8,214.5z"/>
			</g>
		</g>
		<g>
			<g>
				<path d="M227,473.4c-3.1,29-5.8,58-8,87c-0.6,8.2-1.2,16.4-1.8,24.6c-0.1,1.3,1.2,2.5,2.5,2.5c1.4,0,2.4-1.1,2.5-2.5
					c2-29.1,4.4-58.1,7.3-87.1c0.8-8.2,1.7-16.4,2.5-24.5c0.1-1.3-1.3-2.5-2.5-2.5C228.1,470.9,227.2,472.1,227,473.4L227,473.4z"/>
			</g>
		</g>
		<g>
			<g>
				<g>
					<g>
						<path class="st0" d="M274.4,118.5c58.9,30.6,18.4,133.1-45.1,121.7c-34.4-10.7-54.8-57.4-40.6-90.3
							C203.5,122.8,245.6,101.9,274.4,118.5z"/>
						<path class="st3" d="M219.3,153.7c-20.6,0.9-21.6,38.7-4.3,44.3C243.3,204.8,243.5,154.9,219.3,153.7z"/>
						<path class="st4" d="M229.2,170.9"/>
					</g>
					<path d="M271.8,151.9c-26.9-1-29.5,51.2,1.1,46.5c0.9-0.1,1.7-0.2,2.6-0.3c20.1-2.6,15.2-34.2,1.5-44.4
						C275.4,152.5,273.6,151.9,271.8,151.9z"/>
					<path class="st4" d="M268.4,195.5c-8.1,0.5-11.3-8.7-9.2-10.8c6.1-6.1,14-10.7,22.6-7.6c0,0,1.9,0.5,2.1,2.7
						C284.4,188.4,282.8,194.6,268.4,195.5z"/>
					<path class="st4" d="M273.1,155.9c10.1,4.4,3.5,9.2-2.7,9.6c-2.7,0.2-4.5-1-6.4-2.5c-2.1-1.6-1.7-5.2,0.6-6.2
						C267.4,155.7,271.1,155.3,273.1,155.9z"/>
				</g>
				<path class="st4" d="M216.3,194c3.1,0.6,6.2,0.2,9.1-1.1c2.6-1.1,5.1-2.8,5.7-5.6C242.7,161,192.2,189.6,216.3,194z"/>
				<path class="st4" d="M220.6,170.2c17.2-1.3,1.5-17.2-6.1-10.7c-1.3,1.1-1.7,2.9-1.1,4.5C214.6,167.2,217,170.2,220.6,170.2z"/>
			</g>
			<g>
				<g>
					<path d="M234.9,213.6c8.1-0.5,16.2-1,24.4-1.5c3.2-0.2,3.2-5.2,0-5c-8.1,0.5-16.2,1-24.4,1.5
						C231.7,208.8,231.7,213.8,234.9,213.6L234.9,213.6z"/>
				</g>
			</g>
		</g>
		<g>
			<g>
				<path d="M342.8,93.1c-5.7,7.9-12.6,15.8-13.8,25.5c-0.3,2.2-0.2,4.6,1.1,6.4c0.9,1.3,2.4,2.2,3.9,3
					c11.7,6.4,23.4,12.8,35.1,19.2c1.6,0.9,3.3,1.8,5.1,1.7c2.5,0,4.7-1.8,6.5-3.5c18.8-17.8,29.3-42.5,45.5-62.7
					c5.2-6.5,11.4-15.3,6.7-22.3c-1.5-2.2-3.8-3.6-6.1-5c-14-8.3-24.5-15.5-39.6-21.6c-2-0.8-4.1-1.6-6.1-1.2
					c-2.3,0.4-4.1,2.2-5.7,3.9C370.8,41.7,352.2,80.2,342.8,93.1z"/>
				<g>
					<path d="M340.7,91.8c-3.5,4.9-7.4,9.6-10.2,14.9c-1.4,2.7-2.6,5.5-3.3,8.4c-0.7,2.9-1.2,6.2-0.2,9.1c1.2,3.3,4.1,4.9,7,6.5
						c3.2,1.8,6.4,3.5,9.6,5.3c6.4,3.5,12.9,7,19.3,10.6c2.9,1.6,6,3.8,9.3,4.5c3.4,0.7,6.4-0.8,8.9-2.9c4.6-3.9,8.6-8.6,12.2-13.3
						c7.6-9.7,13.9-20.2,20.5-30.5c3.3-5.1,6.6-10.2,10.3-15.2c3.5-4.8,7.7-9.2,10.4-14.6c2.7-5.4,3.6-11.6-0.5-16.6
						c-1.9-2.4-4.7-3.9-7.3-5.5c-2.8-1.7-5.6-3.4-8.4-5.1c-5.3-3.2-10.5-6.4-16-9.3c-2.8-1.5-5.6-2.9-8.5-4.2
						c-3-1.4-6.2-3.1-9.5-3.7c-8.4-1.6-12.8,7.1-16.2,13.1c-8.4,14.8-15.7,30.2-24.8,44.5C342.4,89.3,341.6,90.6,340.7,91.8
						c-0.8,1.1-0.2,2.8,0.9,3.4c1.3,0.7,2.6,0.2,3.4-0.9c4.3-5.9,7.8-12.4,11.3-18.8c4.1-7.5,8.1-15.1,12.2-22.6
						c1.7-3.1,3.3-6.1,5.1-9.1c0.6-1.1,1.3-2.2,2-3.3c0.3-0.4,0.5-0.8,0.8-1.2c0.1-0.2,0.2-0.3,0.4-0.5c0.2-0.3,0.4-0.5,0-0.1
						c1.3-1.4,2.6-3.2,4.5-3.6c1.3-0.3,2.7,0.2,3.9,0.6c1.5,0.5,3,1.2,4.5,1.8c5.5,2.4,10.8,5.2,16,8.1c5.1,2.9,10,6,15,9
						c2.6,1.6,5.3,3,7.7,4.8c1.8,1.4,3.2,3.3,3.5,5.6c0.5,5.1-3.3,10.1-6.2,14c-3.4,4.6-7,9-10.2,13.7c-6.5,9.6-12.4,19.6-18.9,29.2
						c-3.2,4.7-6.5,9.2-10.2,13.5c-1.9,2.2-3.8,4.3-5.9,6.4c-1.6,1.6-3.7,4.2-6.1,4.5c-1.2,0.2-2.4-0.4-3.5-1
						c-1.6-0.8-3.1-1.7-4.7-2.6c-3-1.6-6-3.3-9-4.9c-6.1-3.3-12.1-6.6-18.2-10c-1.4-0.8-2.9-1.6-4.3-2.4c-1.1-0.6-2.4-1.3-3-2.5
						c-1-2.2-0.3-5.1,0.3-7.3c1.5-5.4,4.6-10.1,7.8-14.6c1.6-2.3,3.4-4.5,5-6.8c0.8-1.1,0.2-2.8-0.9-3.4
						C342.8,90.2,341.5,90.7,340.7,91.8z"/>
				</g>
			</g>
			<path class="st5" d="M409.6,91.5c-9.4-3-10.1-16.3-7-24.3c-29.1,89.7-70.5,14.4-24.2,17"/>
		</g>
	</g>
</g>
</svg>
