<?xml version="1.0" encoding="utf-8"?>
<!-- Generator: Adobe Illustrator 27.7.0, SVG Export Plug-In . SVG Version: 6.00 Build 0)  -->
<svg version="1.1" id="Layer_1" xmlns="http://www.w3.org/2000/svg" xmlns:xlink="http://www.w3.org/1999/xlink" x="0px" y="0px"
	 viewBox="0 0 681 283.4" style="enable-background:new 0 0 681 283.4;" xml:space="preserve">
<style type="text/css">
	.st0{fill:#FFFFFF;}
</style>
<g>
	<g>
		<path class="st0" d="M425.8,147.8v-17.1h2v17.1H425.8z"/>
		<path class="st0" d="M441,147.8v-8.3c0-1-0.2-1.8-0.7-2.3s-1.2-0.8-2.2-0.8c-1.3,0-2.3,0.4-3,1.1s-0.9,1.9-0.9,3.6v6.7h-1.9V135
			h1.6l0.3,1.8h0.1c0.4-0.6,1-1.1,1.7-1.5s1.5-0.5,2.4-0.5c1.5,0,2.7,0.4,3.5,1.1s1.2,1.9,1.2,3.6v8.4H441z"/>
		<path class="st0" d="M455.2,144.3c0,1.2-0.4,2.1-1.3,2.8s-2.1,1-3.8,1c-1.7,0-3-0.3-4-0.8v-1.8c0.6,0.3,1.3,0.6,2,0.7
			s1.4,0.3,2,0.3c1,0,1.8-0.2,2.3-0.5s0.8-0.8,0.8-1.5c0-0.5-0.2-0.9-0.7-1.3s-1.3-0.8-2.5-1.3c-1.2-0.4-2-0.8-2.5-1.2
			s-0.9-0.7-1.1-1.1s-0.4-0.9-0.4-1.5c0-1,0.4-1.9,1.3-2.5s2-0.9,3.5-0.9c1.4,0,2.7,0.3,4.1,0.8l-0.7,1.6c-1.3-0.5-2.5-0.8-3.5-0.8
			c-0.9,0-1.6,0.1-2.1,0.4s-0.7,0.7-0.7,1.2c0,0.3,0.1,0.6,0.3,0.9s0.5,0.5,0.8,0.7s1.1,0.5,2.2,0.9c1.5,0.6,2.6,1.1,3.1,1.7
			S455.2,143.5,455.2,144.3z"/>
		<path class="st0" d="M462.5,146.5c0.3,0,0.7,0,1-0.1c0.3-0.1,0.6-0.1,0.8-0.2v1.5c-0.2,0.1-0.5,0.2-0.9,0.3s-0.8,0.1-1.1,0.1
			c-2.5,0-3.7-1.3-3.7-3.9v-7.6h-1.8v-0.9l1.8-0.8l0.8-2.7h1.1v3h3.7v1.5h-3.7v7.6c0,0.8,0.2,1.4,0.6,1.8
			C461.4,146.3,461.9,146.5,462.5,146.5z"/>
		<path class="st0" d="M466.7,131.5c0-0.4,0.1-0.8,0.3-1c0.2-0.2,0.5-0.3,0.8-0.3c0.3,0,0.6,0.1,0.8,0.3c0.2,0.2,0.3,0.5,0.3,1
			s-0.1,0.8-0.3,1c-0.2,0.2-0.5,0.3-0.8,0.3c-0.3,0-0.6-0.1-0.8-0.3C466.8,132.3,466.7,131.9,466.7,131.5z M468.8,147.8h-1.9V135
			h1.9V147.8z"/>
		<path class="st0" d="M477.1,146.5c0.3,0,0.7,0,1-0.1c0.3-0.1,0.6-0.1,0.8-0.2v1.5c-0.2,0.1-0.5,0.2-0.9,0.3s-0.8,0.1-1.1,0.1
			c-2.5,0-3.7-1.3-3.7-3.9v-7.6h-1.8v-0.9l1.8-0.8l0.8-2.7h1.1v3h3.7v1.5H475v7.6c0,0.8,0.2,1.4,0.6,1.8
			C475.9,146.3,476.4,146.5,477.1,146.5z"/>
		<path class="st0" d="M483.2,135v8.3c0,1,0.2,1.8,0.7,2.3c0.5,0.5,1.2,0.8,2.2,0.8c1.3,0,2.3-0.4,2.9-1.1s0.9-1.9,0.9-3.6V135h1.9
			v12.8h-1.6l-0.3-1.7H490c-0.4,0.6-1,1.1-1.7,1.5c-0.7,0.3-1.5,0.5-2.4,0.5c-1.6,0-2.7-0.4-3.5-1.1c-0.8-0.7-1.2-1.9-1.2-3.6V135
			H483.2z"/>
		<path class="st0" d="M500.3,146.5c0.3,0,0.7,0,1-0.1c0.3-0.1,0.6-0.1,0.8-0.2v1.5c-0.2,0.1-0.5,0.2-0.9,0.3s-0.8,0.1-1.1,0.1
			c-2.5,0-3.7-1.3-3.7-3.9v-7.6h-1.8v-0.9l1.8-0.8l0.8-2.7h1.1v3h3.7v1.5h-3.7v7.6c0,0.8,0.2,1.4,0.6,1.8
			C499.1,146.3,499.6,146.5,500.3,146.5z"/>
		<path class="st0" d="M508.7,146.5c0.3,0,0.7,0,1-0.1c0.3-0.1,0.6-0.1,0.8-0.2v1.5c-0.2,0.1-0.5,0.2-0.9,0.3s-0.8,0.1-1.1,0.1
			c-2.5,0-3.7-1.3-3.7-3.9v-7.6h-1.8v-0.9l1.8-0.8l0.8-2.7h1.1v3h3.7v1.5h-3.7v7.6c0,0.8,0.2,1.4,0.6,1.8
			C507.6,146.3,508.1,146.5,508.7,146.5z"/>
		<path class="st0" d="M525.1,136.5h-3.3v11.3h-1.9v-11.3h-2.3v-0.9l2.3-0.7v-0.7c0-3.2,1.4-4.7,4.1-4.7c0.7,0,1.5,0.1,2.4,0.4
			l-0.5,1.6c-0.8-0.2-1.4-0.4-1.9-0.4c-0.7,0-1.3,0.2-1.6,0.7s-0.5,1.3-0.5,2.3v0.8h3.3V136.5z"/>
		<path class="st0" d="M538.5,141.4c0,2.1-0.5,3.7-1.6,4.9s-2.5,1.8-4.4,1.8c-1.1,0-2.2-0.3-3.1-0.8s-1.6-1.3-2.1-2.3
			c-0.5-1-0.7-2.2-0.7-3.5c0-2.1,0.5-3.7,1.6-4.9c1-1.2,2.5-1.8,4.4-1.8c1.8,0,3.2,0.6,4.3,1.8C538,137.7,538.5,139.4,538.5,141.4z
			 M528.7,141.4c0,1.6,0.3,2.9,1,3.8s1.6,1.3,2.9,1.3c1.3,0,2.2-0.4,2.9-1.3c0.7-0.9,1-2.1,1-3.8c0-1.6-0.3-2.9-1-3.7
			c-0.7-0.8-1.6-1.3-2.9-1.3c-1.3,0-2.2,0.4-2.9,1.3C529.1,138.5,528.7,139.7,528.7,141.4z"/>
		<path class="st0" d="M547.8,134.8c0.6,0,1.1,0,1.5,0.1l-0.3,1.8c-0.5-0.1-1-0.2-1.4-0.2c-1,0-1.9,0.4-2.7,1.3s-1.1,1.9-1.1,3.2
			v6.9h-1.9V135h1.6l0.2,2.4h0.1c0.5-0.8,1-1.5,1.7-1.9C546.2,135,547,134.8,547.8,134.8z"/>
		<path class="st0" d="M566.7,146.1h-0.1c-0.9,1.3-2.2,2-4,2c-1.7,0-3-0.6-3.9-1.7c-0.9-1.1-1.4-2.8-1.4-4.9s0.5-3.8,1.4-4.9
			s2.2-1.8,3.9-1.8c1.7,0,3.1,0.6,4,1.9h0.2l-0.1-0.9l0-0.9v-5.2h1.9v18.2H567L566.7,146.1z M562.8,146.4c1.3,0,2.3-0.4,2.9-1.1
			s0.9-1.9,0.9-3.5v-0.4c0-1.8-0.3-3.1-0.9-3.9c-0.6-0.8-1.6-1.2-2.9-1.2c-1.1,0-2,0.4-2.6,1.3c-0.6,0.9-0.9,2.1-0.9,3.8
			c0,1.6,0.3,2.9,0.9,3.7C560.8,146,561.6,146.4,562.8,146.4z"/>
		<path class="st0" d="M578.1,148.1c-1.9,0-3.4-0.6-4.5-1.7c-1.1-1.2-1.6-2.8-1.6-4.8c0-2.1,0.5-3.7,1.5-4.9s2.4-1.8,4.1-1.8
			c1.6,0,2.9,0.5,3.8,1.6s1.4,2.5,1.4,4.2v1.2H574c0,1.5,0.4,2.7,1.1,3.4c0.7,0.8,1.7,1.2,3.1,1.2c1.4,0,2.7-0.3,4.1-0.9v1.7
			c-0.7,0.3-1.3,0.5-2,0.6C579.7,148,579,148.1,578.1,148.1z M577.6,136.4c-1,0-1.9,0.3-2.5,1c-0.6,0.7-1,1.6-1.1,2.8h6.7
			c0-1.2-0.3-2.2-0.8-2.8C579.4,136.7,578.6,136.4,577.6,136.4z"/>
		<path class="st0" d="M594.4,144.3c0,1.2-0.4,2.1-1.3,2.8s-2.1,1-3.8,1c-1.7,0-3-0.3-4-0.8v-1.8c0.6,0.3,1.3,0.6,2,0.7
			c0.7,0.2,1.4,0.3,2,0.3c1,0,1.8-0.2,2.3-0.5c0.5-0.3,0.8-0.8,0.8-1.5c0-0.5-0.2-0.9-0.7-1.3s-1.3-0.8-2.5-1.3
			c-1.2-0.4-2-0.8-2.5-1.2s-0.9-0.7-1.1-1.1s-0.4-0.9-0.4-1.5c0-1,0.4-1.9,1.3-2.5c0.9-0.6,2-0.9,3.5-0.9c1.4,0,2.7,0.3,4.1,0.8
			l-0.7,1.6c-1.3-0.5-2.5-0.8-3.5-0.8c-0.9,0-1.6,0.1-2.1,0.4s-0.7,0.7-0.7,1.2c0,0.3,0.1,0.6,0.3,0.9s0.5,0.5,0.8,0.7
			c0.4,0.2,1.1,0.5,2.2,0.9c1.5,0.6,2.6,1.1,3.1,1.7C594.1,142.8,594.4,143.5,594.4,144.3z"/>
		<path class="st0" d="M597.4,131.5c0-0.4,0.1-0.8,0.3-1c0.2-0.2,0.5-0.3,0.8-0.3c0.3,0,0.6,0.1,0.8,0.3c0.2,0.2,0.3,0.5,0.3,1
			s-0.1,0.8-0.3,1c-0.2,0.2-0.5,0.3-0.8,0.3c-0.3,0-0.6-0.1-0.8-0.3C597.5,132.3,597.4,131.9,597.4,131.5z M599.5,147.8h-1.9V135
			h1.9V147.8z"/>
		<path class="st0" d="M614.2,135v1.2l-2.4,0.3c0.2,0.3,0.4,0.6,0.6,1.1c0.2,0.4,0.3,0.9,0.3,1.5c0,1.3-0.4,2.3-1.3,3
			c-0.9,0.8-2,1.1-3.5,1.1c-0.4,0-0.7,0-1.1-0.1c-0.8,0.4-1.2,1-1.2,1.7c0,0.4,0.1,0.6,0.4,0.8c0.3,0.2,0.8,0.3,1.5,0.3h2.3
			c1.4,0,2.5,0.3,3.2,0.9c0.7,0.6,1.1,1.4,1.1,2.6c0,1.4-0.6,2.5-1.7,3.3c-1.1,0.7-2.8,1.1-5,1.1c-1.7,0-3-0.3-3.9-0.9
			c-0.9-0.6-1.4-1.5-1.4-2.6c0-0.8,0.2-1.5,0.8-2c0.5-0.6,1.2-1,2.1-1.2c-0.3-0.1-0.6-0.4-0.8-0.7s-0.3-0.7-0.3-1.1
			c0-0.5,0.1-0.9,0.4-1.2c0.2-0.4,0.6-0.7,1.2-1c-0.7-0.3-1.2-0.7-1.6-1.4c-0.4-0.7-0.6-1.4-0.6-2.2c0-1.4,0.4-2.5,1.3-3.3
			s2-1.1,3.6-1.1c0.7,0,1.3,0.1,1.8,0.2H614.2z M603.9,150c0,0.7,0.3,1.2,0.9,1.6s1.4,0.5,2.5,0.5c1.6,0,2.8-0.2,3.6-0.7
			s1.2-1.2,1.2-2c0-0.7-0.2-1.2-0.6-1.4c-0.4-0.3-1.2-0.4-2.4-0.4h-2.3c-0.9,0-1.6,0.2-2.1,0.6S603.9,149.2,603.9,150z M605,139.1
			c0,0.9,0.3,1.6,0.8,2c0.5,0.5,1.2,0.7,2.1,0.7c1.9,0,2.8-0.9,2.8-2.8c0-1.9-1-2.9-2.9-2.9c-0.9,0-1.6,0.2-2.1,0.7
			S605,138.1,605,139.1z"/>
		<path class="st0" d="M625.6,147.8v-8.3c0-1-0.2-1.8-0.7-2.3c-0.5-0.5-1.2-0.8-2.2-0.8c-1.3,0-2.3,0.4-3,1.1
			c-0.6,0.7-0.9,1.9-0.9,3.6v6.7h-1.9V135h1.6l0.3,1.8h0.1c0.4-0.6,1-1.1,1.7-1.5c0.7-0.3,1.5-0.5,2.4-0.5c1.5,0,2.7,0.4,3.5,1.1
			c0.8,0.7,1.2,1.9,1.2,3.6v8.4H625.6z"/>
	</g>
	<g>
		<g>
			<path class="st0" d="M158.5,118.4h-22.1c-6.1,0-11,4.9-11,11v22.1c0,6.1,4.9,11,11,11h22.1c6.1,0,11-4.9,11-11v-22.1
				C169.5,123.4,164.6,118.4,158.5,118.4z M158.5,151.5h-22.1v-22.1h22.1V151.5z"/>
			<path class="st0" d="M147.4,131.4c-5,0-9,4.1-9,9c0,5,4,9,9,9c5,0,9-4,9-9C156.4,135.4,152.4,131.4,147.4,131.4z"/>
		</g>
		<path class="st0" d="M200.4,118.5l21.5,31.2v-24l-0.1-5.7h-6.5v-1.5h13.8v1.5h-5.3l-0.1,5.7v37.2l-1,0.3L194,121.3v33.6l0.1,5.9
			h6.6v1.5h-14.3v-1.5h5.7l0.1-5.9v-29.2L192,120h-5.7v-1.5H200.4z"/>
		<path class="st0" d="M272,118.5v14h-1.9c-0.2-2.2-0.4-4.9-2.4-8.1c-2.2-3.8-5.3-4-8.3-4.1H256l-0.1,5.6v28.6l0.1,6.3h6.7v1.5
			h-20.4v-1.5h6.7l0.1-6.3v-28.6l-0.1-5.6h-2.9c-3.6,0.1-6.3,0.1-8.9,4.2c-2,3.3-2.2,5.9-2.4,8h-1.8v-14H272z"/>
		<path class="st0" d="M289.6,118.5l21.5,31.2v-24l-0.1-5.7h-6.5v-1.5h13.8v1.5h-5.3l-0.1,5.7v37.2l-1,0.3l-28.8-41.9v33.6l0.1,5.9
			h6.6v1.5h-14.3v-1.5h5.7l0.1-5.9v-29.2l-0.1-5.7h-5.7v-1.5H289.6z"/>
		<path class="st0" d="M342.5,118.5v1.5h-6.1l-0.1,5.3V149c0.1,6.1,0.2,12,11.7,12c11.7,0,12.4-5.1,12.6-10.6v-25.1l-0.1-5.3h-6.3
			v-1.5h13.7v1.5h-5.4l-0.1,5.3v22.6c-0.1,8.1-0.1,15.1-16.2,15.1c-2.3,0-7.8-0.2-11.2-1.7c-5.5-2.4-5.6-7.2-5.7-13.2v-22.8
			l-0.1-5.3H324v-1.5H342.5z"/>
	</g>
	<path class="st0" d="M395.2,162.3c-0.3,0-0.5-0.2-0.5-0.5V119c0-0.3,0.2-0.5,0.5-0.5s0.5,0.2,0.5,0.5v42.9
		C395.7,162.1,395.4,162.3,395.2,162.3z"/>
</g>
</svg>
