<?xml version="1.0" encoding="utf-8"?>
<!-- Generator: Adobe Illustrator 27.7.0, SVG Export Plug-In . SVG Version: 6.00 Build 0)  -->
<svg version="1.1" id="Layer_1" xmlns="http://www.w3.org/2000/svg" xmlns:xlink="http://www.w3.org/1999/xlink" x="0px" y="0px"
	 viewBox="0 0 468.8 445.8" style="enable-background:new 0 0 468.8 445.8;" xml:space="preserve">
<style type="text/css">
	.st0{fill:#AD9282;stroke:#000000;stroke-width:4.6017;stroke-miterlimit:10;}
	.st1{fill:#A1CF6D;stroke:#000000;stroke-width:4.602;stroke-miterlimit:10;}
	.st2{fill:#F5EC43;stroke:#000000;stroke-width:4.6017;stroke-miterlimit:10;}
	.st3{fill:#B6A69E;stroke:#000000;stroke-width:4.6017;stroke-miterlimit:10;}
	.st4{stroke:#000000;stroke-width:4.6017;stroke-miterlimit:10;}
	.st5{fill:#FFFFFF;}
	.st6{fill:none;stroke:#FFFFFF;stroke-width:4.6017;stroke-miterlimit:10;}
</style>
<g>
	<path class="st0" d="M61.6,127c-8.9-7.9,2.6-23.9,13.1-19.2c5.5,3.4,7,12.4,3.1,17.4C74.1,129.4,65.9,131.1,61.6,127z"/>
	<g>
		<g>
			<g>
				<g>
					<path d="M306.9,308.3c7,7.3,13.7,15.2,19.8,23.3c7.8,10.4,13.1,22.6,17.8,34.7c3.1,7.8,5.8,15.8,8.6,23.8
						c0.4,1.3,1.7,2.1,3.1,1.7c1.2-0.3,2.2-1.8,1.7-3.1c-5-14.4-10-28.8-16.7-42.4c-2.7-5.5-5.7-11-9.3-16c-3.3-4.5-6.8-8.8-10.4-13
						c-3.6-4.3-7.3-8.5-11.1-12.5C308.3,302.4,304.7,305.9,306.9,308.3L306.9,308.3z"/>
				</g>
			</g>
			<g>
				<g>
					<path d="M238.3,319.3c2.3,10.6,3.7,21.5,4.8,32.3c0.5,5.4,0.6,10.9,1.1,16.3c0.7,7.4,2.1,14.7,4.1,21.9c2.3,8.1,5.1,16,8,23.9
						c0.5,1.3,1.7,2.1,3.1,1.7c1.2-0.3,2.2-1.8,1.7-3.1c-4.9-13.9-10.1-27.9-11.7-42.6c-0.6-5.6-0.6-11.2-1.1-16.8
						c-0.6-6-1.3-11.9-2.1-17.9c-0.8-5.7-1.7-11.4-2.9-17.1C242.4,314.8,237.6,316.1,238.3,319.3L238.3,319.3z"/>
				</g>
			</g>
			<path class="st1" d="M214.3,267.7c0,15.3-0.6,49.4-0.5,64.6c13.6-8.8,31.5-10.6,46.5-4.5c0.2-13.5,2.3-27,6.3-39.9
				c5.4,13.6,10.1,27.4,14.1,41.4c15.2-10.9,33.4-17.8,52-19.6c-5.5-12.3-11-24.5-16.5-36.8c-0.7-1.5-9-15.2-10.4-16
				c-2.3-1.3-20.8-23.3-50.6-17.8C242.5,241.5,233,260.7,214.3,267.7z"/>
			<path class="st2" d="M146.5,154.5c13.8,15.3,43.5,24.9,51.8,43.7c2.1,4.7,2.9,9.8,3.7,14.9c2.8,19.3,3.5,38.9,2.1,58.3
				c34.8-12.8,73.3-25.6,107.9-12.5c3.7-4.6,1.6-11.3-0.7-16.7c-7-16.4-14.9-32.4-23.6-47.9c9.5,2.9,19,5.8,28.6,8.7
				c0.8-8.9,6.9-29.5,7.7-38.4c-17-10.6-39.4-9.5-56.5-20.1c-8.8,10.4-24.6,11.2-38.1,9.1c-19.5-2.9-38.4-9.8-55.2-20.1
				c-2.2-1.3-4.6-2.8-7.1-2.3c-1.8,0.3-3.2,1.6-4.6,2.8C156.1,139.9,150.7,146.9,146.5,154.5z"/>
			<g>
				<path d="M258.6,413c-10.8-9.5-28.3-12.4-42.6-13c-9.6-0.4-19.2,1.5-27.9,5.3c-6.5,2.8-6.7,11.9-0.4,15.1
					c9.1,4.6,19.2,7.1,29.3,7.1C232,427.6,246.9,422.4,258.6,413z"/>
			</g>
			<g>
				<path d="M356.3,390.2c0.1-3,2.1-5.5,4.1-7.7c13.7-15.5,29-31.5,49.2-36.2c0.9-0.2,1.8-0.4,2.6-0.1c1.9,0.6,2.3,3.1,2.2,5.1
					c-0.7,8.8-7.2,15.9-13.9,21.6c-12.5,10.6-28.3,18.9-44.5,17.3"/>
			</g>
		</g>
		<g>
			<g>
				<g>
					<g>
						<path class="st3" d="M283.4,49.4c14.8,32.6-4.7,79.8-38.9,91.1C181.2,153,138.7,51.3,197,19.6C225.5,2.5,268,22.6,283.4,49.4z
							"/>
						<path class="st4" d="M257.9,97.9c17.2-5.9,15.5-43.7-5.2-44.2C228.5,55.4,229.7,105.3,257.9,97.9z"/>
						<path class="st5" d="M243.2,71.1"/>
					</g>
					<path d="M194.6,53.4c-14.4,11.2-19,44.9,2.5,47.3c0.9,0.1,1.9,0.2,2.8,0.3c32.7,4.3,28.8-51.2,0.2-49.6
						C198.1,51.5,196.2,52.2,194.6,53.4z"/>
					<path class="st5" d="M204.5,96.4c8.1,0.3,11.2-8.9,9-10.9c-6.2-6-14.2-10.4-22.8-7.1c0,0-1.9,0.6-2,2.8
						C188.4,89.7,190,95.8,204.5,96.4z"/>
					<path class="st5" d="M199,57c-10,4.6-3.3,9.3,2.9,9.6c2.7,0.1,4.5-1.1,6.4-2.6c2-1.7,1.6-5.3-0.7-6.2
						C204.7,56.6,201,56.3,199,57z"/>
				</g>
				<path class="st5" d="M241.6,87.6c0.7,2.8,3.1,4.4,5.8,5.5c2.9,1.2,6.1,1.5,9.1,0.9C280.6,89.1,229.5,61.5,241.6,87.6z"/>
				<path class="st5" d="M258.8,63.9c0.6-1.6,0.1-3.4-1.2-4.5c-7.7-6.4-23.2,9.9-5.9,10.8C255.3,70.2,257.7,67.1,258.8,63.9z"/>
			</g>
		</g>
		<g>
			<g>
				<path d="M321.2,187.1c12.6,0.2,25.1,1.9,37.3,5c1.2,0.3,2.8-0.4,3.1-1.7c3.1-18.1,6.3-36.2,9.4-54.2c0.2-1.3-0.4-2.7-1.7-3.1
					c-1.2-0.3-2.8,0.4-3.1,1.7c-3.1,18.1-6.3,36.2-9.4,54.2c1-0.6,2.1-1.2,3.1-1.7c-12.6-3.2-25.6-5-38.7-5.2
					C318,182,317.9,187,321.2,187.1L321.2,187.1z"/>
			</g>
		</g>
		<g>
			<g>
				<path d="M150.4,139.4c-17.5-5.8-35.3-10.8-53.3-14.9c-5.1-1.2-10.2-2.3-15.4-3.3c-1.3-0.3-2.7,0.4-3.1,1.7
					c-0.3,1.2,0.4,2.8,1.7,3.1c18.1,3.7,36,8.2,53.7,13.5c5,1.5,10,3.1,15,4.7C152.1,145.3,153.4,140.5,150.4,139.4L150.4,139.4z"/>
			</g>
		</g>
		<g>
			<g>
				<path d="M343.4,109.3c-2.5,9.5-6,19.3-3.7,28.8c0.5,2.1,1.5,4.3,3.3,5.6c1.4,0.9,3.1,1.1,4.7,1.4c13.2,1.8,26.4,3.5,39.6,5.3
					c1.8,0.2,3.7,0.5,5.3-0.2c2.3-0.9,3.7-3.3,4.8-5.6c11.1-23.4,12-50.2,19.8-74.9c2.5-8,5.1-18.4-1.8-23.2c-2.2-1.5-4.9-2-7.5-2.5
					c-16-2.7-28.4-5.6-44.7-5.8c-2.1,0-4.4,0-6.2,1.1c-2,1.2-3,3.5-3.9,5.7C350.9,51.3,347.5,93.9,343.4,109.3z"/>
				<g>
					<path d="M341,108.6c-1.8,6.7-3.9,13.4-4.4,20.3c-0.4,5.5,0.1,13.9,5.6,17.1c2.9,1.7,6.8,1.6,10.1,2.1c3.6,0.5,7.3,1,10.9,1.4
						c7.1,0.9,14.2,1.9,21.3,2.8c3.4,0.5,7,1.3,10.2-0.4c2.5-1.4,4-4.1,5.2-6.6c2.7-5.8,4.9-11.8,6.6-18c3.6-12.4,5.6-25.1,8.3-37.7
						c1.3-6.3,2.8-12.6,4.8-18.7c1.5-4.9,3.1-10,2.9-15.3c-0.2-5.4-2.6-10.3-7.8-12.5c-2.9-1.3-6.2-1.6-9.3-2.1
						c-3.3-0.6-6.6-1.2-9.9-1.8c-6.2-1.1-12.5-2.1-18.8-2.8c-3.3-0.3-6.7-0.6-10-0.7c-3.1-0.1-6.5-0.4-9.5,0.8
						c-6.7,2.7-7.3,11.8-8.2,17.9c-2.4,16.7-3.7,33.5-7,50C341.7,105.8,341.4,107.2,341,108.6c-0.8,3.1,4,4.4,4.8,1.3
						c1.8-6.9,2.7-14.1,3.7-21.1c1.2-8.6,2.2-17.2,3.3-25.7c0.1-0.9,0.2-1.8,0.4-2.8c0.1-1,0.2-1.3,0.3-2.2c0.2-1.6,0.5-3.3,0.7-4.9
						c0.3-2.2,0.7-4.5,1.3-6.7c0.4-1.4,1-2.9,1.9-4.1c1.6-2,4.2-1.9,6.5-1.8c6.1,0.1,12.2,0.6,18.3,1.5c6,0.8,12,2,18,3
						c3.1,0.6,6.2,1,9.3,1.6c2.3,0.5,4.7,1.3,6.2,3.1c2.5,3.2,2,8.1,1.2,12c-1.1,5.3-3,10.4-4.4,15.6c-3,11.8-5,23.8-7.6,35.7
						c-1.3,5.9-2.8,11.8-4.6,17.5c-1,2.9-2,5.8-3.2,8.7c-1,2.3-1.9,5-3.5,7c-1.8,2.3-4.6,1.6-7.2,1.3c-3.3-0.4-6.6-0.9-9.9-1.3
						c-6.9-0.9-13.7-1.8-20.6-2.7c-3.2-0.4-6.4-0.6-9.5-1.3c-2.6-0.6-3.6-2.4-4.2-4.8c-1.5-6.1-0.3-12.4,1.2-18.4
						c0.8-3,1.7-6.1,2.5-9.1C346.7,106.9,341.8,105.5,341,108.6z"/>
				</g>
			</g>
			<path class="st6" d="M404.1,83.6c-9.9,0.9-15.7-11.1-15.9-19.7c8.1,94-59.3,40.7-15.7,25.1"/>
		</g>
	</g>
</g>
</svg>
