<?xml version="1.0" encoding="utf-8"?>
<!-- Generator: Adobe Illustrator 27.7.0, SVG Export Plug-In . SVG Version: 6.00 Build 0)  -->
<svg version="1.1" id="Layer_1" xmlns="http://www.w3.org/2000/svg" xmlns:xlink="http://www.w3.org/1999/xlink" x="0px" y="0px"
	 viewBox="0 0 83.6 84.3" style="enable-background:new 0 0 83.6 84.3;" xml:space="preserve">
<style type="text/css">
	.st0{fill:#F5EC43;stroke:#000000;stroke-width:4.6017;stroke-miterlimit:10;}
</style>
<path class="st0" d="M27.9,55.1c-3.6-3.3-6.5-0.9-14.3-4.2c-2.5-1.1-11.2-4.8-11.3-9.8c-0.1-5.4,10-9.8,12.4-10.8
	c7.9-3.5,12.5-2.1,14.4-5.7c1.5-2.8-0.8-4.5-0.3-10.7c0.2-2.5,0.8-9.4,4.9-11.2c4.5-2,10.5,3.2,11,3.6c4.8,4.2,3.8,8.2,7.3,9.4
	c3.4,1.2,5.1-2.3,11.6-3.1c3.6-0.4,10.4-0.1,12.4,3.5c2.1,4.1-2.7,10.6-4.5,13c-3.8,5.1-6.5,5.4-6.7,8.1c-0.2,3.8,5.1,4.9,10.5,11.9
	c0.9,1.2,8.1,10.4,5.3,14.8c-2.4,3.8-11.4,2.8-15.7,1.9c-6-1.3-8.8-4-10.9-2.5c-2,1.4-0.5,4.3-2.2,9.1c-1.6,4.5-5.6,9.9-9.5,9.7
	c-3.9-0.2-6.5-6.1-8.7-11C29.6,61.9,31.6,58.5,27.9,55.1z"/>
</svg>
